<mxfile host="65bd71144e">
    <diagram id="RvZDJnk46g3_B9J8coNR" name="ページ1">
        <mxGraphModel dx="4037" dy="977" grid="1" gridSize="10" guides="1" tooltips="1" connect="1" arrows="1" fold="1" page="1" pageScale="1" pageWidth="827" pageHeight="1169" math="0" shadow="0">
            <root>
                <mxCell id="0"/>
                <mxCell id="1" parent="0"/>
                <mxCell id="2" value="" style="shape=image;imageAspect=0;aspect=fixed;verticalLabelPosition=bottom;verticalAlign=top;image=data:image/png,iVBORw0KGgoAAAANSUhEUgAAA94AAALuCAYAAABYYM4yAAAgAElEQVR4AeydB3gUVReGT4BACFU6hCZFuvTepao0QUCKCvyASlERVIrSFBXELoKVIqigdEVEEBQBKVKlKb13pZcQ8j/fDXcz2czszrZkN3z3eZaZnbn1nQH2u+fcc8NiY2NjhYkESIAESIAESIAESIAESIAESIAESCAgBFIFpFZWSgIkQAIkQAIkQAIkQAIkQAIkQAIkoAhQePNFIAESIAESIAESIAESIAESIAESIIEAEqDwDiBcVk0CJEACJEACJEACJEACJEACJEACFN58B0iABEiABEiABEiABEiABEiABEgggAQovAMIl1WTAAmQAAmQAAmQAAmQAAmQAAmQAIU33wESIAESIAESIAESIAESIAESIAESCCABCu8AwmXVJEACJEACJEACJEACJEACJEACJEDhzXeABEiABEiABEiABEiABEiABEiABAJIgMI7gHBZNQmQAAmQAAmQAAmQAAmQAAmQAAlQePMdIAESIAESIAESIAESIAESIAESIIEAEqDwDiBcVk0CJEACJEACJEACJEACJEACJEACFN58B0iABEiABEiABEiABEiABEiABEgggAQovAMIl1WTAAmQAAmQAAmQAAmQAAmQAAmQAIU33wESIAESIAESIAESIAESIAESIAESCCABCu8AwmXVJEACJEACJEACJEACJEACJEACJEDhzXeABEiABEiABEiABEiABEiABEiABAJIgMI7gHBZNQmQAAmQAAmQAAmQAAmQAAmQAAlQePMdIAESIAESIAESIAESIAESIAESIIEAEqDwDiBcVk0CJEACJEACJEACJEACJEACJEACFN58B0iABEiABEiABEiABEiABEiABEgggAQovAMIl1WTAAmQAAmQAAmQAAmQAAmQAAmQAIU33wESIAESIAESIAESIAESIAESIAESCCABCu8AwmXVJEACJEACJEACJEACJEACJEACJEDhzXeABEiABEiABEiABEiABEiABEiABAJIgMI7gHBZNQmQAAmQAAmQAAmQAAmQAAmQAAlQePMdIAESIAESIAESIAESIAESIAESIIEAEqDwDiBcVk0CJEACJEACJEACJEACJEACJEACFN58B0iABEiABEiABEiABEiABEiABEgggAQovAMIl1WTAAmQAAmQAAmQAAmQAAmQAAmQAIU33wESIAESIAESIAESIAESIAESIAESCCABCu8AwmXVJEACJEACJEACJEACJEACJEACJEDhzXeABEiABEiABEiABEiABEiABEiABAJIgMI7gHBZNQmQAAmQAAmQAAmQAAmQAAmQAAlQePMdIAESIAESIAESIAESIAESIAESIIEAEqDwDiBcVk0CJEACJEACJEACJEACJEACJEACFN58B0iABEiABEiABEiABEiABEiABEgggAQovAMIl1WTAAmQAAmQAAmQAAmQAAmQAAmQAIU33wESIAESIAESIIE7hsD169dtjTU2NtZWPl8yffTRRzJlyhSx2ydf2kqOskuXLpV///03OZpmmyRAAiQQdATCYpPif5agGzY7RAIkQAIkQAIkcKcRuHXrlqROnVoKFy4s+/btk7CwMFMETzzxhHzyyScybtw4ef75503z+OOibn/ChAnSp08ff1QpGOPx48clbdq0kiZNGtM6b968KTdu3JCoqCh1Hz8Fjx07ZqtMZGSk3HXXXab1Ol/U49u9e7fcc889zrddfsc4Nm7cKD179pSVK1dKpkyZXObnTRIgARIIdgLm/yIHe6/ZPxIgARIgARIgARLwkMCePXtUif/++89SdCND+fLlVb6GDRt62IL97EePHlWZs2bN6jfRjQq/++476dixo62OxMTESKpUqWTZsmXSpEkTW2XQXztWbGOeYsWKua0bVv+///5bFi9eLDNmzJAtW7Y4ymTOnFkCbSe6cuWKpE+f3uV74egQT0iABEjACwIU3l5AYxESIAESIAESIIHQIzBy5EjV6YULF9rqfI4cOWzl8yaTtqRPmzbNm+KWZc6cOaPujRgxQjp37mzqxn7vvfcmKL9p0yb1HRb+1q1bm5Y5f/681K1bV5zLJqjI8OW9995T3yZPnqzEvbayX758WU6cOCE7d+6UdevWyfr162Xr1q2CyRBjglcCvADQnyJFihhvuTzHs23VqpUsWLBAWrZs6TKvvgnRnyFDBvV1//79yiNC3+ORBEiABPxFgMLbXyRZDwmQAAmQAAmQQNASgOvy119/rfpXu3btgPYT4g/W04iICNWOPupGr1275ujL4cOHZdu2baZiV+fXR5RDwvHcuXNKlKZLl07fTnB85plnLF3C69WrJ7/99psjP8TtCy+8IN26dZOcOXM6rpud2LWmjxo1ShV/7LHHBGvZ+/bta1ad4xq8DMaPH6+8DbJnz67EuuOmByfgiYSlAnaFN9zydULbTCRAAiQQCAIU3oGgyjpJgARIgARIgASCigBcsJEGDhzo1p0Y65iRwsPD1dGTPyDwYXG1m9wJUlf1uFo7DTf56tWrmxY3im5k0NZeuJtblbl48aKqCxZrd+n3339XWTp16qQEdO/evdWaeliusda7YMGCkj9/ftm7d6/Dgv7KK69I48aN3VXt9v7MmTNVnnbt2rnNa5ZBszC7x2skQAIk4AsBBlfzhR7LkgAJkAAJkAAJhAQBHegL1mIEH1u0aJFAYGuRrQeRLVs2GTRokFpjDOGIz9WrV/VtxxFrgpFQvkOHDo7rOIHw1FZuo0Ua54cOHXKsp4Y7dIkSJWxZu3UDOgI6XLPh+m2sH3nsWJd1XXqNN9abQwjbSXYCziH4Gvp36tQplxZ0nQ+TIbB266SXAti1WOtyON59991y4MABwQSB87M15jOeY/041rojaSbG+zwnARIgAX8QoMXbHxRZBwmQAAmQAAmQQNASwLZWSC1atFBCFVt4aVdoV52Ga7p2T3eVz1l416lTxzL76tWr1T24e3sjLC0rdrrhaq1yhQoVEgQv00VdlTGKU53f7LhhwwYluuE67uy2DkGMtdtImNyAOMd3o+jGWnDtMYB16npdvllbztfgbYA2EADOruh2rkMLcH0d49aTNvoajyRAAiTgDQEKb2+osQwJkAAJkAAJkEBIEIBw0hG7v/jiC9VnrGfu1atXgu2zsPUWRB8s3sZ04cIFdd14DefIi2S1ZZdzfnyHtbp79+7q1vfff2+WxW/XtGu4WYUIlGZMP//8s/qKLcasEizBdlLVqlVVNriXG5O2xOM6JkDeeustdXvXrl3GbFK8eHH1HYJ8yJAhCe65+wJPBqRChQqZZoUwR4KQ1mIa74fRowGTNPiO57NkyRIl5GkFN8XJiyRAAh4SoPD2EBizkwAJkAAJkAAJhA4BHT0cPdZRymENNbOI6rXJsEbDJRzJn/tHN23aVNUJS27GjBlVUDW4iuvgXq7WlEdHR6so4G3btrUl9u1GH0eHTp8+rfoFt3dfktE67bwW/NFHH1UB1hD0DB8kuKIbXeWxfzos1kiu9llXGUz+QKR0pC5duiS6i4kSV3x1AT1Jo7/zSAIkQAL+IkDh7S+SrIcESIAESIAESCCoCEDEacsqOubObRhrppHmzZsniMYNqyespM7ux8gDCy6st3Ys3rA+T5o0yRFJHAIVffNEHKuO3f4D43CXYFW+//771VpnnReBwzDhAKF98uRJh9W3efPm6nvu3LmVezjWrzsLZ3x35Z6PdeLG+85ByjCBgX7Dvd7M2g+eWpBjHb62SOu+2zliH3AkZxd3XEudOrW6Bzd049Zl+I6kr2FNf5s2baRUqVLKDR4TJN70RVXKP0iABEjAQIDC2wCDpyRAAiRAAiRAAimDAEQeAm3ZTdpaC8GKoF+wekMgwn05KioqQTWzZs1S1ltEJLcjgiGwtSUXkciR8ubNq/aa1tuO6WBsxoZgDcbHaInG2mk7CW71zgIUVl+IWwQzM04mlCtXTq2zRlCzX3/9VRBAzXhft2cU1vqaPurgbHARx1idhbvOhzbefPNNtX1Zrly5BDzgXaCju2ObNG0FxwSB8xh0PWZHWNCRzKzWEM9WzwrX9Xi/+uors6p5jQRIgAR8JhAXwtHnalgBCZAACZAACZAACQQPgQYNGqjOQEhDRLtKsJRqUam3HYMVGEmvf9blIRz1XtbO65h1HuMRok6LbriYYzstJIhLWH+xhRaCsVWpUiXRB4JYTwigzPr162Xz5s3G6i3PzYTvnDlzlMAtWrSoaTkENYOHgF4rbcxkJVqRRweJA+d169YZi5mew/1fb/uFSQUtlI8cOeLYexziHMIcR7tp6tSpKivc8r1Neh24t+VZjgRIgASsCFB4W5HhdRIgARIgARIggZAkALGq96rGll2u0r///uuwKCOvtrbC1Rhp8uTJjuKIhq4jbkM4fvzxx457VifYu1qn4cOH61O3R6w3h5UWUdVhRYb7NcS5LwnR1+FKjYkAvWWXrg9WfCRYu50t/DqP2RHltOv48uXLzbKYXnOOBI+I6sZ2e/bsqcohEJ5zX00rFJEsWbKoW9r6bpWP10mABEggOQjQ1Tw5qLNNEiABEiABEiCBgBGApRQJYg7i1TmKt24YotsYxbxSpUr6llq7DbduCHhEIx82bJhjvTgsz3ZEMLbt0tZuR8VuToxuz8gK4d+tWzc3paxvoz5s16XXd+to55hAwOSB3o9cR1vfs2ePYIIB1+G6DSu9qzXOCPaGBNZw13YVGd3YS6OYNtvvG+7+W7duVevg0VdXW53pevVz1m7j+rq7oytrvruyvE8CJEACdglQeNslxXwkQAIkQAIkQAIhQaBPnz7yv//9z2G9Nus0goE5W0adXZSHDh2q3MqN66/NRKJZ/VZ7ZZvltboGK7e2wFvlcXcdohJWY7OkXeaN94xRx3EdVnpXwhvB5VwJV0xu7N27VzJnzuxoZv78+Y4+IbjZt99+q/YVP3bsmBw+fFgOHjzoCHamC2G9vqttvfQe3jq/J0cIdb023ZNyzEsCJEACnhCg8PaEFvOSAAmQAAmQAAmEBAEzwaoFJPZq1uuKsU4blm0d3Ms4uNatWzu+QphBQLqzpsJSDJdpHSUb+4B37tzZ4Y6NCmF11lG29VE3pC3QaA/3YG03JuN+2mZbohnz4hz9hYDX7ej+4zho0CBlxYcFv3Llyg4Brdc5uxK6zu1YfYervWZhlgf3jOwxbgSjK1mypBQrVkwqVqyo+rllyxZp2LChCv5mVo9+tniWeoxm+ayuaTd1q/u8TgIkQAK+EqDw9pUgy5MACZAACZAACYQEgUuXLgn2isa6aSRE94YbNrayMksQ7wjOhjXMsKLbEXRYm6yFJiJ0YxstWHF1gnXYaP3V152PcFF3t++0K0uzsT6zSQjcx1ZZSLDOQ7hq8arHaWerNGM7ZufTpk1TvHv06CHwHICXAdzeUTcmDiD6sY0b1pYb91w31rVhwwbFAm7/Vtu7GfPjHJZ2REXXweyc7/M7CZAACSQ1AQrvpCbO9kiABEiABEiABJKFwI8//ugQ3StXrlTRxN11BNtLQSjDXRuWWXdWZuSHldZVXljZIci18DXueY39tfXe4xCjOuko5Zg8QMKe23YSrNpw4UZCm8ajbuehhx5yBJjTa8D1EcLVGFldVeDBH4h4rqOeo9i2bdtUaVi2kcy2fNPbnunlAhDp2HYM3gN6UkAVNvlDr/MePHiw2jrNbHIC9UOYI2EyAM9Bl9OTDyZV8xIJkAAJ+ESAwtsnfCxMAiRAAiRAAiQQKgQQSbt27dpqyyp3AlqPCWIVAhjCu0yZMirIl75ndbSy3CI/hJ27aOgQxHCZdlWPVdvO12fPnu0ywBvWWMOiryOTO5eHQPZFeDvXBzdyJFdB46ZPn64mLrDeXG+fZtdyDZdxiG2UxdiMCZMJsK7Dbd0qLVu2TG3xZnWf10mABEjAWwLcTsxbcixHAiRAAiRAAiQQUgTgpoz113ZFtx6cFsBw//anCNX1G49mFlrjfU/P9+3bp9yzUa/xg23FkLRbPLZSM97HOXghmri/ElzGkSCIH3/8cctqdRR3CGRsq2Ynob866f28EbRNJ1i54bmAOjGZAOGPqO5YbmAU6Fj7Dyu8p9HodTs8kgAJkIAVAQpvKzK8TgIkQAIkQAIkQAK3CWC9NtKoUaNE73kdCnCMa7d1fyFm9Tp3uG8jYcsu57Xu/nS7hjCuWrWqamvt2rWO9eS6T85HuJYjwULtHGDOOS++wwUdAhrCWm+N1qhRI0dWWNGRsD0aJhMg7uEBgTX+cDvXru/IA9EN8Q0XeR1ozlERT0iABEjASwIU3l6CYzESIAESIAESIIGURcAYzAziC9HItYUb+0r//PPPasDYhiuUxLfxKWH/bIhZJAhQuNJr8Y116RgnhLnRgmwsb1yPbrzu7vzJJ59UWerVq2cr4Blcy7EWHgkRzu2kQoUKObKhrHHiQEeL79WrlyOP8URbuDHBotfWw/0e0eCx9RwTCZAACfhKgMLbV4IsTwIkQAIkQAIkENIEtOv5O++8o4Q2BBssnrAK62BmGGDjxo2VxRTnEN/OFuJghgA3b4hqWLaRMImgrbwQ37DsQqzC9RzCHBZkTDxoQarHhrXTniZs36bLLVmyxHZxvRZeT4K4K9imTRtHliFDhjjOcVKgQAH1vWzZsiraub4JazeiuusERlhagP3adcK+40wkQAIk4CsBCm9fCbI8CZAACZAACZBAyBGARReiCxZguI8jIaiZPsc2YnB3hiuyMcECrtdHw0IMcerPZLTS+lIvrPcQrOgv6oSbN0Q1xDasuphEMCbkgdDFPT0+TDxoC7deC66jfxvLujr/+++/HXumI5K81dZmVnVoF3/0BVvBuUrGMRUsWDBBVriNY+wYR65cuRQTjDlbtmyOYGtHjhxxlMmZM6dgH3O4pj/11FOO6zwhARIgAW8JUHh7S47lSIAESIAESIAEQpIALNWw6EJ0wQKsrboQnNhXGoILgtwqkja2DENQLiQIQqPF1FMgsDTDbR3u3RCp2oXdU4Fr1i6EpJ5IgIs3XMvxgVXXKuEexqdF58GDB1W/MMmA1K5dO6uiptexjhoJ7tt16tQxzePqIvqzdetWlQVWcwRJs0p6DbnVfYwd4h+TKogajw+4INAaxovAe8aEd0RPXBiv85wESIAEvCHA7cS8ocYyJEACJEACJEACIUtAW0YRjGvMmDHSunXrRKLL3eBgCa9fv74S7ggW5m2Kjo5WbuvO5WvWrOl8yaPvqBdCF+u3YbWGiPQkIf+8efMcwl2XNbpz62uujtgODHt3lytXzlU2l/dQFt4H+fPnF+zpbZVgTYeFHFuKWY0XTLyZALBqk9dJgARIwC4B63+97NbAfCRAAiRAAiRAAiQQxAScrcewZMMa7Gzh9HQIcF+2CkJmrAtC0CpBLMLKjm2/dIIF3crarvNYHfV6dR0oDuu3vU1YB/7DDz+o4tmzZxdECdf1u6tTu6gjny+iW7djl4cra76ui0cSIAESSA4CYbF2/sdIjp6xTRIgARIgARIgARLwEwH83PHX+mk/dYnVkAAJkAAJ3EEEPPM7uoPAcKgkQAIkQAIkQAIphwBFd8p5lhwJCZAACYQiAQrvUHxq7DMJkAAJkAAJkAAJkAAJkAAJkEDIEKDwDplHxY6SAAmQAAmQAAmQAAmQAAmQAAmEIgEK71B8auwzCZAACZAACZAACZAACZAACZBAyBCg8A6ZR8WOkgAJkAAJkAAJkAAJkAAJkAAJhCIBCu9QfGrsMwmQAAmQAAmQAAmQAAmQAAmQQMgQ4D7eIfOo2FESIAESIAESIIGkJnDr1i23TaZKRTuGW0jMQAIkQAJ3OAH+T3GHvwAcPgmQAAmQAAmQgDmBo0ePSurUqd1+7Ihz3QL2E7ebPKnXqk6MgYkEkovAwoULZcOGDQFpnu92QLCy0gASoMU7gHBZNQmQAAmQAAmQQOgTyJo1q3To0EEuXrxoOhi7e4RDdMM6Xq9ePVm2bJmkSWP9M2zbtm1y7733SuHChWX//v2m7bq7iPby58+vssXExKi23ZWxuo9JgK5du8o999wjI0eOtMqWrNdPnz4tW7ZskYiICPVJly6dV/25fv26Knft2jXBp3Hjxl7Vk5yFDhw4ILly5ZLIyMhk6wY4tmrVSrXv6/vnPAi+23fuu+38LoTS97BYT6ZeQ2lk7CsJkAAJkAAJkAAJ+EAAFjUI1wkTJkifPn18qCmuKIQhxBASBJ0rYajbHjFihNdC98qVK5IhQwbBxMG///4rEGPh4eGq/bRp08Z1SkRu3Lgh0dHRkj17dsmUKZPjuvEEZe+++251KVh/OlaoUEEJb2O//XHui2gEqyeffFL69esn5cqV80d33NYBC3PVqlVVvt69e6v319Ukj9sKvcyAsWOiyZfJI6um+W5bkfHsujfv9kcffaQm4EJxQsozOv7PbT3V6v+2WCMJkAAJkAAJkAAJhByBy5cv+6XPU6ZMUfWMGzfOpeg2Ngbh7G2CVR3pnXfeUUctnK3qM4r8v//+W2Cx1GJR96N8+fJWxYPm+u7du+Wuu+7yqT8QqkWKFJH//vvPp3oOHjwon3zyifrguT///PM+1WenMJ5ZixYt5Pvvv3e0/fPPPyeb5T5Llix2uu1RHr7bHuFKkNmXdxueL3379nVM5iWomF/cEqDwdouIGUiABEiABEiABEjAdwIvvPCCqqRnz56+V2ajhvHjx6tc7dq1E6OV2tl1fdGiRerHtBbX+HFdokQJVVZbxHLkyGGjxeDIAnd4fyS4+v/2228+VaU9DFDJ008/7VNddgvDkwJrq7XXBMo1adJEiXFcTwmJ77ZvT9Hbd1svqylUqJBvHbhDS1N436EPnsMmARIgARIgARJIOgKwIOvkbI2F0IWrtyvXc13W7vHmzZtKNMLNV7uPw+UcP5hxzZjat2+vhLe+pt2D4V6uf2jre94eIfxhpXzvvffk999/T2RJhiW9TZs20q1bt0T987TNpUuXSsGCBZXF3tOyOj+exdatW/VXr4/z589XZTt16uTX52unQ1FRUWrC5YknnlCWb1jA33zzzSSxuqN//np3nMfKdzs43m3n58Lv7glQeLtnxBwkQAIkQAIkQAIk4BOBXr16OcpbCZL169dLlSpVHPl8OZkzZ44qPnbsWEc1EN3nz593fNcnWOPtnOAeDIFu1Vfn/K6+Q+xpa79zPu26jqBo+IwaNUpl8YUFrLvBkuBmjuSPGAHejunjjz+WmjVryoABA2TgwIHeVuMoh3gBmCSBsNeTOvroyCTiCEaI5zpo0CDjLce5DliIIz5Yk96yZUvHfbMTvttmVHgtFAhQeIfCU2IfSYAESIAESIAEQpYAhIp2WYawcE5anP31119+E96wciK1bdvWublE3/21ht25YmNANtyD6Bs2bJhA1GObNqRNmzY5xD28Apo1a6aCwCE4GPJrl2Lnul19h6U6T548Kmgc8iGQ3EsvvaSsvnCzh0u9cbIB9//44w8VgRvrsDt37qw8EFAW+bzdpx2eDBCdSDrYmfpi8gfyfvfdd+p5BSIQGjwJ8PFHQmAz/T7bre+tt96ylRUR/90Jb77byf9u23qYzJSIAIV3IiS8QAIkQAIkQAIkQAL+IwDrINLkyZNNxc+sWbOU6/W7775ret/TniCqNYKCwWLtLOL86T7uql9YS6y3koJVe+3atQ5Xa23lhOu70aKOtdkQxuDRsWNHgVhDXlhsPUlly5ZNUC/Kaovshx9+aCrmd+3apZqAoPRXALQ9e/aoOvEc4LpuXGdvHDcytW7dWgVDwzmWHTg/N1WRmz8gSLFsIKmiTWMSadKkSYI4AM4JEyvwXtAeDOfOnXM8A+e8mNjYuHGj28kJlOO7HRzvtvMz5Hd7BFLZy8ZcJEACJEACJEACJEACnhLAftzaOmhmcYQ1XEfOhnUU65N9Te6sq7AkGz/a3dvXdnV5WK616IYFefPmzQ7RjTxnz55VWa0CNGHPdLiaI8EbwLg+Xl1084cWuPqI7NpyDjEP8WZMeAbaFX7BggXGWx6dw2oNazAmN/AcMQ4kfMe6fghM/XF2vYa1WydjQDZ9zd0RYwUruNljPEmR8N5gAgGTBM4fXL906ZKjG3/++WeiPLoMmOTNm9eR19UJ3+1YhSep321Xz4T37BOg8LbPijlJgARIgARIgARIwDYB/DhG9GCklStXmpYzBt9CBggnCDhvE6zFOiHAmHOC9RUi1PjBVlP+TDoiOrYnM7MeI4o6UpcuXSybxVp37ZYP93NPEoQc9hrGEQJQf3QdEG/6Go7ZsmXTtxKVwfp0VwlWZl0XrLxwY8e2bXiO2s1cl4dQhSs1EiYAjC7VsIhfuHBBZ1Xu7o4vNk6MIldb920U8ymLuyUKRvdyY4wDbxvluy3q/Uyqd9vb58Ry1gToam7NhndIgARIgARIgARIwGsC2uoLwVWnTh3TerQr7rRp01TAKrhYN2zYUK33NS3g4iKiPaO8TmaB1PQ949G43tl43ZtziAKdRo4cqU8THGfOnKm+Y5yu0oQJE5QVFxZjbI2FYF52U4ECBVRWRBNv2rSpskRHRkY6iq9Zs0bVjf2usd2aTrBYI9/p06cdVnB9z84RwlrvoQ1PB7jTw80a4lwnjAfiHFHGMcmCCQIkCGZM0NStW1e+/vprGTJkiGMfdV3W6qi9CNC+N27qVvV6e117KYAFJmIgwnHN263e+G7HP4nkerfje8AzbwlQeHtLjuVIgARIgARIgARIwILAlClTHGt2582bp4QXLMBGMardkvVabLgmv/jii8o1PVeuXBY1W19u1KiRuglL8ZIlS0wjmJuVRnAxf6W+ffuqqqy24oIXgHa915Zxq7YhIDFpAcuxO+sq6kU+CF2kSpUqqSPEu/P2bbiBNdVwzcaEh9l95NHu56oiiz/eeecdAXcITKOwR38xzsNMhrgAACAASURBVKFDhyYQ3agGzxsfCPBDhw6pc109JmggnlEWR7tu49qLAP1wlbBmHiJdT7bkz58/Qb9dlfXknvZSeO2119T4ILxxzXkPebt18t1O+nfb7rNhPvsEKLzts2JOEiABEiABEiABEnBLAGuIu3fvrvLBgqlFNKzbWOuKwGNIEIVI77//vjrij+3btyt3ZX0Brst2EtxwtaBFfREREUq0OpeF2Ktfv36Cy1YiOUEmG19glUaC+C1XrpxpCURu18mOSzQChUFQwyXfzG1d16XXvDqvGy9SpIjD3V/nxRGCF8nqvl1vAYhtvZZb14++aE+Gnj176ssJjojsbpVgCc+cObNa+4/nBZHuLmnRjwkF54TnAnawopslTG5guUHOnDnNbnt8Dfu0o99I+j3Qkwl4T515uWuA73bcuu6kfrfdPRfe95wAhbfnzFiCBEiABEiABEiABEwJwJ1WB4BCADPtYg53Y6wlhqiC8F22bJnDovrggw866oKAghDWa8MhYuzsAY36kHbv3p0gkJmjYsOJFp36kg7upr97e9Tr1WHltUqvv/66ugU2dhIilNtJRlduY36IFTwPHUndeA/iEJMEZveR33mNtrGsq/NVq1ap2xDMVtZ0V+UxIaGFav/+/R0TNa7KzJ49W902ei/AXb5atWoOEYwMqBcu/pgMwrsFMY5x4jvEt68R0a9fv65c5dGWDpCHcz2ZgKUQpUqVcghy1Wk3f/Ddjl+mYESVHO+2sX2ee06AwttzZixBAiRAAiRAAiRAAqYETp06pa7D5VdH0sYFCDC4H8OCDcu0jlwNt3C9xldXCCshomtjjTiE0Y4dO9R2S875dH4cseUW1gRD7LkKzob7zu6+sIjC5dhfycpyin5pq+uAAQNsNWe0kNsp4GypXr58uan4hbCGVRnbWFmJY91XO+0a8/Tr1099NXoyGO/bOYdrNiYEII7tpMOHD6tsOqAegsIZXeXxPmGCx/gOYUJn+vTpjq3MEBAO76i2nttp15gH67DhaYEEgY8AeTphMkG/05hUwgSR3fXefLfjKAbDu62fJ4/eEaDw9o4bS5EACZAACZAACZBAIgKwcFuJFwgaRK6G4NPJKM71NRz1GmWcwyKJiNnuxIp2Sbay/hrrD+Q5BJxZ+uGHHxyX7QZK09ur1axZ01HW7ERH9dYu3BDUSFhzjn3UsZ5eJzwHbUV97LHH5NFHH01wH/lgLfYmYU22tpTff//9bqvInj27aZ7KlSurfd+7du1qet/VRURLh4UZyTmugHM5CHEsfUCwN3gAYPmDK5d+5/L6O/gal0WsWLFC33Ic0S/0B274WN/viYWd77ZIcr/bjgfJE68JUHh7jY4FSYAESIAESIAESCAxAVcWQ+O6ZkTcNn5PXFOc5RDXYSWHWEEZWCmNlkuzcmbXDh48KM7rRJHP6J5sLKfX6Rqv2TmHoDLbs1xHeZ88ebKdagRuy1rEurPIr127VtWptyjTFmBYrV1ZriFQtUi11Sk3mQYPHqxy4Dm5ii6OZ4FkFKvGqjF5YsbQmMd4rq2hRYsWdbiWw7NBC1ZjXrNzCGLEJZgxY4Zt4a37jpgGenkFXPcRvM1q8gfBBTFJAos+Jmiw5ACTT1bvoFlfza7x3U5Mxd/vduIWeMVTAtzH21NizE8CJEACJEACJEACXhIw7guNiNruEtbE/vrrrzJu3DiVFSIS1m9ETfckwc0ba7khZGHNhXs5Pjg3WqJ1nVrIuXJb13n1MUeOHOpUrzfW13HUAeVwDiuznaTXgyOv2YSBsQ7tkt28eXN1GW7UCHLm68cT6y9crREpHem9994zdi/BuX4WCS768AX16UkSfYTXhV3RjaZr1aqleqCfu53ugHnnzp0dohvu5bD4u5sUgtDW7zMEOET62LFj7TRpmkfz5Lvt2fvuybttCp4XPSZAi7fHyFiABEiABEiABEiABDwngMBret0top27sojq2iGgkPAjGRZQrIuFgIZ1Eh+sKbdaU63rcD7qKOvO13VbuP7444+rfZfdiShjHXorK1ja9H7YuI/11NraDVdmO3ViQkBHBoeF3MqCqtufOnWqOnUWm3Bv1uvEtauuLmN2hPBEPlhQYbm101ddjxbd6IOrZ3L8+HFdxKP6HYUsTmBtxrthtdTBopi6/NVXX6mjHUa6HjxX7S2Avdk9iVaO9xmTJDqIIILA+SPx3bam6Mu7bV0r73hCgMLbE1rMSwIkQAIkQAIkQAJeEIBI0ftWw61XRzv3pCqIOVgUYWmsW7euKqqtzO7qgYBElGmsL4dbL4K7QaDBXTg6OlrOnDmTwKps3G/cXd36Plzs9b7bWMON6OkQr1g/jARhaCdCO6y2ugzKuXO5Nlp8nV334XKO+mCNtbuu/Mcff1QCVo/LzhGWdb2H+ZdffumyCFzxkeCO7o+kJyUguhEHwNVSB7P2wE9Pcjz77LNmWUyvYQ07AqbFxMTYmkRyrgRBBNE2Et4/bxPf7cC+294+F5ZLTIDCOzETXiEBEiABEiABEiABvxGAC7IOqAYB6I2oNXYGoh1Cz9OEKNPbtm1TlklE+4YQRfCyQYMGyebNmz2tzjT/6tWrlZiHCNRj1hntBCyDC73eAx3lEIzOXdKB1LTF3Sw/3PXtJuc+2Ck3ceJERzZ3kyrvvvuuyutP4Y33AZM7zhMPjk65ODEG8vOkT5i4gei347lh1byeNLhx44ZVFlvX+W7bwqSWqBj/ftkrxVz+IkDh7S+SrIcESIAESIAESIAEnAhAdOutw2Dx9UQAOlXl81eIM+3aC6srXIO//fZbte77iSeeUFuS+doIrK0Qy2hHrzeGmHMXEA55sb+0LgNWEOp2RF379u1Vt1988UXL7sOCrrfassx0+wb2UfckwWqrrd2wALtKWFevA8Y1atTIVVaP73kqurEcAJMvmCRBQt/TpUvncbvBUIDvdkFbj8HTd9tWpcxkmwCFt21UzEgCJEACwUkAPzjw4x7ufnC5wwfBl7QlITh7zV6RQMon4LzF0rlz55J10HqdNSzDej0u9kjG2mR8evXqlWDvZW87CwHovFe4WV2Ihg3L+2uvveYQf8iHdeB2XNKRF0JWi/XatWubNaOulS1bVvLly2d533jDU3Hy1FNPOYpjTblOWBKAoGEIIFakSBFlkdbR2eH54KlLuK7X1yOYYY21Mdo71mgb++5rG0ldnu92YN7tpH6OKb09Cu+U/oQ5PhIggaAhAGGM9Y4IhoQf4LAymH3gLogf7M6fq1evCj6oB0JbfyC8rZJRhMOSgR96ERERkj59+gRH/FCGWygC6+ijPr/rrrtUoCCsL8UnuX4sWo2R14OLAFyWK1SoEFydSobeOG+xhL/zyTkZ9tFHHzkCYTlbZSGSYRHGllBWwdrwbw+SJ1Gv7WDXweaQF5Gun376aY+srtqtG+vmXfE1RlV31y/sGW7XHRf//uqganrttq4f/4Zabem0ZMkSnS1gR/QN/1/g/5Tt27cL1p7rvupG4VmA4HN217/rcv4+GgP7eVo33+2FtpF58m7brpQZbROg8LaNihlJgARIwJwAAhMdO3ZMEMTnyJEj6giLwsmTJ9WPWH2E6NaBZMxr8v5q6tSwcoepdZ8xMeJoB+3pNrGGDj/AfE0Q7VqEI4IsfrCZfewGffK1PywfPAQ2bdokWC8Ka15yulT7m4gnogB/31q3bu0QubAueyL6/N131Adhol2hzSYAEIUbohciGH+nMQaIWFiS9bphvbUXfrj7K2FdLtzS4aHjzYTerFmzHNbuIUOGuOwWJoMKFCjgMo++qbcm099dHcHp2rVrynrcuHHjBFlLlSolmBBAxHVtlUcGTG4khUs3Jl6tEtz/sbVdcgluTBwXL15cuf9jsldHR7fqr9V1vtuiJjoD8W5bMed17wlQeHvPjiVJgATuEAL4EQpRvW/fPtm7d6/jCCsRrkNYu7I6a0z4EZQ9a0bJlSOTZM+WUbJmySBZM0dK1kyRkjVL+rjzzJGSKWOERKZPe/tjPE8r6dKFS3iaVJImdWpJkwZiO861XLfhfETfY2JuScytWLl+PVquXY+Wq9duH6/euP39hly8fE0uXLwq5y9ejTteuCrnL8Wdn/vvkpw+e1FOn7sgp89eVlZ3RCvGx1XCD0v8oIclDW6WOBrPYWlhSlkE9N7SKcXiDVEC0Y3JJrsJIkyLCGyD5S4it916vc2HKOhadCPiNTxYzBJcjzFx0qZNG4fl2LjmWpd57rnn9Klfjp6uSzY2igkO/BuDvrsTsnorJWN5q3O95tnqvvN1tG32nLE+HYH0fA2m59ye3e+wdhctWlRlx4RJ06ZNpUmTJj6LbUw2I3kyIeXcZ7DBZIRxQgL/J+h31Tm/2Xe+23FUAvFuY2LEOeE3jC/P3Lm+O/E7hfed+NQ5ZhIgAVMC+LG1a9cu2blzp+ODfXfxw8BVxFX8Z5QvTxYpkC+75M97l+TPm00K5M0muXNmllzZM0vunFmU2M6RLZMSyqaNB+gi+oZPuIhEpAuXLH5o5/KV63FC/OxFOXn6vBw98e/tz39y9MQ5OXoCx3/lv/NX1NY2+LFvlmARL1myZIIPtluCOIcFjCm0CODviN4L2K6bbiiM0FNLLPJDmICHp2UDwQNCGxZWJHiquEr6+ek869atU8HX8B1/XyHarIS7LpOURwheO2vJ0Se7+ZAXlvSOHTsm5VAC0hb+7fdk3HY7kTdvXsGacF/33sbfE+2FhQkYO4H0jH3kux1Hw5NnbOfdhieEcQmIkbk+9/eSE11vSj+Gxdox06R0ChwfCZDAHUUAFimsaUNkWXxwDrF94sQJUw5wJcyTK4sUKZhDihbOLUUL5pIihXJIkYK5pGBUdnUPlmemhAQg0A8cPiP7Dp6S/YfPyP5Dp2WfOp6SfQdPy5Wr5tvHYI9hCHBERcYH+wLjiB97TMFLYM6cOdKuXTv1vPy1NVXwjpY9IwESIIGUSUAHBXTljVKxYkXlaZIyCQRuVBTegWPLmkmABIKAAFzR1q9fL9jnVQttWGDhgu2c4N5domgeKVU8SkqqY14pWSyfFCmYU9KnT+ucnd99JHD0+L+ye+9x2bUHnxOya+8x9Tl6/Lyp6z4sbhDgcGPG2lAEgoIbpauASj52kcU9IICIyHCxfuedd+TZZ5/1oCSzkgAJkAAJkEDKJ0DhnfKfMUdIAncMAUQBxxpFCG24SOK4Z8+eROOHdRoCu3zpglK+dAG5t1R+KVU8n7JeU8QlwpXkF2Ap3/H3Mdmy45Bs3XFEtu46JFt3HlGu686dwZpALcIhxPHR2/U45+X3wBFAnAOsh4ZrKwILunNpDlxPWDMJkAAJkAAJBCcBCu/gfC7sFQmQgA0C+IG/atUqgVsUPrBoO1uyYamuWKagVCl/t5QvVUDKlykope/Jp9Y722iCWYKIwOGj52TrzkOy6a9Dsn7rAVm/eZ+cOHU+UQ8R3RVbDGFPX3xgJYcgZAocAexTPGjQIBWYa+7cuYFriDWTAAmQAAmQQIgSoPAO0QfHbpPAnUgA67B/++03h9A2RkMFD1iyy5aMkqrli0i1CnerY5kS+SRNGgbqSqnvy7ET/8r6Lftl/eb9ccct+xNZxrFODRF9IcIbNGggNWrUEKwjZ/IfgW3btsmkSZPUNlqInMxEAiRAAiRAAiSQkACFd0Ie/EYCJBBEBBCp85dffnF8nIOfZcqUXmpXKSq1q9wjdardo8R26K7FjpGrl6PlZupwyRRhf6Ig9ma0XLoeI+kzRIjVNhXR2D4sJkbC00VIhFWmIHruvnQF8ULhpr5q/T/y+/p/ZNX6v2X/oTMJqkSkaVjE77vvPvXBvtOMop4AEb+QAAmQAAmQAAn4mQCFt5+BsjoSIAHvCZw7d06WLFkiS5cuVWLbeYsMRBZvULOk1KlaXAltWLdTigvxhV0rJWvjL0RSVZA/dz4jFTPY4XhNvujxjPRcckPajh4u3/W426TQNZnYvr/0XXNTmoweLj+Z5jEploIuHT/5nxLiK9f9LctX75Ttu48lCN6WJUsWqV+/vtoq6f7773fse5uCEHAoJEACJEACJEACyUwghds+kpkumycBEnBJANbJDRs2yOLFi+XHH3+UtWvXJlijnTVrpDSsUVLuq11a7qtTSgVAc1lhCrkZ7edxpMsUt745k5/rDZXq8ubOKg+3qKo+6PPpsxdl+aqd8svqnfLLqh2yZ/8pWbBggfrgfvHixQUCHB8I8vTp04fKUNlPEiABEiABEiCBICVA4R2kD4bdIoGUSuDChQuyaNEi+eGHH+Snn36S06dPO4aaNm1qqVOtlDSvX04a1Skt5csUSDEWbccgbZyE28jDLN4TyJk9k3RoVU19UAuCti37fbss/vUvWfLbX/LPP/+oz/vvv69EN8R3ixYt1PplRkz3njtLBjcBbL2YJk0acbV3b3CPgL0jARIggeAmQOEd3M+HvSOBFEEA0cfnz5+vPsuXL5fo6HibbuECOaR5w3Jyf4Nycl+d0pIhMl2KGDMHEToECkRlk24d66pPTMwtWbdpn/y4fKv8uHybbNx2UHlkwCujX79+auuy1q1bq+jdZcuWDZ1BBqiniLuQJ0+eANXOapOSwGeffSYvvPCCmmRauHBhUjadLG1h0jdz5sySLh3/z0mWB8BGSeAOJEDhfQc+dA6ZBJKCACKQz549W4ntP//807GmFmuy69csKa2aVJAH7rtXShTLmxTdYRskYIsAIuPXrFJMfUY/31ZOnbkgi5dvk/k/bZSffvtLLY3A8oiXX35ZrQWHCG/Xrp2Kmn6n7QF/7NgxKViwoDRs2FDFZrjTxm/rhfIg05UrV5SHha8cUQ/2VC9UqJBqHTEMkM6fj9t6D9suHjlyROUxdm/GjBnq64gRI4yXbZ9jglXvFgDLuT/TzZs3VXU3btxI1G9v2gGjXLlyqaLjxo2T559/3ptqfC4DL4O77rrL53pYAQmQQGgQ8O+/jKExZvaSBEggQAR2794ts2bNUp+//vrL0UpkZFppVq+stG5WSR5sXF6y35XRcY8nJBDMBHLlyCyPta+tPlevRcuyldtl3uKNsnDpZtm7d6+8/fbb6oO9w9u3by8dO3aUatWqBfOQ/Na3L7/8UmJiYiRr1qziq1j0W6eCuCJYWCMiIlQPseQGwSQxQbljxw6BJxC2SkS6du2aT1bYU6dOyX///ac+VjicxR6EKAQ5UpUqVayKWV6/deuWJNUyDLxzvgbVNMZtwFaDgU7gc/nyZTl+/LisXr1aTVStWbNG9JaY8ALz92RFoMfE+kmABDwnQOHtOTOWIAESMBDYs2ePQ2zrH264nS1rRmndrKI81LySNKpbRtJHcOWyARtPQ5AA3uEWTSqoD35Ir/lzr8xd/Kd89/0GOXT4sEOEFy5cWDp06KBEOLYqS6lpypQpamjdu3dPqUP027guXrzosLC6q/Trr7+Wbt26uctmeR/vHwJXepL0s5w8ebInxRx5MfHSu3dvtT48Y8a4idUMGWxtzeCow3iCssOGDVOTB/Xq1VNeFZcuXRJw9PckT61atYxN+3wOluAIN3ZMQGtx7ariwYMHy/jx411l4T0SIIEUQIDCOwU8RA6BBJKaACw3M2fOlGnTpsn69esdzWfNEqms2h1bVlXB0cLD+U+MAw5PUhQBWNxqVy2uPm++1FHWbtwnMxeslW9/WK9+aMN9FZ977rlHHnvsMenatavD9TclgPjjjz9k165dkjdvXmnWrFnIDgn/lk2YMEGmTp2aSCDBko/I9p06dZKmTZv6ZIU2BixDfdhHHu9GsWLFFMOnn35aPvnkE8XRF9HtzYOASO/bt68qirgFcH82S3D3hqs3rLNYYmC0OkMMf/zxx2bFvL4WGRkpmNT57rvvJGfOnF7XY1bQKN6N4zDL6+k1WLK194IuW758eRUXAs+9cuXKylumatWq6jYmSjDJwEQCJJDyCfBXccp/xhwhCfiFANwfseUS3Eux9Rfc/ZAyZUovbZpVlA4tqkrT+mWFYtsvuFlJCBHAj/galYuqz9sjO8mq9XuUCP/uh3Xy999/y0svvaTWhCM6OkT4ww8/HPKRo7VlFBMKqVOnDqGnFddVrEeGCLKyRiKK/e+//y6wPuODBME8ffr0BILTk4HDS8Io+IxllyxZor5qrsZ7npzjHdu6daty/7cqp93Q9+/fLxB9o0aNcmTVYtBxweIEy4owcRDIBPd3JLhoeyu8wRwTBZgwwP9hqOvMmTOybt06R9efeOIJNfmhLeq4Acu6MeF9WbFiheXzM+Z95513VPk+ffoIeDoHb0OfNGdY83/99VdjcZ6TAAmkYAIU3in44XJoJOAPApi9/+KLL+Tbb791BOdBAKoHG98rj7atLS2bVqQbuT9As44UQQDCqk614urz7qjOsnTldpn23WqZ9+NG9cMdP95hXXzooYfk8ccflyZNmtj6MR9McK5evao8XtCnUHQzHzRokLz11lsKKazaiOANEf7mm2+qqN7GYFvXr18XbCuHaN9ahGNttvMaaTvPx0p0Q+TpCQAsUfA1QVjrhPHpZLyOa+Hh4UogauGNiVW99hnvJRI8m7JlyyZ45kg4Qrgm1Xpu1aiNPyCeEewPa+cPHTrk4GmjqMPTwF1eeAZYPUNjWVjqv/rqK+OlBOfZs2dX3/FsKLoToOEXEkjxBCi8U/wj5gBJwHMC+GEFyza2l0HgH52qlC8sj7arJY+0riHYC5mJBEjAmgAmqJo1KKc+Fy9dVWvBp81eLb/9sVv9MMePc1gce/bsqQRsvnz5rCsLojvz5s1Tk3AIIleqVKkg6pnrrkA4QURqAQqh2bJlS0ehTZs2qXNjsC1YKxHxGq7gJUuWVIIOdUDgGd3HHZV4cTJp0iRVCu7IEG2+JE+FnJ5AgKXdyAKWWLhL+zIRYEeoIg+SHUFrxQUWZO2m75wH4hbR3UuXLi34+5U7d271HecYL94FWO/BAcHNnAOcwb1eu9j7wyW9QoUKjvcPEzhMJEACdxYBCu8763lztCRgSQA/gJYuXarENn5YwzUPKXfOTPL4w3Wle8c63PrLkh5vkIBrApkyppfuj9RVn4NHzsiX362WL2auVEIOrujDhw9X+ycjQFXz5s2D2n27aNGiKnAc1j2HUipSpIhD9JgJZ3j3IN19992JhgUBDtds3IN1+t5771XfE2X04gKs6UgffvihaWm0N3ToUHnvvfe8drk2q1gLT0z+OK8r11uPQdR6IzhRzu4SBLQPtt4m9A8TB5i0wNZ2CGoGa767fkOQQ3gXL17cJ+Fvt9+dO3d2RI6H+7svkw1222Q+EiCB4CJA4R1cz4O9IYEkJ3D27FnlSj5x4kTHjx/8YHmg0b3Ss1M9adG4gqRJE3prOJMcJBskAZsECuXPIS8920qGPdNSlq7cIZ/MWC4LlmxSMRRghYUbL6zgcJ/NkyePzVqTLhss3d98803SNeiHlrDNoXbnNtuuCxOP+j4Cxlml7du3CyJuIy/W7/u6zlm3ifZq165t2iwEuXZzt7uVFiy42rLvXCms2Vju8P3336tbCJLn72QUlRDWei9xYzsHDx5UfTS7Z8xn59x54sBOGZ3HjmVe5/X2iGUMOlYA1pk7W9a9rZflSIAEQosAhXdoPS/2lgT8RmDDhg0qmi9+DGAdI1LhAjmkR0dYt+tKVN67/NYWKyIBEkhMAOKkSb0y6nPqzAWZOut3+fTrX2XP/iMycuRIGTNmjNobvF+/fmJ0f05cE6+4IgDrK/ZXR1q5cmWiYFe4juU1SHBNdmUphVUVa8BhpYYb9ubNm1U5b//o37+/KjpixAhLCygs9UgI+Oaqb7oP2n0brutIWtjCio0PrMLoO9yty5QpY8pD1+Xr0ZU1G/20Mx5f+4DyeAc2btzomIy47777pECBAg4LtD/asKoDkz7aqwGi29flBFbt8DoJkEDwE6DwDv5nxB6SgN8IQGAjWA62z9FRXfHD5/777pW+j9+njkZLhd8aZkUkQAIuCeTKkVme7/OA+ixftUMmTP1F5i3e5FgLji2IINIeeeSRgAoll50M0Zs//PCD6jlENYKomSUEj0TC9mHuElyGIaS0O7a7/Fb3sXZYW52HDBlilU1F4sZNO31DPvwbbrUlmLERKxbGPL6ea9FvVo+eIDC7589r27ZtU0sD/Fmn3bqwfEtP+sCdHs8F//9i/TyWO+Adwvrz5557TqpUqWK3WuYjARIIUQIU3iH64NhtEvCEAKw5cCXHf/gnT55URbNljZTuj9STpx69T4oU8u8eqZ70jXl9IXBL4nwVRBJufuNLnSyb3AQa1i4t+Bw+ek4mTvtFPvv6N/nzzz/VOlwE+oILOqzgCBTF5J7Ayy+/rDL9/PPPlpnhCozUo0cPyzz6hg5IBjdxT9dAo8yiRYtk3759KqaGrhPbiVWqVEk9U2c35BkzZqhsjRs31tmT7BhIi3RSTPJC6GI9PhK8CjBpgmBqrVq1CjhDbEeno8OjMbPYAbi+ZcsWhxv6qVOn/LqOP+CDZAMkQAIeEaDw9ggXM5NAaBHA2j3sKYoI5Xo7mAplC0r/bo3lkdbVJX36tKE1oBTc29jouOi+cmuzbDt8VSqWTO92tLHXzsjiJXFB8OqVjN82yG1BZggJAgWisslrQx6W4c+1lm/m/SEfTlkmG7cdlFdffVW5O2M7MljKEG07KRLWRkdERCRFU35rA1ZVCBskCFuzZNzOq27dumZZElzTW24luOjiC8Q5ti/T7sZmWY1CEO7Z2AMa6/wh8rEWGsmTLbxciVrUj72+IULhbo7kHKFdM8Mkj/Ge3t8aW3dhm0lv99dWjSbBH3pdNYKv6XXgWJcPazOCsCFh+zEw8WeC6HZ+l9AGtqZr0KCBZMyYUXkm4N345ZdfHAI9V65cKtaKv/vjz7GxLhIgAe8JUHh7z44lSSBoCSxfvlz92m/YYAAAIABJREFU0INlBT888SOsRZMK8lyvZtKgVtL8SA9aOEHaschcWaSciGwTkQUbTshjJRNHVnbu+rktO2Xh7YtZMnMSxZlPSvkekS5cunWsqz6r1v8jb338oyxYskU+/fRTtQsBolNjb2rnH/r+HP+VK1ekYMGCgsBcCKyWNm3ovW9WYhQTk0hYE43o5e6S3vHBXT7ch4XbaOkcOHCgDBgwQEaPHq22wIL7O4K0QejC3R3bYqEMRLqzULe7Nhj/5mMsWMNsFM3oz9GjR1VgNQhP7ebuahxW23ShDKzJwS68sbQK6cEHH0wwTHDRW6YhAro/k7PohojG/8lmYhoeBfBkgADHWn79viSVG74/x826SIAE3BNI5T4Lc5AACYQCAfxHPX/+fKlevbogcAzWNUakDZcnHm0oO5aPkQWTn6HoDuIHGZ67qHSvGTcXOmfI5/L90Zsuext787SMHzYrLk+q6tKgWAaX+XkzZRCoXbW4zPnsadm54jX1dxt/xxEJHSKiRo0aMnfuXDXZ5u/Rzp49W7ADApaqhKLohhC1Et6I8I1ktZ2XM0u7gdhOnz7tEN0Q3BBX48ePl6ioKMe+0wsXLlTiFeLr448/Vs8O+zvDLdo5ffTRR86XTL9jnAj6hrqxV7zxg32+dWA1BPqCFwM+2N5KfxA5HRMCSBDo+K7v4Yj8KIttuHxJVs/Dlzqdy1atWlVdQn+dE9ZZI7laguBcxt13MDdOgEH4Y223meg21gUWiJivEyZjmEiABFIeAQrvlPdMOaI7jAB+FE2fPl3KlSsnbdq0UUHTcuXIJKMHPSQH178lE19/jPtvh8Q7kVEeHfJIXE9jj0qrmhPk641xkZadu3/hwC4Z0HywjN11S9167vM2Uja0PICdh8TvHhIoXiS3+rt9YN14GT6gteTIlknWrl0rbdu2VWtaYZWG0PNXgqsuUvfu3f1VZZLUoy2HsCjrc2PDsE7qZLWdl76vj/A0QNLiVF93PuqtxsAOglsLzSlTpjiymgU4g3s5otrj33ZjwgQB6kCwMHcJzx7jNY5Zf8c91AMLOiz8+GBduf7ACos9rpGwdRq+63s4Ij/K6vG46gu4g7HZB9G+A52w9R0SIrkb/z7AhV4nTJD4I2FixLhkABMomOSwm8C0U6dOKjsm0ZlIgARSHgG6mqe8Z8oR3SEEEKEcP+iwtQ1m1JEK5Msmg55sLj071ef67RB8D7JXaiArRu2WBiPWC9Z6d2m1WbrXqiGvtCwjJXNnkdjoC/LH4lXyxtydjtFl7NpHRjQJvr2eHR3kSUAJ5MyeSUYObCMv9nlAvvhmpYyd+L389ddf6gc8rKZDhw6VLl26+LRvMNxfV6xYIVjb7ImQCOjAbVZuDA6Gfa11YDRdXFsn8e+oHSGJSOSjRo1Sxc2s0rpeiDy0B3Gu1xbjHv7d1pMXWGftKh0/ftxxG14NWtQhWBi2FoM4M45PZ9buyvq72RGi3qysWV5fr2nGVvW4iw4PDwN3FmOruh9++GF1C0xSp06tuDm72FesWNGquO3rqF97TqCve/fu9Ypv06ZNHYHWbDfOjCRAAiFDgMI7ZB4VO0oCcQSwvhAWl9dff12t18PVe4rkUT+8u7arKeHh/Gsduu9Kaqn3vz6yr+xqeabdp2r99o3Vf8iLq/9IPKSwKBn3cU959oHC4u6JXzgU57Z+8HpCC1riSnklVAkgUGLf7o2kd9f6MvXbVfLGhB/U2mGIPlhPBw8erASfN27iU6dOVZZTWNN1QKpQ4tS7d2/l2g0GcOfWyWj1hCu4nfTQQw85siG4nVXSohni25h0IDwsDYCXkquE4GdImBTAOn6IeUyiIGAYxGPRokUdk67GevSaZYhztGNMzuvGjfcCdY6JYed18XgPIajhCu5qyzH0Ceujvd1qC5MLcI3HEixY37XohmUZgeLwvVixYj4PHWIbrDGJYLa3u7a2J9Vkh88DYgUkQAIBIRAWa/RDCkgTrJQESMAfBLC27vPPP5fXXntNDh8+rKosX6aADOvfUto+UNmr2XV/9It1BIrANdm6dpcsXr1T9p2Mi1yOlrLnySc1qpaUOtULyF3uFPftrp06elxOXoyRyJy5pWh2/wYSCtToWa9vBGJibsnX8/6QMe8tlN37TqjK4D4MK+1jjz2mrH92WsBPBC3wsCdxo0aN7BQLqjwIKKYjgsNLqGvXrso6qQOHrV+/3pawgxDWUbKxLtjV9l4QWrCwIkF4Qlwiqjoso0j49xxu21bJ2GfnvDp4FyYL4MLunHTZI0eOqPXkxvv169dXe0i7s3hXqFBBCVV3+Yx1G8/x3kBkYm29mRDVeeFlAK8As33H4boNKzImHrCNnq8Jz0QLYLDXHg5wCXf2hPC1LV0ezxsWdeMEDN5BoxeEzoujfj7u3i9jGZ6TAAmEDgHrf/VDZwzsKQmkaAL40YU1gWPGjHFsK1OuVH4Z+VwbadO8kuPHQ4qGcEcOLkLurV5BfXwdfq6ovJLL10pYPqQIpE6dSrq2qyWdH6ohs3/YIKPfXSDbdx9U+1S/8cYbygr+yCOPuP33A8G4IBwR0RxBG0MxIZgZRCq29IKbt3b1xlgmTJjgVnQjojvq0OIJdbkS3agXohMWUATwMkY1xz0IPVeiG3n0RAH655wX68JhxXXnvYD/O5yTO7du5/y+fnfXnlkffW3TqjyeibY4633bYakOlOjGsgL97PEu4B3CxA3ePyxX0EvEdH+x1lwHfCtVqpS+zCMJkEAKIsDgainoYXIoKYsALAYzZsyQEiVKCFwlsZdrmRJRMmtSH9m8ZLQ8dH9ltz+aUxYRjoYESMBTAhAa7VtWky0/j5bpH/SWYnfnUi7osN7CGjlv3jyXVULcwcoNsaAthC4LBOlNWIZhOdUJVlZYurFftlWCdRQCDQHGtOhGlGozK7NZHZi0gHAGZwgvtA8LsjuhB6unTlb9Q4CzYH4e6Bv+D3MWl3pc+ohJBeeJBX0vUEdEDNcu99jCLVBJe0dgfT7eBUSX19HVYQnX4h/tI3YA9vBGwvsCkc5EAiSQ8gjQ1TzlPVOOKAUQ+PHHH2XIkCHK1Q/DKVksr4wY0Fo6tKoW1D+2UgB6DoEEUjSBmzdjZNq3q5QF/NDRs2qsWGc7duxYFfk5RQ/exuBgpUTQMuztrdcDoxgsoxs3bnQrmm004TIL1p1rF3hs5eW8D7fLwrdvalfzlStXSq1atZRbO27B9R37bmMSwZ0Lua+u5nb66S6Pv13N0R4iwiM4HRLWeUMMByrp/uM5GKPXw60+W7ZsqllMTmAiABPsOjkvLdDXeSQBEgh9ArR4h/4z5AhSEAFsB4RtTx544AEluhGlfPLb/5O/fnlVOrauTtGdgp41h0ICyUEgTZrU0qNTPdm98g354JWukjd3nOUXbuQIxmXcSzg5+pfcbcKSDPGrRTcs1Yg+DsutO0u1r31HADUtunfv3u2V6Db2AdHEIbYjIiLUB0HXtOXemO9OOYeFWYtuWJUDKbrBtH379gotngNEOJYsYGLHmOAZYBTdmGxJag8AY394TgIkEFgCtHgHli9rJwFbBDDjDQv3nDlzVP7sWTPKkP4PSp9ujSQiHYNh2YLITCRAAh4TuHr1hrzz6U8yduKPcvHiVbUGtkePHjJ69GjJmzevx/WlhAKwQkKgIiCaXhMcyHFBjEEc6wSh7y7iuc5rdtQWb6xFh9v61atXVTZsB6e3JLNr8TYL0GbWpq/XsKc3vAzy5cunJhyOHTtmO5Cdu7ZRd8eOHR3ZMMG0cOFCx/dAnji3bdYWlj3A5d1d3ACzsrxGAiQQWgQovEPrebG3KYwAXM7wAxfrAOFeFpk+rTzzv6byQp/7JUvmyBQ2Wg6HBEggWAmcPntRRr8zXz6ZsVyio29JZGSkDBo0SEWTzpgxY7B2O0X0C2vJn3rqKYFIwyQs3MF9SVg/jKBeZqIZW8they7sy+5qjbh2NYelH272gU5WAhWi9OzZsz5NgGhXbtQFwW10+w70uFA/1m9j+RjWeeuEv1OVK1dWfQm0J4Vuk0cSIIHkJ0DhnfzPgD24AwngP+JJkyapyML6R0WPR+rKqIFtlOvnHYiEQyYBEggCAv/sOymDX5slcxdvVL3JkyePIAo6tiBzJdSCoOvswm0CEPLYRxweC95a7PW2VmbiPVCgYanXCRPRCDaGCSAmEiABEkgpBCi8U8qT5DhChgBmvuECuHPnTtXnhrVLyjsjOsu9pQuEzBjYURIggZRLAK7WxWu/KJeuXJNTZy6qgVavXl3ef/99qVatWsodOEdGAiRAAiRAAgEkwOBqAYTLqknASOCff/6R+++/XwVOg+jGtj7zPu8vy2a+SNFtBMVzEiCBZCXwy6qdsu/QackQmU6mvttL8uXJKgj8WKNGDbWt2IkTJ5K1f2ycBEiABEiABEKRAIV3KD419jmkCCCS6UsvvSRly5aVxYsXS9YskfLW8Edk+y9jpFWzSiE1FledjT1/VH5adUxuusrEeyQQogRiL5+VZSsOyLUQ7b8n3Z4y63eV/fH2deTRh2vJrl9fl8F9H5Tw8DQyZcoUueeee9QexHAHZiIBEiABEiABErBHgK7m9jgxFwl4RWDu3LkyYMAAOXjwoFof2a1DHXljaHvJmT2TV/UFa6HYa0dlQLGX5X2JlSkrPpbHiqUN1q6yXyTgFYEtn78tFUdsk8bDBsmip8pIGq9qCf5CFy5elbwVnpVrN6Jl7+pxUrhADken9x44Jc+N/kYWLtmkrpUqVUomTpyoImc7MvGEBEiABEiABEjAlAAt3qZYeJEEfCOwZ88e5Vbetm1bJborli0oq+YNk8/f6pHiRLfIFZnUZ7QS3U++PYqi27dXh6WDlMC9jz8qL5ZMJUvHjJfBP6dcV+uZC9bJ1es3pGGtkglENx5L0cK5ZP4XT8viGc/JPUXyqDgVDRo0kG7dusmZM2eC9MmxWyRAAiRAAiQQHARo8Q6O58BepBACcL0cO3asvPLKK3Ljxg3JmjVSXh3UVp58rKHX0WWDHc2WmZ9LxYG/S9rm3eX0Z/UksS0/Rq5ejhZJndp0KDdjouWmpJJMGSJSrBXRdOC8GHIEog9slHR1PhAJi5LFG0ZK09wpz+5dp80YWb1hj1rbDTdzq3T9xk0ZN2GRvPbB93L9RrRky5ZN/dv3v//9j9HPraDxOgmQAAmQwB1NgML7jn78HLw/CaxevVp69+4t27dvVz88H+9QW8YO7ZACLdzx1KKPbpEq1d+VbWFRsnDDSHnQRIhc2LVSsjb+Ir6Q1VlYlPTu10i6d6wm1QtnsMrF6ymOQLQcPfBv3Nrp8PRSKCpTUE/ArPn8I6k9Yr2LiabQfUB/7zspJesNlkwZ08nxTe9LZHr3S0bgft5n6DT5+bftauC1a9dW7uflypULXRDsOQmQAAmQAAkEgABdzQMAlVXeWQQuXLggffv2lTp16ijRXbxIblk28wX54q3/pWjRLXJNvnz5I9kmIo0HPmoquj16E2KPyicfTJOadfpJ27Fr5LRHhZnZPYEYObrnoCyY+4dsO5sUIfDstXdh1x9SoM6LUhyfGhNk42X3I0nOHDW6tJaeEiY3Fk+WT9ZdSM6u+L3tM+cuSvnSBaRDy+q2RDc6APfzn74aJF9PeFLy5s4qq1atksqVK8vLL7+svH783klWSAIkQAIkQAIhSoAW7xB9cOx2cBBA8LT+/fvL0aNHJTw8lbzQ50EZ9nRLiUgXHhwdDGAvzm5cJjlbTRcJKyEr/3pRamcJM23NYfEOKyHLNjwjNTKGJYh8Dmfdc6fPyJpl66TDiIWOOrL06i+nR1QKauuno7MhcBJ7eb80KjFaVojImws/lIEVA+tVYLc9x/sBhqkqyJ87n5EAd83np/XPD9OlxBPLJFXp1nJoSRvJ53ONwVUB3MjTpfXcjR6B2YaNnS0Tpy2XW7duSenSpeXzzz9X25AF1wjZGxIgARIgARJIegK0eCc9c7aYAgggkFDHjh0FwdMgumtULiobF4+WV55ve0eIbgRUm/X6N+pJVh7Y0lJ0J3jUYekla8b0kj5DhFrPjTXd+OB7VOH88vD/2krM9lflaYkT8Oc//UAWHr2RoAp+8YFA6tSS9zbbJJkXstleeBrztf8+jDTgRYs1a6ys3rd2zJdJq/8NeHtJ3YA3oht9zJwpvXzwalf5bfYQKVEkj+zYsUPgeo6dHbCtIhMJkAAJkAAJ3MkEKLzv5KfPsXtFYM6cOVKmTBmZNWuWZIxMJx+80lV+nztUypSI8qq+UCwUffIfmbTmpgoyNbR9Cb8NISxLlLy+oqejvnnLU270aMcg7/CT9MVqyeU9E+X87oly/u9+QW/txuMKS5NHer9eRT25cV9skot3+DN0Hn6tqsVk08+j1d7fYWEi7777rmDN9y+//OKcld9JgARIgARI4I4hQOF9xzxqDtRXAmfPnpVOnTpJu3bt5NSpU9KwdknZuuxV6du9UYqNWG7F7MCGbWptd5padaVBlOcuqVb14npE/vzS8naGyzdiXGXlPY8IxFuW06VJin/67beXPuK2F0REfBmPhpYMmcvUjRPeN5Zsk63nY5OhB8HdJJbbvDbkYVn3/XCpULag7Nu3Txo3bixPP/00rd/B/ejYOxIgARIggQAR8O8v5gB1ktWSQHITmDdvnjz55JNy8uRJiYxMK+OGdpCnHr/vDt02J1rW/rZaPZKGze6Ru/z9cK5fkfiV3okrv3r+Pzl1KUYyZ88qd90Wakf3/CMr1pyU4k2rSbXc5pGYL5w8LqtX75W/z92UtBItYdlySK1apaRc7ojEjZhcOXXgoPyx6bAcOIf1ryLpsmWXymUKSbnCmU1ym126JjvX7pE//j4jcKC/fkPk7rJFpUH1AiZbsBnLR8vRoxfkZpr0EpU78vaa92uyde0e+VPVFS2SNofUalBGypmMPfryFTn23w1Jc/Gk/CVxAvHQ4TNyOmcmuXItRiRNWonKbRVJPC5A2p/bjsnxSzcl9ka0hGW8SypULirVi5k/eW/a0880MmtWyZnBtfi+cPSIrFi3V45LBsl46V+5lDGH1K9VRkqajN1I0ayNCyePyOrVB+TgpZuO59GkegGx80ZE5C+o3M0/u7VZNu27IrWDfWG6EUYSnlcsV0iJ77ETFsnod+fJBx98ID/99JNMnTqVa7+T8DmwKRIgARIggeQnQOGd/M+APQhiAhcvXlTB0/AjEal+zZLyxVs95O6COYO414HtWuy1U/LjjGuqkaZls/u/sTTplMVbie9EGvqaTOn5vPRdc1OajB4lP/XIIhNffEf6zjio+lH5Uh5Z/1Qxpz5dkfnvzJCH3oqbLHC6KY+OHiQf9yhjKbaiz+6XEc+/Lm8siXYuqr5XaNtepr1yv5S1CC6HTOd2bZH+jd+Tr28L3wQVpaoui3/rIU0LJxqsyqaifmM7trASsnX/YMm3c510v3+i6eTE0A9HyattCiaofss3k6TaCMSej09jug+XMfprWJT8setVqeYUa+3Uro3yXL8J8tWuWzpngmO6Zm1k9dstpGKWhELZ8/bin2nlYcNl/VN3J2gn/ssl+faNKdLxwz/jLxnOnnxjsLzdtYTFc4xvI+69ySHT3/hCHjOpK1XpB2Tz3PZS1omHoSl1GpYmuzTpUlA+m3FQVmw/Jf0qWvXbuWTwfW/b830pWTSfvND3AcmaOdLvHUyTJrUMe6alPNiovDz27Cfy166/1drvwYMHy4gRIyRtWvN33+8dYYUkQAIkQAIkkIwEksLfMBmHx6ZJwHsC2Je7fPnyyjKD/Wzff6WL/DLrhTtadMfRjJFLEJBhJaRS0UzeA7YoufiD2Q5R2aBCrkS50mWK+2eraMZLMn3kuw7RLWFR8nhl54mASzKxxwCH6E7X7EGZPv15+fmLJ+WZpnGR578cPl7yjlpvuk439uZpGV7+FYfobtOrk8yfOUR+nv6kDG4aJ3A3z/lWyrdfJMcS9TTuwqmNyyRH43fjRHdYlAwd/YQsnf2CfDmqWVyGW2uled3R8s2eqxY13L4cll5++XqO5LgtulOVqihDBnWQwV1KO8q91m+ETNuVsJ4sBcpIw2Y1pHPNeIGMsl3a1pQuD1WShk2ripN2lugDGyVP4w8coluP+9eZz8gbPSur9q7/NE+qtF+caNs3b9rTz7RQOsdQnE7Oy9j2Axyiu0LbNjL9477y5VuPS6+Sce/DpMFvSJ2xG+P2A3cqja+6jYynd8noHs86RHebrg/K2KEtpMHtMrd2LJLqQ9aYvg8Jqw2XeyoVUJcunAndwGE7/zku8xZvkonTfgl4YEi4nK9fNFJeeOoBxe21116TatWqyV9//ZUQLb+RAAmQAAmQQAokQIt3CnyoHJJvBG7evCmjR4+WMWPGqC1xKpUrJDM+eEJKFMvrW8UppnRqyYjo2IhSHmG+hZj5UNNJuKWwErl6/pTMnjhLHvtwuyqepvYj0taF2XHSc2/KJOQMi5JJM/tLj1q5E209tmXmTOm7JC4y+nMfDpfxbeKtko2aVpEuM7+TagMXy/lPP5LBVV+XCQ/kSdD1i3t2yVg1yRAlkxa8IL0rxruVN2pQXTrOnSkV+y+W2B3fyZhFlROVj712VAa0mqHqTFW6saz/uqNUzH77n93qpaRDm1ryfMdR8v6uo9K50RyptreLFLH6V/nWZnl2yGZV17jJo6VfE+0Sfb/0abVMCnacru4tWH1CHisZP87iTZvJsqYisTdbSGzhl9UEwMQPn5ReJaysjFfks9Efx3EIKyELVj4jLQqnj/suInVrV5D2Db6Xol1nq3HP23Wf9CoZf9/z9hxVW55s+HyGDEEwPxF59I1h8nnXYo5n3aVjDXngnQ/lobe2y8YPPpAxNd6UV+rnsKxr7gdfy1wI8WbtZd24JlIue9wEzKDeDeW93kPkuSU35Oq8dbLn9ZruA73diHPdX7HmiPz7bBn/L7uwHIX/bkyZuVJV9kib6gEX3mgIEdPfGNZeWjWtKI8P+FS2bNkiVapUkfHjx0u/fv38NzDWRAIkQAIkQAJBRoAW7yB7IOxO8hL4559/pFatWvLKK6+ojgzu+6CsWfASRbfhsVw7cdLcZdqQx/T01lqZ8OHP8v7nCT/vfbRAnugxTjKUedFhhcR+zss/auR+f+RUFWTByuHS20R0Q/SOG7hKdaXxsMEJRHdc/1JLlY4Py9yehdXXiX3+kENOHT+yM86FXcLySwuD6NbZyj/0oLwOi2tYCSmfI/Gsws75i29bukvIz193jhfdtysIz15Q3pzaN+5bzFKZvMrN1lRhUTJj6UcyyCG644rmr11T3q4Zp9i/X33Y3Fp7PT5Q3fVoc7d51BZ77Ywsvj1Z8eQH3RKI7tvdlrsbNJDXb7e3autpfTnh0WZ7CQsl/hZ77ZC8M2KDulGp/4AEojsud4S0HtDHMf7XxqxNZIV3rrVirz5y6vMHHKIb98PSZJPu/TrEZb21WTYcTug54FyH+p42buIpVaZwx0SAab4gvRgTc0umz4lbgvF4+7pJ2ktEPt+8ZLT07Fxfrl+/rpb0tGzZUk6ftnifkrR3bIwESIAESIAE/E/Ayrbi/5ZYIwkEOYEpU6ZI3759VcTdglHZ5cv3e0nd6v7bKivIh2+7e9EX/7Od1znjx+O/cr6U6PuA0f3l6c6VpJCNCFdPTeooLSzWRh/9c1Oc6E1VQUZ0vidRO3EXUssD3VqKfPaByM358tNfzaRX2XjrbfZ8ei3/dTlyWSRfonW/GeW57yfIwIgIE+F1Xr79NE7UNB76sDTMbu4dEB5VXon/hz47IG9+uUleqH+fZbC19xe8IJ0M1uX4QUVK9YYVRNZskJiLNyXONhx/V53Fe5o73Uj4NSyioMzb875s3HJK8pZP6AEQnzO9RN12+b90KV7Qx98XEZvtJShj8uXoHxsdEz3DupY24YxCkdJp0MPyXLtvTK3wxmrTNn9UFo+oaso4c9FCjvgC12+ar2031pW/eJyreUyI7ie2eMU2OX7qvJQslldqVCpiHFqSnGeITCefjOsmzRuUld4vTJbvv/9e7r33XrW8p2nTpknSBzZCAiRAAiRAAklFgMI7qUiznaAlcPnyZXnqqafkyy+/VH3s/FBNmTCmq2QJQJChoIXgQccy5cun1sOu8KCMzjr0jSektJN4vXHjpkjaDFKsWD4pUyq33GX3X6VU9eTpplbCUOTErjj7dVjJklLaReCzNHlyOMSW7qc+Zst/W3jf2iy12kySL0c+KM0rF5C7DJMC4RGGL7ogLMeXz8vG24HJmtVwtUwhtRQuinYOGEqbnKaqLrVLxbu6O+eIzBRvcbeL0LkO/T0sIpNUrh63fj/2ZrT8e/6ynPv3kpw5e1FOnTkvFy9dksWHTOW9rsJvxxN741bPh5V+WOq42LouV/lSjufoSjS3aFBM9HRKok6mSxu3jMIsCF6izCL7N+1xXE0aGo7m/HIyddbvqp7H29fxS33eVtL2gSpSrUIRefSZT+XXNbukefPm8txzz8nrr78u4eFxSwG8rZvlSIAESIAESCBYCPj6+yxYxsF+kIBXBLZu3SodOnSQ3bt3q23CJrz6qDzeIXl/hHo1kKQslCFS8mKNt6TzzKqZqro88kgNKeunf3UaD6krJVzUFX47UnLsjm8ke/5vbBH6ffNp6VU2Pip4eFQlWffWfVJt4C9ya+da6dJxraqnfLMa8kCVElKj0j3SoHI+yWTWj9TiEHHPt+wnz9vowY0lf8uea/dJRVMtf13Ewrhso2qPs1w9eVCmTl4ifT40jwbvcYVeFtDPMbxgeouI5bri1JJbvZexsmLzKelXNn6du86hjn7cG173LW3u9BaW+AQtB9WXc/9dlgVLNkmqVKnk0YdrJXvf8ufLJstmPi/Ydmz4+Lny1ltvye+//y4zZ86UQoUKJXv/2AESIAG0X2nqAAAgAElEQVQSIAES8JUA13j7SpDlQ5bApEmTVERdiO6yJaNkw6KRFN12nmaMxEU1v7VWdh+JC1xmp5jIdYm+bi+nnVyZ07nyZb4mfy5f76imnOPM9UmGjInrrNLxUTnz+4sy0hA9fMtPf8jrY6ZK63bDJMvdb8gnq08mqvjigYMOF+lENy0vpJNgsO/t+GGuZKg80iG6U5UqKV17tZB3X39C5k8fIht+HCidlMi1HIifbsQ/R3fu3GERuaTG7Uj1aqN0P/XAVTXnz8Qtu7i/WpSp67qrssl975/9JyVPrizSrEFZyZc7a3J3R7WPSYAh/VvI73OHCZb7rF27VipUqCALF6rNBYOij+wECZAACZAACXhLwMxO421dLEcCIUEAe3P37NlTZs2apfrbq0t9eXdkZ0mf3irKc0gMK8k6GZYho1QqmUoW7rolG/afl0eKWTruJlmfEjcUIffWLi+yZL1U7NVf1o6o5JNFMlvhkjJ8bEkZMuqanDpxRnb9fVCWLVstb8zYIRK7W57sMFg2f/iqfNQmytGVTAXyx7k+h0XJgj+GS4uo0Hi/ru5ZJ2WfWBA3jlQV5Lt5XaRVpRxO/KKl0UNp5eu5fpxJcZAznsQ/x9Rudq6LvXlWtt7eaz2jyQSKsVb/nF+Rjat3364qCV0R/NN5qV6xiOxbM15g+Q62VL1SEdn40yjp/tznsnDJJmndurUMHDhQuZ6nScOfLcH2vNgfEiABEiABewRo8bbHiblSCIGdO3cqKzdEd6ZM6eXrCU/Kx2O7UXR79HyzSe0HS6kSKzYeNw/k5VF9gckcflvnbt3xn9iIT22rE1jPHVU4vzRqWlteG/u8/PfncHla7yP9zArZl2Ch723reexROfBv6Aiz9Qt/i2ORqoKs3Pa0tE0kunE7RuRy3FZatsD5kEk/R3cWb7l+VfbfXptdu3TgJ4NiL5+R5be3OGtVI37CxYehJnnRVKnCJEe2jEnerp0Gs2XNIPO/eFrefKmjpEkTprYbq1evnhw+fNhOceYhARIgARIggaAjQOEddI+EHQoUgW+//VaJ7l27dinX8j8XjZCOrasHqrkUXW+5aiXV+DZ+tC3RFlzBMvDIbNlVV2LWbJOd512JxCuy7IcNsvGoueUv+vIVuZhAUMePMHPuu2XUuM5xF2LPyBmjAThdern7tjv2inVH4wuZnF3Ys1Nmrzgg/14zuZmkl67I9ttW3CYjH5TalkHpbsrpi+6jfvuj65HZ4gLKxaz+RdactHgQInJu9z+SlA7J53bvimsvdWOpYxFZ3x/jv9PrGPhkc1nx7RApkC+brFmzRipXrizLly+/07Fw/CRAAiRAAiFIgMI7BB8au+wZgZs3byo3RQRRu3TpkiBq+R8LX5Zid+f2rCLmdhDIVaGMcqOWmKWy6C9zwerInEwnxRpUi+vjrc3y8uy9lr04v22DNHliglSp3k8+NIwl9uY5mTTyQ0lXoq+0+zQ+erVzRWkjzV3Iw9LklK6jqqjsc0b+IOssMV2TGUPelvZdR0mOVj+Z78Ht3Kg33/XafFXW6p/+VCK3twmLNU4iOLW35vNvZMhta6/TrfivttqLz251VqxB7bjnGHtUxs+xeo7XZNaHs1UVqUq3lgcNW8JZ1evb9Wj5cfIcVUWlPuWkCL2ffcPppnTNKsXkz8Wj1Hp07PPduHFjFXzNTTHeJgESIAESIIGgImD16yuoOsnOkIC3BE6ePKl+pL399tsSHp5K3n+li0z/oLdEpo/fesnbuu/kcmEZ7paBA8soBIPe/TNwYtEHyMY+/jx8jIz5+USi2mIvH5UR90+Ju566sTQpGb/XWViatHJt+xZ1b+lrU2TaLjPlfF7ef3laXPlUhSR/fHF1rXKb+9TWa3Jrs9TpsUh2m1i0t8ydL31vi9gnny0fuCBdBgv8gqVxW63Fddz4Z7gUvyfObXrp6z/IqrPOngIxsubLL6X2iFXxhdImDkinbtpqL74aqzM8x/794iKULx3zhslzjJalH30uff/P3pnAQ9l9cfw3diKSUlIpivYoKtqk0p60v9KuVfsqbfS2ryr1L+37vkml0r7v0kIhrUJ5E9mZ/+c+g4ixNZgZZz6fmmee595zz/neea45zz333IuCRH+TZ1hAR5gwEZ1P+uyHwWnr2yf2riUiqSQmNwIsJN5rzxTMmdANfD4f06dPx4ABA8C2g6QXESACRIAIEAFJIECOtyT0EulYKAIPHz6EiYkJrl+/Dp1KGrh6xAmOw9oXShZVyk6g1XAbzqlMvLATh/xFtYo6ezt/c6bVhOFY2kIwHTlvmBPazz6HK36f8Nr/PY7tPYHGhnOxPm1d8Mqj3f/YnkwV41eOFTTP/4yh7R3Re/lVXHnyEf6Bn+DjdRk9dSdnzPxO3dQ8m8PHK2+EHYcHcDKSbx9FnVrLsOrkK/gFhuLx7ceYM3wBjCdc4K7LWQzAwi7C9yXPLwdhSch4chpo2kswO3951TJM2/cUfsyOa37wj0pfgy4LM5u0eyT1GVo1Xs7p6x8Sjsf3mb5jYeF0BZBpDIe0DOLnH3zO8cFL/trLn1VWk8diVtpaetaPHVwu4sqTEDy+/wxzho9HxyWPOEFqg0ZhQYeiXt+dgssegqB2ZdtR6GegnD8jxKTUjEWHsXrLBURFi+c9mxsmlvX831m9cdxjPJejg2011rx5cwQGCo9IyU0eXSMCRIAIEAEiUJwEKECuOGlTW8VG4MCBAxg+fDgSEhLQqlltHPnfOGhXUC+29ktDQzx1A6xYagozp4cYt+Au+hxuh3I5GZ6UJDjLj0PaUU6l8n0u4YPASXyfkO4sCq/Kk9PEzIOrUOFfD4zc9hJX9h3l/mWpwasCt30TMMFMsJY48zV5PRN8POMA+x4euAbg5IY9OLkhcwnB8ZyNc4U6zXoW1vh6Rg0denjAjx+AmRNWYuYfIowHDcSReR2Ro8uYT35JiT85qUkfkoQkvJNH70mjMDjNgLWz12Ntmh5NnOfj4VjBrHJZI3M82xKGxiyzeQ76ytRtjztH/4HO/f3wuOiDeP+ff9UeUyGvPuUpVcCSs8ugPWMupp5MhI/HQfh4ZIXYy3kKdo1tKDRiIK82OGkpKQhNexAjLNI+6bMvum4LAXhVcHiWaR57i2fVsaQ/RXyPxvptF8FW5w+yNYe6mmQ9NEjnZ9OpCR4Y6KDXyA148eIFTE1NuV0qOnTokF6E3okAESACRIAIiB0BHp/FbNGLCEgJgdTUVDg7O2PZsmWcRaMGtcWGRXaQl6dnTEXRxfzkCEzRm8XNGjvvX4NFbbK73vz4aPiHRCEZSqhlpPXXjkrk51CERKagvI42qpfP/67Xn/3fwvOKH9785IO5G0ply6JxIyO0bFYV5fL8esQj8Mk73HwagsCIWAFKJRXUq6uPtha1ofNHiHlOrPnxP3DLxxcX/L4AUAB48tDWqwrLlrXRoIpwAfzkWPgHRubJL+57ON5+SYSCZjkY5SIvKSocp888wdPPv6CkKA/wlNGubxtY/LHdWdz3UHid8+XKMXviePJo2qwhurfV45xbZo/f2ygoaGrCqIrwvb7y0156n6rraEM/1z5NQeATP5y4HoSoNM9Yo2IVWFk3gEkuNjP989dGEgL9wxAHWegaVM7hexGPHRMmY+TJBNi6zsex4YKHFTn1tzieW+dxEVNdDqJ7h8Y4vXOSOKpYIJ1ifsVjyCQPnLzwBGw2fO3atZg4cWKBZFBhIkAEiAARIALFRYAc7+IiTe0UOQG2P7ednR08PT0hKysDN5d/MG6oVZG3W9obiPS7Aa3OO7nw43t+E2EmNBN2aSdF9ks6gXcXT0J/+BmwBG4fLtpkW1og7vYZd5wP31cfcWyrI2y7NBF3dfOlH5s7WLDqJP51E4T/Ozg4wN3dHfLy+X8ol6+GqBARIAJEgAgQgb8kQGu8/xIgVRcPAsHBwdxaP+Z0l9dQxcUD08jpLqau0WzQGrddTMESiLWZeglfhO/4VEwaUTNEQPQEfgY+gc3wMwDPEJf2dpM4p/vpiw+c082SlHXr0Ej0gEpIIo/Hg+sMWxx0HwNlRQV4eHiAhZx/+/athDSiZokAESACRIAI5EyAHO+cudBZCSLA9nZt1qwZXr16hbq1dXDfaz4sLepKkAWSr2qLEQ446VgDCRdv4EWYILu05FtFFhCB3wTC/F7BD8CuSxNgqZ3n2oTfFcXkaPfRW5wmbDtFBSlcetO/ZzPcOOmEKpU1uISaZmZmeP36tZjQJzWIABEgAkSACAAUak7fAokmcPToUdjb23NJ1Dq3a4hDm8ZATVUyEwZJdEdwyqcgOl4WakqSbwlZQARyIhD3KwXKZYRsn5ZTBTE5l5iUDN0mU/AtMgZPvF3QuF41MdFM9GqEhv2AzYj1ePjsHTQ0NHDixAlYWlqKviGSSASIABEgAkSggARoxruAwKi4+BBYsWIF+vfvzzndYwZb4szOSeR0l2j3kNNdovip8SInIIlON4Py6s0XJCelolHdqlLtdDNbK2tr4NrR2dwa9h8/fqBTp07Yu3dvkX83qAEiQASIABEgAnkRoBnvvAjRdbEjkJycjPHjx2Pr1q1cJtvlc/pi2phOYqcnKUQE8iIQ9TMWYRE/Ef49GmERPxD54xd+RMXix884/IiOTTuORWxcImLjEhAXz94F/+ITkpCSkoKUFD6S095TUthGUeCSC8rK8iAnKwv2Lisry2UwV1FWAPunrMTeFbljjbIq0FBXgYaaCjTKKnPHmhploF1BAxXLq0G7Qlmol1XJyxS6LuYE2Pfl45dI1KqhLeaaikY9lnRtxr+HsWaLNydw4cKFWLBggWiEkxQiQASIABEgAoUgQI53IaBRlZIjEBMTgz59+sDb25tLpLN3gwNsuzQtOYWoZSIghMD3/2IQ/D4CHz5/w8cv/+FjaCQ+fvmOD5+/40vYfwj/Fo3ExLz3IhcivlhPKyjIoqKWGnS0y6FalfKoqlMeVStroqoO+6yFmtUroHw51WLViRojAvkhsGmXDybOPwC21eSQIUO45GuU8Tw/5KgMESACRIAIiJoAOd6iJkryioxAREQEunTpgkePHnFOwOkdk9HMpGaRtUeCiUBeBH7FJsA/MBQvAz7jbUgYAkPCEfgujPsXFR2XV3Uoq6hAQ7MiNMppQUOzAtTUy0FVtSzKqKlDVa0syqQdKympQEFRCUpKSlBUUoaCkhIUFBQhKycHGRlZLvJDhpvdFiT9SklJRmpKCudspKamICU5GYmJCUiMj0dCfBzi4+ORmBCP+PhY/IqOwq+Yn4iJ/skdx8T8RHTUf/gRGYEf/33Dj8hwxMWm7V2ei0XqasowqKEt+KdXEbX0tFHPsAqMDCqjjIpiLjXpEhEoWgJel5+h/7jNiI1NRMeOHXH8+HGoqtKDoqKlTtKJABEgAkTgTwLkeP9JhD6LJYGQkBDuB9Pbt2+hr1cR3vunc7NsYqksKSV1BFgId0DQVzx9EQLfV5/w6u1nztl+/+m7UFuVVVRRWVcPFbWrQEtbBxUqVUGFijqooK2D8hUrQUNTi3OihQoQowvMWf8R+Q3fw78iIuwLIsK/IOLrZ3wL+4LwsM8I/RSCuNgYoRpX1y3POeF1a1VBo7q6MK6vB0P9SlxIvNBKdIEIiJDAE7/36Dp4NcIiomFqagovLy9UqFBBhC2QKCJABIgAESACuRMgxzt3PnRVDAg8f/6cS5ATGhoK4/rVcH7fNFTUKisGmpEK0kiAhaS+DPiC+0+D8NjvfYaznZCQlM1cWVl56FaviWo1DaFbTR+Vq9aAjm516FStAfVy5bOVl+YTUf99x5eP7/Dl03uEfnyHTx+C8CE4AJ/eByMlJTs7RUX5DCe8SYPqaGasj3qGOtzsvTRzIttKjkBQSDis7VZxS0Bq167NLVnS09MrOYWoZSJABIgAEShVBMjxLlXdLXnG3rhxAz169EBUVBQsLYxwavtEylwued0o1hqzLZbuPHyDe0+Ccf9ZEB4+fYeY2IRsOlesrAv92g2gX7s+52hXq2HAOdgs3JtewgmwMHfmkH94F8g54kFvXiDojR/CQz9lq6SqoghT4xpo1lgfzU1qwty0NrQ0KSQ4G6h8ntiw4zLKqimjT9emFO6fxiwsIgqd7dfg2YsP0NHRwa5du9ChQ4d8EqViRIAIEAEiQAQKT4Ac78Kzo5pFTODUqVMYMGAAt11Yn25NsXf9aCgqkJNTxNilXvzX8CjcuBeA6/cDuHe2PvvPl3blqjCsb4LadRqjpmF96BvWg6qa+p/F6PNfEIiJjkJQwEsEB7zAm9fPEPDiCcJCP2aTyNaJt25uiDbNDLn3ShWpH7JByuFEQmIyKhtP4jLj+15ehAZGujmUKp2nfkbHodfI9bh62x88Hg/u7u4YO3Zs6YRBVhMBIkAEiECxESDHu9hQU0MFIXDgwAEMHjyY2y5p3NB2WO9qRyGoBQFIZTMIRMfE4dodf1y68QqXbrxAQPDXjGvsgCUpM6rfBEYNmsKwnjGMGphw66+zFKIPxUKArSP393uCgJdP4e/3CP4vHnNJ4TI3blizEjq0ro8OreuirbkRRcBkhpPp+IjnAwwYuxlNGlbHw3MLM12hQ0Zg0oL92LD9MgeDbbd3/vx5mvmmrwYRIAJEgAgUKQFyvIsULwkvDIFt27Zh9OjRXEbmuZO6w3WGbWHEUJ1STIAlUvK67ItLN1/g7uMgpO9vzZCwTOJ1GpihgUlz1G/cHLXqNYK8vEIppiW+piclJeLtS1+8eHYPfk/u4bXfgywZ1mVlZdCiiT46tKqPru0bwaRBdfE1ppg16zp4Lc5feY71iwbBcZhVMbcu3s0t3+gFp2XHuNnu1k3q4/ojPygoKODo0aPc0ibx1p60IwJEgAgQAUklQI63pPaclOrt5uaGKVOmgM/nY6lTH8wa31VKLSWzREkgNi4BPjdf4ayPL85e9kVo2I8M8TIyMjCsZwLjZm1gbNaKm9WmddkZeCTqgK0XZ7PhTx/cxNP71xHw8gn3gC7dCJ1KGuhq1QjdrBrBqlVdqCiXzm3MvoT9QDXTaZCT5eHLUzdoapRJR1Tq37cfuA6Hmbs4DhucxmK4TUdMX7MNmw97gc187927FwMHDiz1nAgAESACRIAIiJ4AOd6iZ0oSC0lgyZIlcHZ25mYh3Fz/geOw9oWURNVKA4EfUbHwvPQUx849hve150hMTMkwu3yFyjCzsEIT83Zo1NQcKmXUMq7RgfQQiP0VDd9Hd/D4zhU8uO2D7xGhGcYpKMjCum1D9OnSBN07GENDXSXjmrQfLHc/B6elR7mkake2jJd2c/Nt34lzj9B3tDv4fMDV0R7TB/fOqLtg816s3HmcW9K0ZcsWjBw5MuMaHRABIkAEiAAREAUBcrxFQZFk/DWBOXPmYOnSpdyPHo8VQzFsQKu/lkkCpI/At8honLrwBMfPPcLlm6+yhJCz9dmmFh1g1tIK+ob1pc94sihPAkEBL/Dglg8e3r7EzYynV2Ah6e1b1UXvLk1h08kEWprS/SCmbts58A8Mxdk9k9GlXaN0DKX6/dL1F1w289RUPmYO64OFYwdl47Fy9zEscN/HPfxdu3YtJk2alK0MnSACRIAIEAEiUFgC5HgXlhzVExmB2bNnY/ny5WA/jvetH4X+PZuJTDYJknwCv2ITcNr7CQ6cuocLV19khBazEPIGJuawsOyKFm07QVOrouQbSxaIjEDkt3DcvXYBt696we/JnSzfm06W9fGPTXP0tDaRum223r4LQwMrZ5TXUMWHh2u4cVVkUCVU0CPfELTosYh7UDe8V0dsdBon1JLNR89i+qrt3HKnNWvWcEufhBamC0SACBABIkAECkCAHO8CwKKioieQ7nTLy8vg8OZxsOnURPSNkESJI8CSoV24+hz7T97D6QtPEZeQyNnAnG22Vrtlu25o3qYjyqprSpxtpHDxE/gZFYl71y/i1pWz3Nrw1NRUTgllRQX07GSMQbYtYN22gdQ4qZE/fiEg6CuXeK74aYtXi2zmv3HHedxSlD4dLLBr0bQ8d8jYefoiHJdsJudbvLqStCECRIAISDwBcrwlvgsl14D08HJyuiW3D0WteUBgKHYevoU9x2+D7bed/qrT0BSW1rZo2b4r1DXKp5+mdyJQYAJRP77j1mUvXPU+gdfPH2bUZ/uDD+5tgWH9W8LQoHLGeTqQXAIfPn9Hfcs5iIlNRAdzExxbNQfycnL5Moic73xhokJEgAgQASJQAALkeBcAFhUVHQGWRI0lU2NO96FN49CrM810i46uZElioeQHT93DjsM3ce9xUIbyutUNYNWlL9p0tIG2jm7GeTogAqIiEPblE65fPAWfc0fx6X1ghtjmTfQxYkBrDOjZTOpC0TOMlPKD8G8/UbetEyJ/xMK8UR14blgIZaWCZbkn51vKvyRkHhEgAkSgmAmQ413MwKk5YO7cuVi8eDEX1nl481jYdmlKWEohgZcBn/G/vVex5/gdREfHcQSUVVTRqn0PdOzeH3Ua0veiFH4tSszk188f4aLnYdy8fAZxsTGcHmpqyhjc2xxj7C1Rz7BKielGDReMQNTPWNS1nIPQsCg0MqyBC5v/hbpq4bZUI+e7YOypNBEgAkSACAgnQI63cDZ0pQgIuLq6YsGCBZzTfWjTGPTualoErZBIcSWQlJSMY16PsHnPFdx68DZDTRZK3rmXPSzadYaSUunZ9ikDAB2IDYH4+FjcvnIe50/uzRKK3tKsFsYObsdt0SUvn79wZbExqhQpEheXiIbt5yLofQQMqunAx2MpKpRT/ysCmZ3vDRs2wNHR8a/kUWUiQASIABEonQTI8S6d/V4iVrPtWaZOncoltjnoPhp9u5uViB7UaPET+BYZg637rsJ99xWEhv3gFGCz2+0690aXXvbQq1Wn+JWiFolAHgRC3r7GuZN7ceX88YxZ8MraGhg/pB1GDbKElqZqHhKK7/KJc4/B9i7v1LYh5ORkiq9hMWqJPdgz7eKC568/oWqlCrjksQTVtCuIRMMdp7wxYen/OFnbt2/HsGHDRCKXhBABIkAEiEDpIUCOd+np6xK1dNu2bXBwcOD2R92xejiG9GtZovpQ48VDgIWTu22/hL3H7yAhIYlrtHpNQ3TvNwJtrW2grFK48M/i0Z5aIQICAnGxv3DN+xQ8j2zH++AA7qSiojzse5tj0ogOYhGGXrvlLASGhMP7wHR0aF2v1HUdy1Rv1W85rt97Ay0NNVz2WIba1UW7PGDjoTOYuWaH4OHxwYPo169fqeNMBhMBIkAEiEDhCZDjXXh2VDOfBA4dOgQ7OztuH90NiwZh/DCrfNakYpJKgIWRL990Fl6Xn2eYYGpuhZ4DHGDcrFXGOTogApJG4On9mzh9yAMP7/hkqN61fUPMGtcNLBy9JF7sfmttuwRVKmng/YM1kJHhlYQaJdqmzfD1OHPxKdRUVOC95V80NqxZJPos23kErpsPQF5eHidPnkTXrl2LpB0SSgSIABEgAtJHgBxv6etTsbLI09MTvXr1QkpKCpbM7oPZjvQjRaw6SITK8Pl8nL30DMs3ncOdR4IM0QoKiujQfSB69h+OKtX1RdgaiSICJUvg8/sgnD68A5c8DyIxMYFTxrypAWaN64JuHRpz0T3FpaHDjJ3YfvAGnBy7YfHs3sXVrNi0M2Ladm4bQkUFeXhudEHLxnWLVLe5G3djzZ6TUFRUxPnz52FpaVmk7ZFwIkAEiAARkA4C5HhLRz+KpRVXr15Fp06dkJiYiNnju2KJUx+x1JOU+jsCLMTz2NlHWOR2Biy0nL1U1TTQve8wdO8/jPbd/ju8VFvMCbB9wT0P74Tn0Z2IiRbkL2AZ0OdN6oE+3ZpyYclFaUJsXCIqG09EdEwC/G8sQ+2a2kXZnNjJnrzgANZvvwRZGRmcWDcPHZobF4uOk1duwdaj56GqqopLly6hefPmxdIuNUIEiAARIAKSS4Acb8ntO7HW/NmzZ2jdujWio6MxfqgVNvw7SKz1JeUKToA53EfOPMCidWfwOjCUE6BVUQe9/hmFTjZ2UFKm7OQFp0o1JJVAfFwsLpzaj5MHtuJb+BfOjDoGlTFvcg/062FWZA743mN3MGSyB9hs+61TzpKKr1B6L9twFnOWH+eiC3YumoJ+HVsXSk5hKrEIn1Gu67Hf6yo0NTVx69Yt1KlDSSILw5LqEAEiQARKCwFyvEtLTxejne/evYO5uTm+fv2K/j2b4cDG0cUadlmMppbKptgPzsOn78N13Rn4pzncFSvrov+QiWjfvR/k5OSLjgs/GYlxgrBeyCpCQVEyt3UKf3ENr778QsXaLVFX7++2Oio62CS5MASSk5Nw2fMIDu9ej/DQT5wII4PKmD+5Bzce8niiXX/NEopdveOPrSuGYuQ/bQqjskTW2XbgGkbN3M3pvt5pDEb26lTsdrAlVANnLcfZGw9QrVo13LlzB1WqiDahW7EbRQ0SASJABIhAkREgx7vI0JZOwd++fYOFhQXevHmDdi3rwGvPVCgqSKZzVDp7MHervS4/g/OK43j+SuBQaFeuiv5DJ8KqW9+idbjT1Aq77ILhzlsFnxRHYvtVF1SSzV1ncbvK48fipJ0hPIJSYTDRE252JtlUTPwZju9Rsdz5MuV1UVZFcu8habIlW0flcoI54D5nj+LwrvUIC/3IlWxYVxeLZ/ZG1/aNc6mZ/0thET9RpckUKMrLIfTZOpRVU85/ZQkuedzrIfqN2QQ+H3AZPwgzhpTcMqa4+AR0n7AQd3xfo379+rh58yY0NDQkmC6pTgSIABEgAkVFgBzvoiJbCuX++vUL7dq1w4MHD9C4fjVcPzYbaqql44egtHf3zfsBcFp6LCNpGgsp/2fkVLTv2heycsXjFDKH9eKMOlh3MzkD98QDb2CtL1lbkmW2w3z6BTj3bZBhDztg173GGcH9SQp33mDiBVR7U0sAACAASURBVLjZZS2TpUJJfeAnIzLEH2/fBKKSWTdUL5f9eyAxthQhw5TkZFz2OooD29ZkhKBbmBpwySZbNTP865ZDPn7DE7/3sO3S5K9lSYIAn5uvYG23CqmpfMwY1hsuY+1LXO3/fsag/SgnvA7+iJYtW3JrvpWUlEpcL1KACBABIkAExIuAjHipQ9pIKoHk5GT06dOHc7prVNPC+b1TyemW1M7MpPfrt1/QfehatOm9jHO61TQ04TB5IbYdvwXrngOLzelmKvGjn8Ink9PNzl2/8SKTtlJ0WOZ3OHJFBTG1K9YPKwZYw3X+eDz58ku4kpJgi3Dt//oKezDF7hV2z7B7h91Dtx8GcvcUu7fYPfY3L72qWqXG6X74NBidBq3mnO7hvTqKhdPN+q5cWVWcXr8Autpa3FrvAQMGcDt5/E2/Ul0iQASIABGQPgLkeEtfn5aIRaNHj8aFCxdQobwavPdPh3YFWrdaIh0hokYjvkdjvPNeNLCax+3FrayiAjuH6dhx4i5sBjpAXkFRRC3lX0zY08vwAyDbZRlWLBnFVfTdeQ5fBRPD+Rck9iVloazy2/FGES6Z/xsUPFl5lE8TIJ99sjvtimTY8jcc8luX3TPs3mH3ELuX2D3F9rln9xi719g9Ry/hBPwDv6BV7yVISUlFv46tsH7WGOGFS+CKbkUtnNmwAJrqajh9+jTGjx9fAlpQk0SACBABIiDOBMjxFufekRDdli5dih07dkBFWQFee6bAoEbp2s5GQropX2rGJyRhubsXDCxmYPPuK1ydLraDsf3EPfwzcgpUyqjmS46oC7GQ5eeeOzixzZq2QD1jC0ETCdvgG5LLbKuoFSkGeXyeIizn++PY1Tc4djUITjZiGGaeTw7SZEs+Tc6zGLuH2L3E7il2b7EXu9fYPcfuPXYP0isrgQ+fv6NpFxckJqbA2twEHgsnFVmW+KwtF+yTkV5VHFvjDGUFBWzZsgUrV64smAAqTQSIABEgAlJNgBxvqe7eojfu6NGjcHZ25n4E7d84Gk0b1Sj6RqmFIiFw9tIz1G/nzK3lZnsCm5pbwX3/FYyftRTq5dLnNouk6TyF8qNfZISZt6inC165hrDTFwxfN+5JYbi5nBKUVcpAWUUJ4jpI8/F7mls+t3X+EmBLnl/AIijA7il2b7F7jN1r7J5jeRTYPcjuRXoJCLBIABPr+YiNTYR5ozo4sGwWcv2+lTC45g2MsM11MreTx6xZs3DixIkS1oiaJwJEgAgQAXEh8PuXk7hoRHpIDIF79+7B3t4ebHuplXP7oad19uzMEmNMKVb0bXAYJi88gPNXnnMUqtc0hMNkFxg3ayU2VMKenufCzKE4EnWrKoHPU4JJJ2vsdz+PZ1uvIMKuGSrkoi2Pn4DvXyOQIq+G8lrqkOEnI/TlVTx7+RFJLJQ7uQx0GzVDY0O9XB1dUcnJRVXu0u92lFFeq3yuOiE+EoF+9/A2+CsgrwDIl0H1uqYw0tfNvR5riUuQ5oe3b94i8lcikJQIlNGGfv2mqK2Xc+RKyq8ofI+Oh1xMMELSDAn/8gFR5TSRkJgEnlxWnQtkC4C4UH88f/4I//HKQSkmDPGquqhv0hq6Wrknq2LZ03/EJkKpbKWMLPBxEf549eQ5wn8lIikJqGTYBMaN64hV9H61mrWwcO0ePL1/Ex7rFiA4OAA9hrmhc7uGWLfwH9Sqmb0f7jwK5B52NjepmddXSaKvR/2MRaP2zoj8EYuGtfVwfO1cKCsV/zKXgkLs1c4cro72mLdhDwYNGoRr167BzMysoGKoPBEgAkSACEgZAXK8paxDi8uckJAQ9OzZEwkJCRhtb4mpo4t/D9XislVa24mLS8SidWeweut5JCWlQkVVDYMcZqBbnyHFmjQtL75cmLnPTq6Y/j9tM7YPq9nKGnA/D8RvhF/IRLTTE57dPDboGOztZgLytlh/ZjYC1lnA3Tt7SK9MW1d4uI5AJSG/7UUlJy+bM9qRaYF1PsdQSyXnGuFP98FlzKwMBzhzKZmmI7F43kw0rJQzl6jAc9g6fzSuBaVmrpZxLNNmOtbNmwB9tax/JoI9R2Hy2lsZ5djBoentcSj9DM8I6674ZOicX1t4/Ejc3DwTS3efT5eU5b3L7BMY1atZjk4z+45cntWUywTfePplLOlTBVc2T8WqnGTVdsSmLU6oLoRplkaL8QN70LVh70WcPbYb+zxWcg/CLt98gWmjOmPe5B5QVv6dZc9p6VHcvP8GBzeNQf8ezYpRy+Jrio1PLLz8a0Q0DKrp4Mz6hVBXzfm7XHxa5b+lafa2CPoYil2nLqFHjx64f/8+qlevnn8BVJIIEAEiQASkjoC4RjFKHWhpMigqKgpdu3ZFeHg4Oraph43/DpIm80qFLReuPke9ds5Y5u7FOd0dug2Ax9Fb6DlghFg53awzuDDzNCfZsnnDjP5R1DNDj7RPPrcDMs7nepB0AhM7mwmcbllrjFm0E64r18KmlWAz8NRr8zHCYW3eCdtEJSdXZdneYmWFzlp/vOyCYelON88I9vO2Ysk6DwwfIHgIlvpoG5xseuDpt9/br6U3l/LxHP6xc8hwulsMdMWCjSewYuOu3/Wvr8JEx634mV4p7b2MTls0bN0blia//3zwalnDslNvWHbqhIatu0E5p73Vc7GFxw/H0XGNMpzump2nY8YSD8yYuxyd0pYUnFtmi2n/u4jsj0sEismnZU9X/nYH+2c0yHC6W/RyxHDHCchYKf9mIxxXnkT8H3aJw0eWAZ3dg+xeZPckeyDG7lF2r7J7lr2C3odzTreKigK6WolmP3BxsD2zDklJyTDv+S+CQsJRpWJ5nHV3QUVNydsbe/3MMWhn1ghhYWHc30z2t5NeRIAIEAEiUHoJZJ3KKL0cyPJ8EkhNTQXbKuXVq1eob1QFR/43HrKyv3+A51MMFSshAl/Do7iw8iNnHnAa1KxVD46zl8OwvnEJaZR3s2FPrwrCzOVt0ajO77XmfF51WDhY4IzHbTzb6o0IO5Ncw80zt1TTdg1cp/dHuTQHsUkrW5ifmIaZK44BAauw4ZA5FtvlPZMoKjmZdcvXccQ1LHPeKij6xwxuoxZdYN39FGbZjUcI3x8Ltnvj+KyuGTPFPP5PeLuNFdSVaYEFR3fDTPf3TGI90w5o1dwNwyavAPwX427QkCx7peu0HoulrQFe8jjwLaxwDcAEl02w1s89FDw3u94cnoOdTwQz71azPTG5l0nGAwfLbrYw3T4UizxuI2jnMBxqfB/2zXWFiru7az7uApBp64yNs4ejejmBXn0G2uPUbHNsvZmMVG9PfJ7RC/piNuudbpSGphYmz1uNTjaD4L58FoLfvkQX+7Xo18MMVbTLccX6djWFahkhoRnpgiTwnf2Nad9/BXxffYSWhhq83F1RTTu3hSTia6ScnCy3Jt1y5Cy8fPkS/fv3h5eXF2Rlc3oyJb52kGZEgAgQASIgGgLkMYmGY6mRMnv27Ixtwzx3TUZZNeVSY7skG8rW4W/ZexWGbZzAnG4FRWWMmDAf63afF2unm4UQv/LZzKGX7d4Jen/4Gfotewq6hQs3z+ccpqkzXGf9dro5ATw51LddAaeegnDeZ5v34X1CHj0uKjl5NJPT5WenNwnCy2WtsWpT9rBpVQMbTJ7SmauacnINAjPvVJXwAY/S9kPv6roqi9Od3pZ2c3sMS5vRfvn6Q/rpLO/8hN8z6UnJecHKUjXLB178C5xaKwgv1x+2L4vTzQryeSpoMWIbRqXpc2jzmWyz8FkEAqj5z1YcXT4uw+nm5MhVQcehCwVFU7wRGCr+2fCNGhhz9yi7V9k9y+5dt+0XORuG9Gv5p9lS8dlmxAbcfPAWairK8NzoitrVq0i0XWVVVXBi7TxU1FSHt7c3WMI1ehEBIkAEiEDpJECOd+ns90JZfeDAAW57FHl5GRzdMh7VdbUKJYcqFS+Bdx8i0H7ACox12oPo6DiYteyALUeuwXbQaLGfeWFh5t5pYeZ92zTNmAVNJ6hi0Bzp2QV8br9KP53r+9zZoyCYM8xajG19ZdZvheBk0gn4heQeFioqOVm1yPsTc1TZLD97NXIYjTpqOdepaTUMnTuNxNSVK1EtUxm+Un3Mv+4Hty2eGNhaL8fKfJRF+TKCPw9xcb8d7MyFeSKatPv+xIubNWeyB9q0ytbH7DyfVxZtRzkLmudm4YU7zby2y7B4UlfkNP+uXK0e0uMYkpJztiuzjeJwzGZH2b3K7lmj+k2Qmsrn1Fq07jTYvS1Nr6FTtnEZ3RUV5HF83Tw0qi0du2RUr1wR+1g2dllZrF69Gnv37pWmbiNbiAARIAJEIJ8EyPHOJ6jSXuzx48cYOXIkh2HdQju0bm5Y2pGIvf1slnvDjktoYDUXV2/7Q12jPGYv3oIFq3ehYiXhobriZFjki7Qwc54R6huoAynJSMn0D7KVYZw+S83CzfNSXt4W2hWEr7BR1DPJcOR9n+c808s1ISo5eembw3V+yu+TpmZGvz/8cSRbwQKOLi6wamWC34HkaYWUNGHQ2ATlWARBcjxiIsMQ+s4fAU9v477PKVw7uwePvuScdO2PZv764/cPbwUyjJxRr5LwvtGo0zJfTnOLFk1RVohWPAUVSGqMDrtnK1cRJOdSVFbh7ml2b7N7nN3rkv6asuAA9hy9DVkZGRxcMRstG9eVdJOy6M/sWTNzFHfOwcEBDx4IlvtkKUQfiAARIAJEQKoJCP+VI9Vmk3EFIcASw9jY2CAuLg4Odm0wdki7glSnsiVAIPh9BIZM3orbDwO51tt0sMGYGYtQVl2zBLQpXJNsGyrfC4Iwc/D9Mberfu6CuHDzKWinl9NcZ1rV1F/I7LhmEyhbGUat5HAhLRQ72/X0E6KSky6vAO9xob64z8rzjKCnnc2lzrekxIgX8Dm6FRt3H893naIoKCcvsIFXSQ2/83Znb4ntG54eqeD7+gO6GWakS8taOEkyZrKzKp33p7jYGNy+6sXtD71yy0kc37sZ1y+dwqT5B3DE8wF2rxuFmtUlcy300g1n4bb9EmfbdtfJ6GTeJG8gElhiRC9rPH/7Dh7HLqBXr1549OgRKleuLIGWkMpEgAgQASJQGALkeBeGWimqk5iYiN69e+PTp0+wMDWgDOYS0Pce+69histBxMYmQqN8RUyYtRzN23SUAM2zqsiP9s0IM896Rfinuw9foZ3e3+0nLyxrtvBWc74iKjk5SwcgVxfqf2z1JbTsHxc++izHmDnrM87KGJijbdMmqKVnCO3KOtDSiMOJIXYZIeAZBUV8wNbwB949xUnlx+YunKdY4/dDkSKHm7suJXFVWUUVqzxO46XvQ+gb1sfMf93RukNPbFg+i3vA1rDDXKxdMBAOdm1LQr1Ct/m/PVfgvFzw8GfdrFHo17F1oWVJQsVVU0fCP/gjbj55yTnf169fh6LiH8krJMEQ0pEIEAEiQAQKTIAc7wIjK10Vpk2bhtu3b6OqjiaOe0yAvDx9ZcT1GxAWEYWRM3bA67Jg2yH2o3zczCVQKyt52/AwxpnDzGftPwILXSUkZgqzTu8HBZlf8J5rCvebybiz6Tr+62uSMTOaXqYg7/IFKZxLWVHJydZEcqLgVPIrfP8vGTVzCc/OVhdA4rtTv51uWWs4e7iieT3dLGurWbRBY2t5XMthr/OcZBb2HEucpte0A3DzPHh5ZRhP+YTgtEgEZeXSOQ7pGzUA+5f+Yg/U6hmbYdOKObhx6TRGz9qNM5eeYtvK4dCuoJ5eTGzfj3o+wHhnwXpnl/GD4GArSAgotgqLQDF5OTnsXzYLLYdM4/b2dnR0hIeHhwgkkwgiQASIABEQdwK0xlvce6gE9Tt48CA2btwIBZboxsMRFbWErZwsQSWpaY7AGe8n3Fpu5nSrqqljpusmzPp3k8Q63VnCzA17o7F+ecgqloGySvZ/skoV0aT7cME3IXYV/ELymd08p+9OSij8ReHciUpODjoqV6wt2JOa74+wqIJnE3/jc0AglWVE994B8z+cbsHFFCC2eNYNy6U9ochrxpuf8BNhaTzq1aqWA5nSeYo9WGP3Orvn2b3PxgC29puNCeL8unTjJQaO+x/Y8vTpQ3tjxpA+4qyuSHXT0iiLwyvnQFlBAdu2bcPOnTtFKp+EEQEiQASIgHgSIMdbPPulxLVi+3SnJ1NzcxmIpo2kI7tsiYMVsQLxCUmYMHcf2BY83yJj0NisNdwP+KCNddo2WyJur7jE8WNf4WbabKt5L0uhybLS9dFu0F7gjAK4+TAtWVf6xczv/J85zpqnF4kNvIcLaR9q5+bciUpOesMFeVcpj/TdzO8+ChBeMz4Ix5YuhM89P/xM88/ZHt4fHt/j6jSe4ig0IzoQj6hfxZNcTVE9bXeEh7vw+pvw9dkxwfcFa9uFW1yqr7B7nt37bAxgYwEbE9jYwMYIcXs9fPYOXQatQSqfj6E2HeA6zl7cVCxyfVjG9nWzR3PtjB07Fs+ePSvyNqkBIkAEiAARKFkC5HiXLH+xbD0mJoZb1x0bG4tBvc0x2t5SLPUs7Ur5B4aiWTdXuO/ygaysPBwmL8S/6w9Aq6LkJ+uJ9L2Y4WS1a14rz67mlWuA1q0E4cd3PC/jP2E1Uu9i9qaTyMkVYU7prW1zBDXlbVGnai6Jy0QlR5ieuZ1XNECr/vW4Es8270SwkEnvqOdnsfOUB9ZM6oQbIenbb8kBZXgC6WkR6zk19fqwC3Y+yd3xZknq4jIqFz70W6dFf0G2cr4/jnk/zpCY+YCtBb+xe6nglOF0mBnm0jeZK5ayY3bvszGAjQVsTGBjAxsj2FghLq/Xb7+gle1ipKSmond7C2ycPVZcVCt2Pey7WWF4r45ISEjg/ub++PGj2HWgBokAESACRKD4CJDjXXysJaalESNGwN/fH/WNquB/ywZLjN6lSdEdB2+gifVC+L3+BJ2qNbFm+xnYDHTgsgJLOocsYeZ5bDGVbivb57l++4GCjwGr4PdJeLh58glHLN9xNYvzzdp8uH0q1qWFmZtPHwX9PNYci0pOug35fufJwaSXg6B40glMmr8dEX+uff/5AnsmpO1JbuSM1mmOKh8K0Kkh2ArwmftGvPrzCQU/Gf4nZmPa2mO/1RGS14GnqAbttFJ37rz4Xb6gR2WM0WNw2oOE9bY4dDMkiwTWN0/3TuTW8LMLtg59/2oNfxbhEvDh0/sgfPn4Lt+a8ng8bixgYwIbG9gYwcYKNmaU9OvD5+8w7eqCxMQUtG9hjB2uUyAjU7p/hqye5gBjI30EBwdj8ODBUrE1XEl/z6h9IkAEiIC4Eijdf/HEtVdKUC83NzccOXIEamrKOL51AlSUKdtqCXZHtqbj4hIxdMo2jJyxE3EJibDq0hfr91yAQZ2G2cpK6omsYeat8gwzT7ezWpNO0Ev7cPNuLuHmAO5uGQTb8Qvgc/MWfO+ewpZxBljgcV5Qu7YjRnT/ncAqXX5O76KSk5Ps3M4p1OiLdTMFa2JTr83H0FbDceHKLQT6P8Xtw8vQtYN1Rsj8xDlDfjPkycHQOs1pT/HGjC59cOLiLXz6GILAp+ewa0ZNTFu+F5C1RudWspwK93z9keNjDNlKqG0tWKDt+z9bbDt5Ee/f+cP37jV8ihYeMp6TXY1HeKCvvuDP0d7pFpizbjuev/RD4NNL2DmjFpzdBX0jZ7sRdq0kYw/6nOwszLn9W1fBoU9LXPI8UqDqbExgYwMbI9hYwcYMNnawMaQkXhHfo9Go/TxutwXzRnVwaPlssERjpf2lqCCPA8tnQVNdDZ6enli6NC2yo7SDIfuJABEgAlJIgP7qSWGnFtYktqfozJkzueo7Vw9HrZrp81mFlUj1REngbXAYeo/agBf+n6GgoAhHp5Ww6tJblE2IhazMYeatmuYdZp6uNE+rIdrqy2BXUCrubLqMn30b/HY40wsp2GHtgcG42scaZx5tw5pH29KvcO9yXVyxZfYIVBL4nFmuZfnwl3ISvwjCuMMTcwp6B5CeuZz/E8ICvmv1dsNGVR04zl8PpHhjg5N3FhXZPt9jNm6H9R9h2coGfeG+JBjj2XZiqXexfd5dbM9cs/ZIrN3kgvJPZuP8zb1IDY7EnxPqrDifpwiLYZuwylvgyJ9cNgwn0+QYTLwAN7u0hxf5sAVK1TF0xy2UW9IGW72T4HtwPnwPZlYKMJ+wD9MGWULYLu15MmU6pyThe5pYIeSzNlrCn35F/8S9GxfAk5FBY9OWBdaGJSOcumAdGpm2wsalM7Dn6G088QvhHqoW5/j+MzoODa2cEcXea+vh+Nq5UFGih7rpHVq9ckVsd5kM2yn/Yt68eWjZsiVat5bubdXSbad3IkAEiEBpIsDj81lOUXqVdgLR0dEwNjZGUFAQJo7ogHUu/5R2JGJl/7GzDzFi+nZExyRAt7oB5izdiur6gpBhsVJUBMqk/ArHx9DvAE8ZlfT1hDpaOTUVFxGEsKhEQE4T1fS0M7bIigvcjz52M7mZ3A1Xd6CmbCR8fU7h2atwQBFQUKoAQwtrNDbMuq3Wn22ISk5MaBC+/kyEasUaqFQuB1cy+Sc+hnxGCk8NVfR1kdvWZImRQXh47SIC30dxtkBRHXr1WsLYuAHK5uLbZNT7GsWZmQgl1DaxQrPmDQTM48MREhIGOQ0d6FZKT+f2JxEg5ed73Lt8DoFfo6CgqATw1NCoix3qVkqzqwC2gJ+M0JdXcef+Y8SkrV1X1TJE49btoF8p9+2x8mQKgIWtfwkKRgJPHhX0DFAmrwcs2c0t1jPnju+F+4rZMDZrjX83/PEkooCavA8KwBKnUfj0PhBqqorYvmoE+nQzLaCUghdnM+z12jkj5OM3GFTTweWtS1BRUzK3OCy49QWrsXDzPqzYeQy6urpcsrXy5YXfdwWTTKWJABEgAkRAHAiQ4y0OvSAGOtjZ2eHAgQNoXL8a7p6ZB0UFCoYQg25BamoqnJYcw8r/CUJtW7XvgUnOq7httcRBP0nRIbPDvP7yjjzXbwuzS1RyhMmn80QgM4Epw7rhzaun3FZhotipIC72F9wWT8fNy2e4ZmaM6Yylc/oU2TrrpKRkmHZxwfPXn6CrrYXL25aimnaFzCbScSYCKSkp6DjaGXef+6N79+44c0bQT5mK0CERIAJEgAhIMAFa4y3BnScq1Xft2sU53aoqijjkPpacblGB/Us5kT9+oYv9Gs7pZgmIRk9dhNmLN5PT/ZdcqToRkAQCH9+95ZxuFVU1tLDsJBKVWeg5G0PYWMLGFPZAj40xbKwR9Ys9NGzXbznndGtpqOHsRhdyuvOALCsri52Lp0FDTZVb781yrtCLCBABIkAEpIcAOd7S05eFsiQgIADjx4/n6m5cbI/a+pUKJYcqiZbAy4DP3DZAF6+/hJqGJpa4H0OP/sNF2whJIwJEQGwJXDorSKbWpoMNl9NBlIqysYSNKWxsYWMM23KMjTmifPUc5obbDwOhpqKM0xsWonb1KqIUL7WyWETA/+Y7cvaxnCtPnjyRWlvJMCJABIhAaSNAjndp6/FM9rK9QwcMGAC2X7edbQsM7muR6SodlhQBz4tP0ay7K4JCwqFv2AAbdl9AA5NmJaWOdLSbnuALEJqsLF+GikpOvhqjQqWVQGpqCq5eOM6Z375rvyLBwMYUNrawMYaNNWzMYWOPKF6DJmyBl89zsIzdx9bOhbGhvijElhoZPdo0x+i+XZCYmMj9jY6JiSk1tpOhRIAIEAFpJiC7cOHChdJsINkmnAB7mn7q1CkY1KgIz12ToUDruoXDKqYrG3ZcwtAp25GUlIK21raYt2I7ympoFlPr0tuMDD8WcZGpqFy/IUzNTaFayBQGopIjvaTJMtEQ4EFPvy7Uy5WHdc+0/elFIziLlDKqZdGuc2+EhX7CW/8XOHzmATQ1VNDMuPCO8qT5+7H94A3Iysjg0EonWJk1ztImfcgfAUvThjh/6yFevw3G169f0bNnz/xVpFJEgAgQASIgtgQouZrYdk3RKnb16lVYWVlBRoaHu2fmommjGkXbIEnPlQBbDznN5RDctl/iyg0aNRMDR0zKtQ5dJAJEgAiIisDB7W7Yt3UFJ27SiA5YvWBAgZOuLVp7GgtWnwKPx8PORVPQryNtifU3/RPw/hPM7aYiLjERJ06cQK9evf5GHNUlAkSACBCBEiZAjncJd0BJNB8VFYUGDRrg48ePcJnWC/Om9CgJNajNNAKxcQmwc9yC095PISsrjynz1sCysy3xIQJEgAgUK4Gr509g7aKpSElJQk9rY+zfOBoqyrnsSZdJu//tuYJxc/ZyZ9xmj4aDbedMV+mwsAQ2Hz2LaSu3QUtLC35+fqhUifKwFJYl1SMCRIAIlDQBWuNd0j1QAu07OjpyTreZcQ3MmditBDSgJtMJhEVEwbLvcs7pVlVTx+KNh8npTodD70SACBQrAfbAj41BbCxiDwLZ2MTGqLxeR848wPg0p3vhODtyuvMCVoDrY/p0hVWzxvj27RtGjBhRgJpUlAgQASJABMSNAM14i1uPFLE+x44dQ9++faGirICn3q6oVVO7iFsk8cIIvH77hdvK5/2n76ikUw0ua/dCV89AWHE6TwSIABEoFgKfQgKxYIo9vn75gOq65XFu71TUqaWTY9uXrvuhs/1apKbyMW2ILRaNH5xjOTpZeAJfvkXCbOAkREZFY/PmzRgzZkzhhVFNIkAEiAARKDEC5HiXGPribzg0NJQLMf/+/Ts2LbHHmMHtil8JapEjcO2OP3qNWI+o6DgY1jPGgtW7uURKhIcIEIHSS+BHZATA40GjnFaJQ4j67ztcpg1BwMunUFdTxsntE9HW3CiLXvefBMPCZjFYjoqhNh2waY5ga8osheiDSAgc97kNe6eVUFFRwbNnz1CrVi2RyCUhRIAIEAEiUHwEKNS8+FiXeEssTI053Z0s65PTXYK9cfDUPVjbreScbvO2nbF001FyhhoXcAAAIABJREFUukuwP6hpIiAuBI7u2QT7LiY4f2JfiavEMqqzsYmNUewBIRuz2NiV/nr15gva9BY43b3bW2Dj7LHpl+i9CAj0trLAwC5tuO0/Bw8ezD3sKIJmSCQRIAJEgAgUIQFyvIsQrjiJ3r17N86fP89tFbNj9UhxUq1U6eKx/xoGTdiKpKRU9PpnNJyWboWiknKpYkDGEgEikJ1ASkoyrp0/AbaHt4FRw+wFSuAMG5vYGMXGKjZmsbGLjWEfPn+HaWcXJCalwtrcBDtcpxQ4A3oJmCPxTa6ZPgq62lq4d+8e1q5dK/H2kAFEgAgQgdJGgELNS0GPsz1A69Spgx8/fmD3upGw72NRCqwWPxPXeVzEVJeDnGJDx81B3yEUlil+vSTQKPHnZ3wIeovvkbFIkQdkecooV7UWaujpQl5clSa9JJrA/RuX4DpjKKrXNMSmg1fEzpaju92xa9MSTi9FBXkkJCahRUMjeG50gYpS/jKfi51REqiQ953H6DV5EZSVleHr60sh5xLYh6QyESACpZeAXOk1vfRYPnbsWM7p7mLVkJzuEur2xW6emLfyBNf62OmL0a3v0BLShJrNjUBKpD+8ds3HlsO3cy4m0wIjFs9B93YmUuGAJ/4Mx/eoWM7WMuV1UVaF/iTk3PFFf/bS2UNcI+279S/6xgrRAntQqKxSBptXOXNOt3Z5DZxYN4+c7kKw/Jsq1uZNYNfVEvu9rmL48OG4ceMGt2/638ikukSACBABIlA8BGjGu3g4l1grhw8fxoABA6CupoIXV/5FlcrlSkyX0tqw05KjWL7pHBeKOXHOanTo3q+0ohBru+PencL0AeMRkknLFjYOqKoUh/ePDuB+YGrGFV7bZTiw3B5lM85I3gGPHwuvcUZwf5LCKW8w8QLc7BpIniFSoHHUj++w79IEfH4q9no9hoZmBbG16pLnEbgtmQZ+aiplMS+hXvrvZwyaDpiI0G+RcHNzw8SJE0tIE2qWCBABIkAECkKA1ngXhJaElWX7fk6YMIHTeuW8fuR0F3P/8fl8TJi7L83plsUM103kdBdzH+S3OV5yELZlcrq7zD6Mgzc+Y67TQgyZshzz93/E3v370UlfMGTyr83GhlN++RUvvuXK8DJ0q6iQcUgHxUzg2vmTSElJgql5O7F2uhkW9uBwpusmyMjIYvXuE5iycivYWEev4iNQrqwq3GaP5hp0cnJCcHBw8TVOLREBIkAEiEChCZDjXWh04l+xadOmiIiIgFWrOhj5TxvxV1iKNGTb64yYvgPuu3wgr6CAeSt2oHWH7lJkoXSZ8vmyBy6kmWS79DbG92qJsn8sW9U0aIsJO66hR1q5O8td8Oo/SeYgC2WV3463VMTOS2h3XPI6zGkurmHmf2JlYxkb09jYtuXoOYz+dwNl2f4TUhF/7ta6Gfpbt+KynDs4OBRxaySeCBABIkAEREGAHG9RUBRDGZs3b8b79+85zb6E/sCtB2/FUEvpVCk5OQX/OG7BrsO3oKCojIWr98KsVXvpNFZKrEr4FSewRMkRPdrpCbdKSR8DNswUXE+9iwsPA4WXFfMrfJ4iLOf749jVNzh2NQhONhRmXhJdxmaL+9o7wrxtF5i1lJxxgo1pbGxjY9w+zysYOm812NhHr+IjsGqaAypoqOPKlSvYs2dP8TVMLREBIkAEiEChCNAa70JhE+9KsbGxqFu3Lud4y8gAqangkq+MHWKJpbP7QE2Vtq8qqh5kM93M6T5y5gFUVNTgsm4v6jYyLarmSK4ICPD4Cbi5tBuWnn4FtF2D48v7QykXubzkzzi10gOKzTqjWfMmKEcJyXKhRZekncAr34dYMNkesbHR6NPBArsWTaOtxYqx0w+cv4qRC9ygpaUFf39/lC9fvhhbp6aIABEgAkSgIARkFy5cuLAgFais+BOYM2cOt2e3sYESXuxsiDt+P/ExIgkPn73D3uO3UcdAB7VqaIu/IRKmIZu5GjljJ/afuMs53Uvcj8CogYmEWVEK1eXJISX8Mc7dfgWEVkX7wZYom1sskExZGLVqC4MaulCWz60gwBKYfXx2Gw/v3kLA6+d4/fw5opLlUb5SBeSWP5w9DIj8+hUxCXwoqyiBCwiPD8fLO154HpSKqjW0IQsgJuIzfkT/RIqMChRz0YXLXv7ff0jkK0BZ8XfLv9tJgrKKiqAdYV+B+EgEPr2K+7duIvDNSwQGBiFJTg3lNcvmXi9NXlxEEJ7fuoxHj58i+OUjBH2JgLx6JWio0OJyYcgl4XyFSlVgbNYaNy6dgW9AID6ERaBbazPKtF1MndegVg3cfvYSrwJDEB4eDhsbm2JqmZohAkSACBCBghKgGe+CEhPz8mxfzyZNBNlx77rXhUntMpzG3g9+YOCiQETHCjIz9+pkgo2L7VFZW0PMLZIc9VgiNbamm4VeLt5wkGa6Jafr8OHMJIxdfIzT2GreZUztVuevtY8JvITNdkNxLSdJ8rZYdGglTHRznluPC9yPPnYzAZkW2HDrGMo/34c5Y2YJMq7zjLDqig/qyPjDtY0V7gNQHnMCx4Y1y6kl8Pg/4TWuPpe9XNZ2K87M6ppRLnM763yOoZZKxqUsB+FP98Elvf0sVwCZpiOxeN5MNKwkGGv+uMy1f3fHXCzaevzPS9zndtMOY2K/lrTEPEc6knOSzXw7TxiIxIQ4jO7bBWtnjJIc5SVc08CPX2A6cDISEhNx7do1tGlDOV0kvEtJfSJABKSUQO7TNVJqtLSaxcKcR48ejZSUFIy3qZDhdDN7rc008O10E/RpowEZHg8nLzxB3bbO2HHwBmWkFcEXgm0Zlp5IbcGqXeR0i4BpcYqoZjUU6SucfRa1x7+bT+JrdHyhVYh6sRP9051unhH6T9uIpf87ghlT05IgJZ3AvD5dcSPkV+5tyNVEzPMj+CeT01uz0z+oxBxkRQN07F+Pqx+36woihEji/+eHG2lbhtlZNc25FK8shP0x+HjZBcPS2+cZwX7eVixZ54HhAzpxslIfbYOTTQ88/ZacTTaPHwmvGQ0ynG7ZNo6Yue4wlqx0h00rNmcPXFndH/3cvFB42tmapRMlQIAtqWFjX3rCtXnutOa4uLrBoKoOZg7vzTXHfgMkJiYWV9PUDhEgAkSACBSAgLDfWgUQQUXFhcC2bdtw//596FZQgOvwqtnUkpHh4eD82ni0tS4ql5dFVHQsFxrd2nYJXr/9kq08ncgfgcVunhlbhs1Z4oHGZi3zV5FKiQ+BMsZw2r42Q5+7uxwxor0+5ixbistXbuHT1+9IzG/eqHh/bB0xVyCr9kisP++Nwf16oaGxBdr2X4gz573Rk21LxvfH8sEr8DU3uYn74TRmCierZq9l2H75PTYsHIFy7AxPDvUtbQXtxG/E65CcXdcwv8vgNj6Tt0XTugVcYhJxDcuct6bZ4ohNV3wwoFtXNGrRBb2nbMfh/e7gUtHx/bFguzeSBCUz/g/2dIH7TYFDbrvoAs6scEKbFi3RqLUNHFYGY91cwaxo4oFR2HEl8w7qGSKk9iAu7hcS4tOS+kmJlWzsY2Ng+lZjy3YekRLLxN+Mafa2MNTTRUBAAJYtWyb+CpOGRIAIEIFSSIAcbynp9O/fv4Ot7WavVeOqQVVZMJuUk3kNapbBhyNNMGdQZbDka7cfBsLYej6WrPdEQmL2WaucZNA5AYF1Hhcxb+UJLpnQDFd3yl4uwV8M9fr9OKd4WKe6GVb4ntyItU79MbpnQ/Qyr4LVm/fizdfcZ6k/XNwsCC+XaYFl612gX+73mmomWFazPkas3iJoI2EbLj0My2hP2EGL0fuwZrY9KqlllaVapy3aplW6+TD7zgVsDfcrn51cCdnunVBDSCi5sHafnd4kCG+XtcaqTU6o/kd9VQMbTJ7SmauecnINAqMzSYr3x7G08P3GE09gRMf0mIK0Mjw51OrmjHlps/Zei04KnbXPJFVqDs8f3wu7zo3hdVy6ZoZZtnM2FsrIyMB18wFsOHhGavpMnA1RkJfHeqexnIpLlixBSEjpepAlzn1DuhEBIkAE0gmQ451OQsLfnZ2dwZzvdsZl0bu1Zr6scRlWFe8PN0bd6opISkrF3BUn0Lj9PNp6LF/0gG0HrmOqy0Gu9MQ5q2mf7nxyE+dizCnu43IJBw6dhOMoBzQ3yTpEXtk1G1N61sbqfReRk/vN44fj1qETnImNHeegATc1nd1i2UodMxzOwycv5h5mrTgSI4dY5rwGWtEAlmmO652zN/Hzj6b4sa9w01swD21n3VxoOPkf1biPvPgXOONxmztu5DAaddRyKgXUtBqGzp1GYurKlaiWqUzkc2/BAwhZawzqkfP6czZrb9p3skBw7Co8CciJas7tSvrZy15HEBcbA60KlSXdlGz6s32+2ZjIXrPW7sDO0xezlaEToifQyrgeBnRug4SEBEydOlX0DZBEIkAEiAAR+CsCWX9V/pUoqlxSBB49egQPDw/Iy/KwflL1AqlRSVMBvjsaYeu06lCQ5yEg+CtY6DlLFBb1M7ZAskpT4YOn7mH0rN2cyWOnL0aH7v1Kk/lSb6t6DTN0HrEQ8zZ/xMlLT+H+Pw/0yzQTfmXDMPQbvBZfE7Ki4MeGIzBIkMCwaWP9rBczf+LJQbt6tcxnhB53nWuPSsICWHhyMOqQFm4ecBwBX7NGrES9vMElX4O8LUzrFGybIX6mEHhTMyOh+slWsICjiwusWpkgc3q178FcgDtQyyKLQ/6nILkK1SDELf+zqNR8fvPSF++DA6ChoYWmFpZSY1dmQ9iYyMZG9nJcshmHL17PfJmOi4jA4glDoKaijJMnT+LiRXrgUUSYSSwRIAJEoFAEssYtFkoEVSpJAmwLq/Hjx4MlVpvaXxuGVQu3R/fQzhXR37I8ejgH4LrvLy5R2Inzj7F5iT16WNOWWJn7+Nodfwyd4sElpRs6bg669R2a+TIdSxkBhbIVoWfchftnY38Ne+bb4wJzrgNWYcOxNlhs9/v+4MkC6XfgtuF1sS0fLPi3H+BLgj1qKuZQWKYFLFsY5HDh9ynVWizcfBGu8f1x83kITCullecn4/UtL66gbPfu0MtJ/m8x2Y7iQn0FTjvPCHramV3qbEVzPCEnn1bHfz76NZufY5k/T754/QHWhn+fUf5PueL2mc12s5dl596QlZXeP8NsbIyL/YVdm5Zg1IL1qKxVHq1N6otbd0iVPpW1NDFrRF/M3bAHkyZNwvPnzyEvLy9VNpIxRIAIEAFJJUAz3pLac2l67969Gw8ePECVCgqYO1j3r6xRVpLFpdV1cX5FbWioyiA07AdsRmxAz+Hr8elL5F/JlpbKLAldrxHrudD8Xv+MRt8h46XFNLIjHwTUDdpigseZjBnaZ1u9EZFpZjj2k2/O24flJpunzO3JnWMRXlkoCJvtTq/Aws0HC7KbX/G5+zsEPiEQNw+/5ErZWTcpUJh5umjuXa4u1P9YW57leg4f2P7lgXdPZVzhErBlfBJ+oKwi/Q5CUlIirl88yUFo362vcBhScoWNkWysTEpJQf/pS+Af8lFKLBNfMyYM7AGD6jrw9/eHm5ub+CpKmhEBIkAEShkB6X3UXgo6MiYmJiOh2lIHXZRRyusXev6gWJmoI/xUEwxdGoxDVyPhefEprt15hZVzB2DkP625pDn5kyRdpcIiotDFfg2iouNg3rYzhk9Iy1wtXWaSNXkRKGOMgVM64/7a80DSW/xIACqkJR1TrlyXc8rv84yw8JQXTCvlvE93Xk0U6DoLN28zENgzF/wbpxH8nz23tjwm8K7gIYC8LZoXMMycaz85bUui5Ff4/l8yalbK/58LPk8Fek07ADfPo+Y/O+E2qWPhHf8CwRD/wveueyMmOgoGRg2hZyD9s/usR9hYGfblA+5cOw+bSa64sXMlKmpqiH9nSaiG8nJyWDPdAT0muMDV1RV2dnaoXFn6cglIaPeQ2kSACJRiAjTjLcGdv3TpUoSGhqJZHRUMaFew9Zt5mc3j8bB7jj6ebauHKlpyiI5JwJjZu2Fhsxgv/D/lVV3qrsfGJaDHMDe8//QdhvWMMd1lQ6l9ACFtnZsY6Y9rhxeiq/lwvM6clTsXQzPCqLOVSZux5fsjLCrTVHi2cqI9oWrQGtyu2ql38eCF4P4MuXeea0Shb3dULWCYOauoXLG2YG9zzpY/FrPnQ325NBTBgWGgXYV/A7t8VhBm3r5r/98npfyIZThnYyYbOz+ERqD31MWIjS/4d0rKMYnUvPbNjNG9jRmio6MzHtCLtAESRgSIABEgAgUmQI53gZGJR4X3799j9erVYA7ymvF63HtRaFanugpCDptgwRAdbuux+0+C0aTzArisPoW4+D937S0KDUpeJls/b+e4BQ+fvUMlnWpYsHo3FJXSV/KWvH6kwd8R+PZgM1au8QBSvHH+RmC+hCUnpWXflikD2UyBJjxFNaTvlO37PCBXWXHvbuP2PT/8EoX/oVgdLdLCzU/feQUePxK+Hne49ge3KWSYuUp5pD/Ou/soF1vig3Bs6UL43PPDz0y2KKpXFdj/+Co+5PJAg8f/CV+fcwj6GpUrL2m5aNayPQzrmaBtJxtpMSlfdrAxk42dbAx9/Ooths1bzeUmyVdlKlQoAksnDYOCvCz27NmDZ8+eFUoGVSICRIAIEAHRESDHW3Qsi1XSzJkzuS1DBrbThFkd1SJvm60f/3S0MRrUVERyMh8ua0+jUYe5YInGpP01zeUQTns/haqaOlzW7oV6uXR3RNotLx326bQdm7EXts9SNwTllcz/1wucYmHm7GVsBp1Ms8l8uepol7av9Z21G/FWiCy2BvrqioFYMqkT+o3anvt2YvnphvRwcwAp5x4jMOQx7oAPls3cpDBh5qxNRQO0Stuq7NnmnQjO5FRnVinq+VnsPOWBNZM64UbI7+3AdFr0EKyFT/HG7gtPMlfJchwb4Ik5cxwwsWddnA2Qfue7a58hWLPDE2plS1+oNRs72RjKxlLP6w8wy21Hlu8CfRAtgZq6lTG6b1fuAcf06dNFK5ykEQEiQASIQIEJkONdYGQlX+Hu3bs4cuQIVBRlsGRU2qxSMahVQUMBTzwaYccsPSgq8BD4Lhzt+i3HWKc9iPzx+wd3MahSbE1s2HEJbtsvQVZWHnNX7ISuXu4ZpotNMWpIdASUjGDnYi+Ql3QCE0cvwPOQnB3AuNAH2Dq9c0YCtQH9LPHnKu5aHYcJQrRTvDF55iZ8ysFhDb64Eu5PBKHoXYdYZZNRGOPUjNLCzeM3YtvK5QgBUNgwc659nhxMejlkcJk0f3uWRHLchZ8vsGfCCkEZI2e0NsyU/byMMWwdLLhrz1Z1x6GbTKM/Xr/8sWfITMFJxZEwNlD/owB9lDYCbAxlYykbU90PnsWmI2elzUSxsmf28H7QVFeDj48PvLwEuxyIlYKkDBEgAkSgFBGQXbhw4cJSZK9UmDpw4EB8/PgRMwdWQg8LzWK3qaF+GUzrVxn3X0cj5GsSHv2fvfOAiiJp4vgfFpYgCKIooAQJAgqKYs6KOacz56xnvFPvDGfWM+fTM56e8TPnMwsqooKooAICiqiAAQRBkCV9r2dZBEm7sAsbat5Tdme6q6t+PT29Nd1d/eQV9h27DWsLYzjamZW4PrIqkAWVGz59Nyf+1wUb0aB5W1kVRXJLmUBZm8Yw/bgdd4PSgGhfXD/+F+6/+wK19BR8/RSFd6G+8Dj0B+YtXIOgyAxOW/7AHVjUt27uiOQ6FqjpUgZnLt4CIm7j/D4v6FiYQUddgE8h93B2w0Ss2XtJaHG9xVj8c2tkGzTnzqfG+OPoyauAui06Du0OI3GCfasbQUtwGTeefMT7yE+cnBGTlqC6SWbkN2GJOf4vrBxeuRqobxSOS57PkRF2E6f3PkP5quWB5GgEXN+HCRMnQzQ5f8q63ahRgZ9DfqWajcF/vBuPIzPgd2UPnkXrwNhYD4LY93jqvgcrx/4s3LIMwOite1HfLH9dcwimLwpNoJJpFW7KOQu2dtXrEVwcrFHNsrJC2ySvyuto8cHna3CcHz16hHHjxlF8EnmtLNKLCBABpSeglsE2gqZDYQicPn0aPXv2REVDHoIOuEBPJ9sC01KwwuPxF/Rd+AIx8elc6R1b18S2P4fCorJiT8d+FvQODbouRmKiAIPHzsKAUVNLgS4VWaIEMlIRdvtf/D3zD/gXVLCaA4YsXo3e7eqgIH847ulRzBk1nRt5zkucdc/FmDtlFPLyi5MC/0GfYfMA9UbYcP047MT0R7PysQI1e2Hr9c2w/NGrz6ZMVvpCynl1eSUmzd+ULWe2j2oOGL9lN7rWzXvTMLXUD7iyaRI2/M8zW6ZsH1n+DbvRtWHe+bOlpI9KRuDw7o04sGMVdHW0cGvPalS3sVAyC+XDnJTUVNTuOwkv30Zh69atmDBhgnwoRloQASJABFSMADneClThqampcHJyQlBQEDZNscSE7qIwTqVvxKhVoThwNQbp6RnQ1eVj5ey+mDCslUK+WWfT5ut3XoSXrz+iVYdeXDTe0idMGpQYgdREhPl7ws/3IcI/fM4qVr9SNTjWaYwazo4oI+77rm8f8MzzCnyC2Lgwm5SujXIW1VGrbgNYmhQwrTr1C96EvUOahj4qW1Up0MHPUhAAWzseEfoa3Ox2DSNYWRXyjBCVo6aPyjYFlyOICYW3+xWEvI4DN0SvZQCrGk1Ru7Yzyhbg3Iv0iwl5gPteN/A2HmDj4nz9irB2bASn2hLwFAlTsL9paalcAEx1dXFvHAUzsBjqrlkwGTcvnYR1FRPc3rsG5crKPmZJMdRV2Kynb3ph4G8rYWxsjJcvX0JPjzgrbGWS4kSACCgsAXK8Fajq/v77b+5Nta0ZH/57a0GDpyZX2r948w0dZwUi/INw8yDXmlbYtXokatUouXXoxQXCIpizvbqveDzj9tldtf0kRTAvLlTKTwRUnID7pdPYvXkxBoycjk69M+MJqDgTkfnJ35Iwa1wvhAT6wa2hC85smK+QL2xF9sjzX7fRv8PLLxCLFi3C/Pnz5VlV0o0IEAEioJQEKLiaglRrYmIi11kydZeNsZA7p5vpVc1cG6GHXbBsdBXw1IGHfmGo22kh/lh9EklJirGT7+zlxzmnW9/QCPNW7iKnW0HaB6lJBOSZwLUL/0PMp/fyrGKp6ca2GWPPWvbMvX7vMf74699S00XZC140aShn4po1axAdHa3s5pJ9RIAIEAG5I0COt9xVSd4Kbd68GVFRUajroItezUs+oFreWuV9dtYAM0ScqI061XS4qefLNp6Dc5t5uHbrWd4Z5OTs8fPeWP33f9xoy9w/d8HYhIL9yEnVkBpEQGEJfIyKwGOfO+Dz+WjRrrvC2iFLxdmzlj1z1dXVsX7/aZy8kU88AFkqoQKym7pUR9vGdRAfH48VK1aogMVkIhEgAkRAvgiQ4y1f9ZGnNnFxcVi1Srhlz9JRihF8xqisJu5vc8b+udbQ4atx66XbDVyD0b/uwaeYhDztLM2TwS/fY+QvwgjmY6YtgnOdBqWpDpVNBIiAkhC48d9xZKSno2GLjiijX1ZJrJK+GeyZy5697JiweAtC3kRIvxCSiEUTBnPxBtjL/Hfv3hERIkAEiAARKEEC5HiXIOyiFrVu3TrExMSgRU09uNVRrB9u/VqVx6ezruhQryzX2e/5321UbzkH/ztzv6g4pJ6PTYPvPXYzEhKT0axNN3TrN1LqZZBAIkAEVJPAtfP/4wxv27mfagKQwGr27GXP4PjEJAyYtQJJ37gwgRJIoKSFEXCxt0Yvt8ZITk7G4sWLC0tO14kAESACRECKBCi4mhRhykLUp0+fYG1tzU0Nu7XJEY1q6MuimBKRefdpPHrNC0J05tZjbZvXwN8rhqGqhXGJlJ9fIcOn78K/xzxRxdIWG/ZehI5umfyS0nkiQASIgNgEnj32xqxxPVDe2AT7znpDTZ3edRcGLynxK6YN74S3r0MwqHMr7FxAWzkWxkzS68Hh71C772TuZXhgYCBsbW0lFUHpiQARIAJEoAgE6FdAEaCVZJaVK1dyTnenBgYK7XQzZo2d9BF1ui7GdzOGuroart56Bme3edi46wrS0oT7gJckW1bWnsO3OKebz9fCnD93kNNd0hVA5REBJSbAgqqxw63TT+R0i1nP7MUnexazZ/LBCzex7+xVMXNSMnEJ2FlUxuAurZCWloYlS5aIm43SEQEiQASIQDEJkONdTICyzP7hwwds3bqVK2LRyCqyLKpEZW+eWhUB+5xhbcJHYpIA0xceRr3Oi7go6CWpSGBIJCbPO8gVOWn2alja2Jdk8VQWESACSk6gioUNKpmao03nvkpuqXTNY89i9kxmxy+rdiLo9VvpFkDSMHtkP2jyeDhw4ABCQkKICBEgAkSACJQAAXK8SwByUYtgW36wbcS6NjKAi61yTX+2NtNG0EEXrBpvzm099vhpOBp0WYLflx1DYpLs1/V9S05BvwlbkZQs4Eaj3Dr1Lmo1UT4iQASIQJ4Eeg+ZgD2n76GypXWe1+lk/gTYM5nNFEgSCDBk9mokC1LyT0xXJCZgaVYRAzq3RHp6OpYtWyZxfspABIgAESACkhOgNd6SMyuRHGxtt6WlJed4P/i7BmrbKZfjnR1iXEIqOswKxMMXScjIyIBllfLY9udQdGhVM3syqX6ePO8A/tp7HWbm1tj07yWaYi5VuiSMCBABIlB8Amy995ShHRDx5iXG/dQJ62eOLb5QkpBF4NXbKNTsMxFQU8OLFy+4eDJZF+kDESACRIAISJ0AjXhLHal0BK5du5ZzutnabmV2uhktAz0NeG11wpH51tDVUsPrt9HoNGQ9WNCzj9Hx0gGaTcrZy76c083jaeK3JX+R052NDX0kAkSACMgLAbbemz2j2bN6+7GLOH9LfnbDkBdGxdGjahUTbtSbrfVevnx5cURRXiJABIgAERCDAI14iwGppJN2oUGkAAAgAElEQVRER0fDysoKCQkJ8NpaHXXt9UpahVIrLzU1HX0XBuP8vS/c6LeRoS42Lh6EQb0aS0Wn9x/juIBubC/xMdMWoseAMVKRS0KIABEgAkRANgROH96JnRsWooKhPrwPb0al8oayKUgFpYa+jUStPj+Dx+Nxo97stwcdRIAIEAEiIBsCNOItG67Fkrpp0ybO6WZ7X6uS082gaWio4+RSe9zZ7ICKhuqIiU3EkCk74dZvJUJevS8WV5Z59Mw9YE63S/3m6N5/dLHlkQAiQASIABGQLQH2rGbP7E+x8ZiwbItsC1Mx6TZVTNG/Q3OkpKRgxYoVKmY9mUsEiAARKFkC5HiXLO9CS2Oj3Fu2CH9YzB5cudD0ypqgvqM+3p2oi597VOS2HrvpGQhntz+wZtt/SE1NK5LZOw+648I1P+jpG2D6H+u4PUyLJIgyEQEiQATyIeD/0Avj+7XElbPCrcTySUanJSCgpqbGPbPZs/vSHR/sOX1ZgtyUtDACv438Cerq6vjnn38QFRVVWHK6TgSIABEgAkUkQI53EcHJKtuOHTsQExODJjXKcPtey6ocRZG7YbIVXux3hq0Zn4tqO2vZUbh2XIgHj15KZMLL1x8xfdFhLs/EmX+iQkVTifJTYiJABIiAOASuXjiKN2HB+BD5RpzklEZMAuyZzZ7d7Ji1fg9YYDA6pEOA7evdrWV9CAQCbNy4UTpCSQoRIAJEgAjkIkCOdy4kpXeCdXrr1q3jFPhtkFnpKSJnJVuaaCNgvwvWT7KAJg/wD3iLRt2WYsaSI0j4+q1QbVmk9GHTdiAxUYAWbXugRfvuheahBESACBABSQkkJX3FnRvnudk0bp37SJqd0hdCgD27m7ftzm05OWbRRi4OSCFZ6LKYBKYP7cWl3LZtG758+SJmLkpGBIgAESACkhDQkCQxpZUtgf379+Pdu3dwttZGxwblZFuYAkqf1NMEw9obo+OsADwITMK67Zdx9Nx9bF02DF3auuRr0eY91+DpHQLD8hUxYRbtV5ovKLpQagTYXroxn97j0/tIfImNQVxsDOLjPuML9499juHOf02IR3JyEpK/sX/fIBAkIyMjDWmpaUhPFy7BUFfngafBg5oaD3y+FrS0taGlrQMtLR2U0dNHWUMj6BsYoSz3rxz0DcrBwNCIO1+hkimMKlTipp2WGgwFLvjOtQtITkqEU+2GMK1CQapkUZUTZy2Hn68X7j4JwLZjFzCxbxdZFKNyMutVr4ZmdWrgtu8zbN++HTNnzlQ5BmQwESACREDWBCiquawJiymfjco6OjoiKCgI++dao3/rCmLmVM1k5+7GYOjyl0hISucADOjREGvn94dJRYMcQF6Ff+SimCcmCfDHqn/QsEW7HNfpCxEoKQLfkhLxOjQIUe/C8T6S/XuLqIhwbkry+4i3SEtLKSlVCiyHbd1UyawKKpqaw8TMApVMq6CSqQVMKlvA0sYe2jq6BeZX5Yu/je+Np4/uYdq89Wjbta8qo5Cp7fc8rmDJrBHQ1eLD58hmWFWuJNPyVEX4FS9f9Ji6GGZmZnj16hX4fL6qmE52EgEiQARKhAA53iWCufBCzp8/j65du8KiEh8v9tcCj6dWeCYVT5GWlo4Bi0NwxjMO6RkZMDTQxbr5/TGsb1Nuqid7mdGm/yqwwGxsivmspX+pODEyvyQIsNHryDdhCAsNQljIc7wKCcCrkOeIeve6wOINjPRhbFYOZcvpQd+gDMoa6kHPMPOvgS7KGpRBGX0daGhqQIOvAQ1NHjT5mtDQYH/Zd+EEptSUVKQIUrkghCmCFKSmpCGVfU9Jxdf4JHyJ+4qEuER8iU1AQuxX7m983Fd8+ZyAjxGfERcTX6CeJpUtUdW2OqraOsLKtjqsbOxham6l8qPkkW/DMLp3E2jp6OLgf4+ho1OmQI50sXgEVs37GR5XT6NFXWdc/GsxBcssHs6s3A0GTYN/cBh27dqFUaNGZZ2nD0SACBABIlB8AuR4F5+hVCS0atUK7u7uWD3BHNP6UOAvSaD6vkhA97lBiIoRTrVt1qAadqwcDnevQEyY/S8MDMvj76Pu3NRaSeRSWiIgDoEvcTEIePIQz/28uX8hAU+4KeA/5uXx1FHFxgRmFsaoWLkCjM2MUNGsPCpm/uVry8fokuCbAB8iovEhIob7+5H9ffcJEeEf8TY0CuyF148Hm9Ju61gL1WvW4/451nJVufZ2YPsaHN6zHm6d++KX+et/RETfpUyAtbvxfVsiLjYam2aPx+ieHaRcgmqKO3LZAyP/WM/NwHv27Bm90FDN24CsJgJEQEYEyPGWEVhJxPr6+sLV1RX6uuoIP1obejo8SbJT2kwCM/9+jU3H3yM9A+CzKGxq6hAIUvD7su1o1obWAdKNIh0CEW9e4dmjB1mO9tvXIbkEl69kCAs7M1jZVeb+WtqZorKVCbf2OldiBTrB1pK/C4vC6+BIhAdHICz4Hfc3+n1sLiuqWNpmOeI1ateHmXnVXGmU6cTh3Rtw+vAOzFu1B851GiqTaXJry+1r57Fi7jjo6+riyfG/YFKBYqMUt7LYdp2OPcbi3YdoXLp0Ce3bty+uSMpPBIgAESACmQTI8ZaDW2Hw4ME4ePAgpv9UCavGW8qBRoqrwtuPyegwMwBBbwScEfWbtsWCtXsV1yDSvNQJfPuWCD8fL/jcvYGHXje4ddnZleJracLWyQIOLjZwcLFGtZpVoVdWtdZBJ3xJxAu/Vwh68hIBj0IR8jQcguSca9bZenHXRq1Rt3Fr1KzbCNrayscoJUUADQ1NGiXM3kBk/HnRr8Px4M5V9G7TBPuXU0AwaeBeve84Fvx1AB07dsTFixelIZJkEAEiQASIAAByvEv5NmBRzKtWrYr0tFQEH6wJ84papayR4hd/2TsWXX5/Ab6WDrYfdUdFkyqKbxRZUKIE3rwKho+XO3y8bsD/0T2kpQhf5DAl9A11UcPVDvYu1nCsZQ0rB3NuvXWJKijnhbF15WGBbxDw5CWCHr/Es4fBiI9NzNKap8mHc+2GqMsc8UYtYV7VLusafSACkhD4EPUW4/q2hCA5Cac3zke7RnUkyU5p8yAQExcPu86j8C0lBQEBAbC3t88jFZ0iAkSACBABSQmQ4y0pMSmn/+OPP7B06VL81LIcDv1BPz6Li/ebIB3Ow/0Q9l6A0VMWoOegscUVSflVhED4y2Dcvn4Ot6+dwZuw79PH1dTUYFPDAnWaVkftxo6wqWGp8oHEJL0lWMC50Gev8ehuAHzvPEfos/AcezCbW9miWZvuaObWFRbW9ByUlK+qpz95YDt2b14MS7OK8D2yGTra9AK7uPfEpD+3Ys+pK5g4cSL++osCkxaXJ+UnAkSACDAC5HiX4n0gEAhgbm6ODx8+wGOjIxo76ZeiNspR9Lxdb7DycCSs7Wpgw77/wOPRennlqFnZWPHu9Uvcvn4et66dwevQwKxC2Kh2nSbV4dKkBlwaOUDfUC/rGn0oPoH42AQ89grEY89n8PV8nmM03NLGAc05J7wLKltaF78wkqD0BNLS0jBtWEe8DH6GGcN7Y/HEIUpvs6wNDHj1Bq79JkNXVxdsZp6hoaGsiyT5RIAIEAGlJ0COdylW8YEDBzBkyBDUstaGz86apaiJchQd8u4bao7wR0paBtbtPg97p9rKYRhZIVUC8XGfcf3ice7fyxdPs2Tr6euigVtNNG5bB071qyl8ILQsw+T8AwvY9vTBC9y96ov71/2QEP99Srp1NSe06fQTWnfqDX0DCpwl51VZquoFPX2EX0Z1gSaPh4dHN8PW3KxU9VGGwrtMWoAbD55gzZo1+PXXX5XBJLKBCBABIlCqBMjxLkX8DRo0wIMHD7BjhhVGdKxYipooR9FdZwfh0oM4tO3SH9P+WKscRpEVUiHA9nT3e+iFy6cP4o77xaw127p6WqjfygWN2rqgVkNHWqstFdpFF8LWhj+5FwCvq4/x4OZjJCYkc8LYmvCmLTuhfY9BqOnaSG6Cl7EZExuXz0DnXsPQon33ohtOOaVCYMOSX3H1/BG0b1wHpzbMl4pMVRbyn6cPek9fChsbGwQHB8tNu1PlOiHbiQARUGwC5HiXUv15e3ujfv36MNLn4fXR2tDmq5eSJspR7Hmvz+g5Lxi6evrYddwTBuXKK4dhZEWxCHyO/ohr54/i8tlDiHwbxslia7ZdGjugTc/GcG3uBA1NjWKVQZllQyA1JRUPbz3FtVN38fhuYNaacNMqVmjfbSDadOmLcuWNZVO4mFL3bV2Bo/s2o123AZg6d42YuSiZrAjEfY7G6D5NkJgQj+Pr5qBT0/qyKkol5LLYDNV7jkN45EdcvnwZ7dq1Uwm7yUgiQASIgKwIkOMtK7KFyB0xYgT27t2LGf0q4c+xtIVYIbgKvJwsSEfNkX54GSnA2OmL0b3/qALT00XlJxAa6I8TB7dzgdLYj0d2sL21W/doBLceDVHBxEj5ISiRhZ+iYnD99D3cOO0F0Z7h6uo8NGvTDb0HjYONg3OJW5uRno5h3eoh+mMUVu84jeq16pW4DlRgbgJnjuzGjvXzUbWyCXz/txlafM3cieiM2ARW/nMMi7YdRM+ePXHy5Emx81FCIkAEiAARyE2AHO/cTGR+Ji4uDmZmZkhKSkLgv86wNtOWeZnKXMCqwxGYu+stLK3tsXn/FfA0aARTmes7P9vYdHIfz5s4eehv+D305JKpq6ujXksnuPVsDJfGjhSNPD94CnKevUR5fDcA10/dhbf7U4heqtR0bYJeA8ejbpNWJTYd1tfLA39MGwgz86rYefyOghBUfjXTUlMxeUg7vH4ZhMWThmDG0N7Kb7QMLXwfHYtqXUaBvb4MDw/nfrvIsDgSTQSIABFQagLkoZRC9e7fvx+JiYloXbssOd3F5P8pLgUrDkVwUthoNzndxQSqgNlTBMm4eekUTh78G2/CgjkLdHS10KZ3E3Qe2IJGtxWwTvNTmb1IqdO0BvePjYJfOOSBayc8uRct7GWLuZUdeg0aj1YdekKTL9stpdhaYna06dw3P3XpfCkQYH0A6wvmTu6H1XuOY1jXNjAuZ1AKmihHkZXKG6JLywY4df0udu3ahfnzae28ctQsWUEEiEBpEKAR71KgXrNmTfj7++PIAlv0bk5TXotTBZM3vsLfZz+iXmM3LFz/b3FEUV4FIyBI/ob/Th7A0X+3IDbmI6c9m07eaWBLtO3VGLp6OgpmEalbFAKJCUm4evIuLh5yz5qGbmhkjL5DJ6Fjr8Hga0l/RtHX+C8Y3KkWUlJT8c+p+zA2oQjaRak7WeZZOH0ovO9ex5g+HbBx1nhZFqX0st19/NBp4nxUqVIFYWFhtE2n0tc4GUgEiICsCJDjLSuy+cj18vJC48aNUdGQh7D/1YGmhlo+Kel0YQQCw5NQa5Q/AHX8dfAGLKztCstC15WAQEqKAFfOHMH/9m7k1tcyk6zsK6PbEDc0aV+HtgFTgjouiglsWzLPy744u/86woLecSLKG5ug3/CpaNe9PzQ1+UURm2eeiyf2469Vv6N2/eZYuvlwnmnoZOkSCH8ZjJ8HteaU8DmyEQ5W5qWrkAKXzpbx1PrpZ4SER+Ds2bPo2rWrAltDqhMBIkAESo8AhdIuYfY7duzgShzeoSI53cVk/9vf4WBxszr0GExOdzFZKkJ2tnbz8pnDGNunKbauns053czh/n3jWKw58juad65HTrciVKSMdORp8Lh7gN0L7J5g9wYLfMbuFXbPsHuH3UPSOD7HfOQcebZ1IR3ySYC9iGV9A4sDMGfTPvlUUkG0YjtBjOwpjGi+Z88eBdGa1CQCRIAIyB8BGvEuwTpJSEhApUqVuPXdQftr0vruYrC/4x+PVtMCoKOrh90n79L2YcVgKe9Z2WiLx+XT2L9jNaLevebUNbcxRb8JndCgda0SC6Yl75xIv5wE2H1z/8YT/G/bRbwJjeQumlS2xJCxM9GifY9i3zcJ8XHQ0taR6kh6TgvoW3EJsO3FRvVqiKTERFzZsRxNXaoXV6TK5mdB1my7jATbTeDdu3cwNi7drfxUtiLIcCJABBSaAI14l2D1HTt2jHO6mzmXIae7mNzn7QznJLBASrRndzFhynH2oKeP8Ouobli9YBLndJtZVsS0P4dh7dHf0dDNpdjOkxybTqoVkwAbpWP3CLtX2D3D7h324obdS+yeYvdWcQ49fQNyuosDsATysr6h16CJXEkL/9pfAiUqbxEsyFqHJq5ISUnBgQMHlNdQsowIEAEiIEMCNOItQ7g/im7evDlu376NnTOtwKaa01E0AhfvfUb3ucHQNzTCP6fuQUe3TNEEUS65JcCmCO/dshw3Lp3gdDSsoI+Bk7qiZZcGUOfR+0K5rTg5Viw9LR3u5+/j0JZziP0Uz2naukNvDJ80B2wtOB3KSSDxawJG9mqE+NgYnFg/Dx2b1FVOQ0vAqjPuXhgwayWcnZ3h5+dXAiVSEUSACBAB5SJAjncJ1WdoaChsbW2hq6OOiOO1UUabV0IlK1cxbPpo3bH+8Hv5DWOmLUSPAWOUy0AVt4ZFKj95cAf+t3cTBMlJ4Gny0G1Ia/Qe1R7aurLdHkrF0auM+d8Sk3FyzxWc+fc60lLSwNfSQb/hU9Br0FiZREBXGbBybOjpwzuxc8NCONtZ4d6B9TRTpoh1xaL423YahY+xcfDx8YGrq2sRJVE2IkAEiIBqEqChoxKq971793Il9WlWjpzuYjA/6h7DOd0VKpqhc++hxZBEWeWNgPedGxjXrwX2b1/JOd0N3Wph86l5GDS5m8yc7rTkFHxLFECQnJLrn/B8mrxhIn2KSYC9wGGzJ9i9xe4x9oKH3XPs3mP3IB3KR4D1FazP8A8Ow7Grt5XPwBKySFNDA307NuNKE/2mKaGiqRgiQASIgFIQoBHvEqhGNkpbtWpVvH79GjfWO6JZTf0SKFX5ikhPz0CtUX4IDE/GlDlr0L77AOUzUgUtYgGQtq+dD4+rpznrLauZYdTMPqheV9bbwyXj0pjfsMunYOda3c4OzRo4ol5ze9SsYw5dHm0B+ONtKvgSh5g4AXdat7wRyuoqzoye5z7B2LPmRNYWZC3a9sC4Xxfnih0R/yUWm5fPQtsu/VCvqduPCOi7nBNgUe03LZ8Be6sqeHhkE9TVadyhKFXmF/wKDQdNh5GREaKioqCpqVkUMZSHCBABIqCSBKjnKYFq9/T05Jxu84p8NHXWK4ESlbOIYx4xnNNdydQcbTr/pJxGqphV1y+ewLifmnNON1+Lj2G/9sTqQ7+VgNMtBK2pV7gTnR4cDI8DZ7Fm7GoMrfcnLt2NUrFaKszcZNz4dQEmdVvM/Vtx7G1hGeTqOnvBs+rgLO7eY/cgewHE7kl2b2Y/3C+dhufNCzh/XDh7Kfs1+iz/BFifwfqOoLC3OH7tjvwrLKca1rSrCidbS8TExODSpUtyqiWpRQSIABGQTwLkeJdAvRw8eJArZUDr8rS2rIi82Wj3sv3CH/RsPSZPQ6OIkiibPBB4H/EG8yYPxLpFUxAfH4uajRyw4cRsdB3culSCp9Wa+DMO3FuDfR4rhf881+AQ+35lAZZs6I+mtpmPyoxI7Pp5GdbuC0TB4+TyQLkEdcj2AqM8vwTLlVJRLGAfu/fYPcjuRXZPsnuT3aPsXmXH1fNHuL9sxJsOxSPA+gzWd7Bjxe6j3P7eimeFfGjct0NzTpFDhw7Jh0KkBREgAkRAQQiQ4y3jimJbbxw9epQrZWDb8jIuTXnFn7gVg4DXyahoWgVuXWi0W5Fr+vyxfRjfvxUePfCAnoEuJi8Zgvlbf0bFyhVKzawyRjrQ1tJCmbK6wn+6WuCz78YV4NiiCaYdW4OVq7tk6ee14S/8fUK4p3jWSZX9oA4d3e9diZoCOt6iqmP3ILsX2T3J7k12j7J7dd+2lQgN8gfbQqxBi3ai5PRXwQiwvoP1IYGv3uLkjbsKpr38qNu3fXNuEOHs2bP4+vWr/ChGmhABIkAE5JzA919Lcq6ooqrHpmKxKVnO1tqoYaWrqGaUqt5sjXzWaPewKdDQoDVlpVohRSw8NuYTFv4yDNvWzOECWjXtUAebTs5Diy71iyhRetkyhMuTCxCoCZs27XHw7ERUz0x1c9lBPP+cUUAeVbmkiRaLV+CA5xoc8FyLqb0tFd5wdk+ye5Pdoyz42tG9mzibGrXoQHt3K3Dtsr6j37Dvo96sb6FDcgIWlYzRqKYDEhMTcebMGckFUA4iQASIgIoSIMdbxhWfNc3crfRG82RsoszFX7gXi2dhyVxU2jZd+8q8PCpA+gR8PG/i50Fu8Pa8Bj19Xfy6eiSm/TkCZY0UK9Cglrkjpm7pKgSUEYmTZ8OkD0sRJfI0ucjz2rp8KE5YtYJBs3uT3aPTVw7PWiJ0z+My2L1Mh+ISYH0Ii3D+PDQcF+94K64hpaz5T+2F0c1punkpVwQVTwSIgEIRoIWyMqyupKQknDt3jvvR1r81TTMvKurVhyO4rD0HjqXR7qJCLKV8bF/uPZuX4dyxPZwGTvXsMGXJEBhVKldKGhW/2PJN6qE7zoGN8zze5IE3/a1grpV/kLakyAg8ffwSsWploJ0Qh2965VHd1R6VjQuek80ihX/5mgYdIwOU0WLubDo+BoQg8MUHJKUAfD0DVGtgD7Ny2eWkI5KlefYBKSmpUCtjAIdGNWBeSFkiKmlf4hAaGI534XFIAZCaAhhZVoG9iyXK6eZvI5CCz5HxSNPQRDlj/Tycb9F1LZQzLpN5PRmvfUPx8mUMUpAKNX55ODSyF1tXkc6y/svn88FGRvk6fG7t94JfBqPrTyMxcvJc2vdb1vBlIJ+NerO+hO3rvW7fSXRuVvozbmRgpsxF9nJrghlrd+HKlSuIjo5G+fL0G0fm0KkAIkAEFJ4AOd4yrMILFy5wU7EaOOrCvKKWDEtSXtGeT+Nx99lX6OkbokOPQcprqBJa9jo0CCvmjkf4qxfg8dQxcHJXdBvqljV6qLgml4PbajecmXkdSH+IV5H9YW6lnYc5Cbi7+QjW7XmSxzWg/bwpGNbbDtnd5u8JhZHC2VZntefNwdwemjg6YxmOuqd+T5L5qc+a39DfrQoyPr/BwVlrcNonPY80c9DfzTTX+e8nEnB3xyms2/bg+6kfPg1YMxM93CzycKqBpGBvjOl7GFCzxco7U2Dzg5Oe/foG7ykwfOGLLQP3wueHMtjXPn/+hv4dquRxpXROvQp6I3x5OqETMtIzcGjzOe5Fkt9DT/y2dBssbexLRzEqtcgEWF9yePcGePkFwvPJczSpJVpAUmSRKpfRuJwBWjdwwdW7vjh58iTGjBmjcgzIYCJABIiApARoqrmkxCRIf+zYMS517xb0JlgCbDmSrjokHO3u+tMIaOvQGvkccOT4y62r5zBtRGfO6TazqogVB2ag+7A2SuB0C6GXtzTLop/0La/45nE4NWZultNt3bkTpq0eiakL+8EtM0L65aWbMH+LH/JbXi7a6iw18DG29V8idLrVTNFuVGf07F0tq/zjM0/gvn8A/m69Suh055VmxnI8eJtfSSm4v2bRd6db3QlDF43F0t1T8dvyHqibWdLhGatx5tGXrHLz/KCmnadjnpVWTRv+py5geKbTrW7njF4Tu+e0Z/ZK3Ar5lpWltD/0HdcJ2y4uhFuPxtw9zO5ldk+/fhnE3ePsXqdDsQiwvoT1KexYu++kYikvR9r2dmvMaXP8+HE50opUIQJEgAjILwEa8ZZR3bCgI+fPn+ccjT4tjGRUinKLfR6WiIv348Dna6FrP+GPJOW2WPGtS0tNxZ4ty3D68A7OmBad62Ls3AHQ0sl7XFfxLc7bgtBDx3Ewc+S51bxfML531SyHtFn3enDdsQurtgUiZPdOnKqzEP0a5/9yzv/4Ra6QhhNHYPTQ2jDkprV3QKtmlzFl2nkgIwSrh4ZkpRk3sjb0eWxaeAe0a3cDE8ad4q5duR2J+gNyBz5LCPDG6oNCR7fWxDGYNaYmvs/PsUW9dnXwv/4LcSwkHccPPEXn2o2zXc/b/nzPpj/F7mVPucvDNv6O9s0rZ474t0GHdh4YN074A97b+z2a2+bWNV+5Mr5QweT7M7yqgzm31/yOZYfhccEHK+eNR9AzX4ycNJe2OZRxPUhTPOtTThzYikt3fLj13tVtLKQpXiVkdWneADzeVty8eROxsbEwNDRUCbvJSCJABIhAUQnQiHdRyRWS7+LFi9w08/oOOjTNvBBW+V3edCKKu9S26wAYGObvmOSXn86XLAEWtXzu5P6c0832RR71+0+YvHSYUjrdWhZmaJqJ99mzTzlBJ7/FudWPuXO2o8bncLqFCbVQf+wIDK8rDEN2fONDxOeUkOtby1m/YMaYOplOt/CyWYsmGCTaXxxAo1lTuDRCp1uYxrh+w6xydHJJFZ749CxA+EG9EcaOdM7tVPPKodPs7lwagfsLfEguZiRoNVNMP7YaXbOcbmHx5evXy9L1oc87JAtPy+X/7EUSu7fZPc7udfaiid37rA3QoRgEWJ/C+hZ2bPkfzVooSq0ZGeijuasT2LapbGsxOogAESACRKBgAuR4F8ynyFdPnDjB5aVp5kVDGPMlBQeuRXOZu/cbWTQhlKvECAT6+2LK0Pbw9/WCobE+luyaio79mpdY+aVZUOIPM7ijfZ7gTqZCvfo4ZI1059RRF00ndONOZbw4hwcFTK3W6jwUYwZUzZmd+6aJslWEj3DtzgMxaYBdnmnKWRYcZ9yqzyjsPTsLS490QiVupDy3GJ1yepknkyHIa2Z97iz5nhnz72Q0sc1rTbwu7Jo4c/nSElJRzGLyLV+aF9g9zu51ds+ze5+1AdYW6FAMAqK+5fBFD0THFrKMQjFMKnEte7RuxJUp+s1T4gpQgUSACBABBSJAjrcMKksgEIAFVmNHz2bfpyjKoCilFbn93AckCzJQr7EbKlvaKK2dymDY9QvHMZpnZPgAACAASURBVGtcL0R/jIJDbWusOfQb7F2slcG0fG1IjojIcq6r25bNkS72tXCmhlq1rnA0yd/pNaxRLWv9dGpq/m6ma23T3KPQOUoE6tQ2zyeNJio71/4hde6veubmcLATThMVJCbic+QnhAeEwd/TH7f/88Hl84FZmfK3KCtJ/h/UXeFgJ3LicyfT0vs+yb1Y5eQWLbMz7F5n9zy791kbYG2BtQk65J8A61tYH5MsEGDXqcvyr7Acati1eUOoq6vj8uXLSEhIkEMNSSUiQASIgPwQoDXeMqgLtt4pPj4eNa21YWXy/YekDIpSSpEpqRnYdkbovHTvT5FS5bmSD+5ch0O71nIqdhrQAsN+6QmehqK4TMUgmy24eBn9nOvXeXxhm9esrJNPxHJRueowyPzIpqu3dygjupDjb4YYQ8wFpmH7ghV6pOClxwOc3XIUd0JyR0UvNLvYCZKRkf87BrGlyDphakoa9q07iaYdXGFfq/CXSIYVDLBoxxTsW3cKFw97YN3iqYiKCMegMb/IWlWSX0wCrI/xvnsdO45dwC9DekJTg34WSYLUpEI5NHS2x90nAWBL7Pr27StJdkpLBIgAEVApAjTiLYPqPn36NCe1WxMa7S4K3hO3ohEZnQZLa3vUbtCsKCIoj4wJpKamYO3CqZzTra6uhtGzf8LIWX1Uw+kG8CEkTEhYzRTG5bNPm05GqOdD7lra10LWQmsZo1pL4Y/8jB+mq8u4+nKKT4zAgTEzMGvakSyn26lVY/Sa2BvT1ozF0n9/x/y5LjnzKPk3n1v++O/ILexYflRsS9kLJ9YGWFtgbYK9kGJthLUVOuSXAOtjWF8T+SkWJ294yq+icqxZ98zp5qdOCQM5yrGqpBoRIAJEoFQJkOMtZfwZGRlZQUa6Ny0nZemqIW77mfecoV37jlINgxXMyoT4OPwxeSBu/HecC5z22/qx6NBXNdZzC6vqE67OuS38qF4DlsbZR/i1YFXPibvGK8MiixdwpMXgdea+3NplsssoII/UL6XAY9narL2/WeT07Z4bsHDdAAwc0xJN3Zzh4FwZ9q7CtddSL15OBd48e4/TrHX3hhJryNoCaxMsABtrI6ytsDZDh/wSEPU1u45fkl8l5Vizzs3qcdpdunQJqanZpgPJsc6kGhEgAkSgNAiQ4y1l6t7e3oiIiIBFJT5cbPOeOirlIpVKHNtC7M7Tr9DR1UPL9j2UyjZlMOZ9xBvMGN0dfr53uYBSS/dMg2tzoaOpDPaJY8MHj/sQbvAFNJ7tgh/j7fMyZ54XOuKdnIwPmQU6VKsgTtHST/MlDNcvCofbG2VGTi+vm/slQLoK/ZiOi/6CR3cCuGjlzTq6Fok5axOsbbCga6ytsDbD2g4d8kmA9TWsz/F8HMBtLSafWsqvVtZVTFHNsjK3pZinJ80akN+aIs2IABEobQLkeEu5Btje3ezo2oj2sywK2u1nha5I6469oaNLLy6KwlBWecJfvsAvo7vhTVgwLGxNseLfGWB7GqvSkRr5DFumZY6KqbuiV8fce//yDfU5JGnedxD0Mf8FzQmhIfApZXhJ7yLxnOmg7oQe3a3y1SY1XrjPd74JlOiCxwVvpKeno27zGihbTliXRTGPtQ3WRlhbYW2GtR3WhuiQPwKsr2F9Djt2nqRR76LUUMdmdblsot9ARZFBeYgAESACyk6AHG8p1zALLsKOjg3J8ZYUbeK3dOy/KtwHt1PPIZJmp/QyJBAa6I9Z43siNvoDnOrZYek/01HBRLViGMQFPMSsTn8LHVUA3dd3hZVu7unkZo0bCqOVZ0Ti7MWX+dRKMu7sEe4drFatI1wdsq8TzyeLTE6LEUjqy2vsHqU6azdF08xbdRNuk1Qc7KyNsLbC2gxrO6wNsbZEh/wREPU5hy7cxNck1XnRJK2a6NhUON2cHG9pESU5RIAIKCMBcrylWKtRUVHw9fWFrpY6WtbKucWQFItRWlGHb3xCfGI6HGvWg5Wdo9LaqWiGBfj54Peff0J8XCzqNKuOOZsnQFdPR9HMKJK+gsQEvPUPwOmlmzFq4F6EZ0ppNGsKBjb/cZJ55kVdC3QcKRwJf7xhE07cEk0oF6mQAr+9B7Arc313t58boLRe02lXMAKnafpTnD4WIlIw62/qx1Bsa7Ema+s0QAtquWeiZ6VX9A+hz17jTWgUDIz0UadZDamYw9oKazOs7bA2xNoSa1N0yBcB1uewvic+MQnHrmbGcJAvFeVam8Y1HWGor4fAwECEhobKta6kHBEgAkSgtAiIMdxRWqopXrn//fcfWHC1li5locWndxqS1uA/Fz9yWTrSaLek6GSW/onPXSyaMQzJSYlo1NYFU5cNh4am8nleXqvWYMZNO2TEfgXAljh8RUZwRJajnQVY3QnT9/VDE6eCXeVaY0egx60lOB2SjsNTl+DZ4F7o1c4Guilf4LV/N05lOt26fYaib34OfFahsvugZlwVnVtqYJt7Krw2bMKit93Qu5czKmin4M3DJ1i5TLi3cYM+9XD/uDeQ/hCv3/SHpa1sR+gLDUwnIySPvAI4yc071wOPJ71nOF9LE7PWjsXGuXvhdfUx5k4ZgAVr9qFW3cYysoTEFoUA63sC/Lyx78w1DO/WtigiVDaPhgYPbRu54NiVO2Cj3lOnTlVZFmQ4ESACRCA/AuR450emCOcvXLjA5aJp5pLDe/HmG+4HCIOqNWndUXIBlEPqBLzv3MCy2aOQIhCgZdcGmLhgIBdwSuoFlaLApLff96wO8w7OVxOreo3RfnATNG9uAeEu3fkmFV7QqoDBB/6A4eLl2HsxBX4HTsLvQM48jaaNx6RhNfKVJ8jULVrwXcecEgBx0qQJvnDZ8pajBbdlMxE5dSUX2dz/+Fmwf9mP9vNmYEzvsth23BvXAXz5lse6dVHwtYxvyOMqUNj1zAJFuqa8S8lbTnbFZPC5z+gOqNvMCXoGulKXzl5YTf9zBLS0D8H93H0smD4Ic//cjXpNW0u9LBJYNAKs79m2Wg/3/YPw4vU7LmBY0SSpZq4OTetyjjcbhCDHWzXvAbKaCBCBggmoZbAhWjqKTYBtoWFkZIT4+Hi8PFwL5hXF+nle7HKVRcCcnW+w+kgk2ncfhClzVimLWQprB3O6F88cjvT0NLTv2wyjf/8Jamq51zMrrIGZin+JfI/YhHy2v0lNA7R1YFjeAGXLZoYql9jgdET6P8eDe6/wNVmYuUx5U9Rq6Qgr04KDByZEvsfH2FTomxijQrm8yxel0TExhkk+aQSfPyEqKhl8k/IwKZffSHUK3j54Bp8Hb5DI1ExOAd/MAq4tnVDVVJgn7k0EYr6po7xFJZTV+uFeSEvEu5efkQYdmNgZIZe2hV3P5CrSlWdoiMqF8JG4KuQkA+tyd604hstHb0NdnYf5q/eS8y0ndcPU2LhsJq6cPYRfhvbE0knD5Egz+VflQ0wsqnYcAW1tbXz+/BlaWvQ7SP5rjTQkAkSgJAmQ4y0l2nfv3kWTJk1gb66Fp3trSUmqaohJS8uAVX9fRMWkYc3OM3CsKYyOqhrWy5+VbHo5G41jI91dh7TGsF96yp+SpBERUHAC+9adwrn9N6DJ52PR+oM07VxO6pOtv58xpjtMyhsi+Pxu8HjKt7RGlqgbDp4GvxdhuHbtGtzc3GRZFMkmAkSACCgcAektYlM406Wr8NWrVzmBbVwNpCtYBaRd9o7lnO4qlrbkdJdyfbMfnWxNN3O62Ug3Od2lXCFUvNISYG2LtTHW1libo4Br8lHV7MUv64uiomNx5d4j+VBKgbRo3cCF01b0m0iBVCdViQARIAIyJ0COt5QQizqZNnXJ8ZYU6aFr0VwWt04/SZqV0kuRANvmaP70wVwgNbamm00vp4MIEAHZEWBtjLU1FryQtT3aakx2rCWRLOqL/vefhyTZKC2ANg1qcxxEv4kIChEgAkSACHwnQI73dxZF/vTlyxfcu3cPPHU1LqJ5kQWpYEa2d/dZz8+c5S3a9VBBAvJhcvjLF5g7pT8SE+K56OUskJoyrumWD9qkhbwROL3vGiLC3pe4WqyNsbbGdgxgbY+1QdYW6ShdAqK+6Jz7fdrTW8KqaFzLEVp8Ph49eoRPnz5JmJuSEwEiQASUmwA53lKoX3d3d6SlpaGhoy70dGg9mCRIT9+JQZIgA9Vr1UclsyqSZKW0UiLwPuINZk/ql7VPN9syTF2KWylJSU0SQwRkQiDY7xUObDiD+WM2IiO95GONsrbG2pxon2/WFlmbpKP0CLC+iPVJSQIBznrcKz1FFLBkbS0+mrg4clursnXedBABIkAEiMB3AuR4f2dR5E/Xr7NNdoDWtL5bYoaHrwunmbdsRwG8JIYnhQwJ8XFYMH0wYqM/wKmeHWasHq2U+3RLARWJUFICN87e5yxr2aUB1NR/iNZeQjazrcZY22NtkLXFBdOHgLVNOkqPgKhPOnrpVukpoaAlt24gDDB748YNBbWA1CYCRIAIyIYAOd5S4OrhIVwH1qo2re+WBGf0lxRc8YmDuro6mrbpLElWSisFAqmpKVg2azTehIXAwtYUs9aNAV9LUwqSSQQRUAwCguQUeF725ZRt1a1BqSrN2h5rg6wtvgkL5toma6N0lA4B1iexvunqvcf4FPuldJRQ0FKbuzpzmot+GymoGaQ2ESACREDqBMjxLibSmJgY+Pn5QYuvjvoOBe/LW8yilC77qdufkZ4O1G7QAgaG5ZXOPnk3aOPSGfDzvQtDY33M2Tweuno68q4y6UcEpErg/o0nSExIgp2zJSpXNZGq7KIIY22QtUXWJlnbZG2UjtIhwPok1jelp6fjrLtX6SihoKW6VLOGnq4OXrx4gaioKAW1gtQmAkSACEifADnexWR6+/Ztbi1TQwddzvkupjiVyn7yVgxnb9PWXVTKbnkw9uDOdbjx33Fo6fAxd9MEVDAxkge1SAciUKIEbmZOM2/VrWGJlltQYawtsjbJ2iZro6yt0lE6BER906kb5HhLUgMaGjw0qGnPZbl1i6bqS8KO0hIBIqDcBMjxLmb9ssBq7GjuUraYklQre9zXNNzwjeem8jVs0U61jC9la69fPIFDu9ZCXV0Nv6wYgaoO5qWsERVPBEqeQHTUZ/g/CIImXxNN2ruWvAIFlMjaJGubrI2ytnr9wvECUtMlWRFgfRObbu7+wA+x8V9lVYxSym1WpwZnF003V8rqJaOIABEoIgFyvIsITpRN5Hi3IMdbhESsv2c9Y5CWngHnOo1R1oBGW8WCJoVEgf6+2Lj0V07SyN/6wLW5kxSkkggioHgE7l57xEUxb9DaGWX05W+ZBWubrI2yY+OyGWBtl46SJcD6JtZHpaWn4/xtYRC+ktVAcUtrWkfYt9CIt+LWIWlOBIiA9AmQ410MpvHx8dz6br6mOho66hVDkuplPZU5zbxJKwqqVlK1HxvzCctnj0FaWgo6D2yJDn2bl1TRVA4RkDsCXQa2woK/f0aP4W3lTjeRQqyNdhrQgmuzrO2yNkxHyRIQ9VFnaLq5RODrOtpCR4uPZ8+eITpauHuJRAIoMREgAkRACQmQ412MSr137x4XeMXFVpvWd0vAMelbOi77CKPENmrZQYKclLSoBNJSU7Fi7nhEf4yCQ21rDJ3eo6iiVCKf4MtnvPR9Du9rj3DP4xG8PZ4j+FUMBCphvWoYybYOc27gACv7KnJt8LBfenJtlrVd1oZZW6aj5AiI+igW3TzxW3LJFazgJfE1NVHPqRoXA8fT01PBrSH1iQARIALSIaAhHTGqKeXu3buc4Y1r6KsmgCJaff1RHAQpGbCvURtGFSoWUQplk4TAni3L4O/rxUVLnrFqJHgaPEmyq0za1M8RuLz7JP45GJS3zWq2GLa6O9q7WYGfdwqFOiv4EoeYOOHrBN3yRiirS/eFvFUga6uszc4YuJJrw6wtj5m2QN7UVFp9WB/F+qqgZ49w0/sJOjerr7S2StswFmDt1sOnYIMU3bp1k7Z4kkcEiAARUDgCNOJdjCoTOd6NyPGWiOIFr1gufb0m8jvFUyKD5DzxravncPrwDqjz1DFz1WgYVqD95vOqsqRXvpjV+s8cTneDPi3Ra3AT1LXNfFRmhGDfjLUY/sttxOclRKHOJePGrwswqdti7t+KY28VSntVUpa1WdZ2WRtmbZm1aTpKjoCor/rvjk/JFaoEJTVwFkY29/KiqPBKUJ1kAhEgAlIgQI53ESGyvT1FnUljJ1rfLQnGC/eE24jVb+omSTZKWwQCr0ODsH7JdC7niJm9Ye9iXQQpKpAl7T329voH4Zmmtp/3M/bc24SZc3tj4K/98fuxjdhxdCLcMh1wwc2j2HniteKD0VPLsqG8MgzhZ1mjfB9Y22VtmB2sTbO2TUfJEBD1Vf/dflAyBSpJKfVqCB1vHx8fpKWlKYlVZAYRIAJEoOgEyPEuIjsWMIQFV7OqxIeJEf1iFRfjo+CviIxOQ3ljU9jYU0RtcbkVJZ0g+Ru3JlSQnIQWneuiYz8KppYfx4grHrieebH7mj8wprcDymp9d0rZJSM7R0w4MAedMtPdXXYaQZ8z8hOpAOfVoaP7vQtQU5HH2J1LDxEXLYwxoQCVlENF1oZZW2Ztmq33Zm2cDtkTYH0V67MiP8XiUVCo7AtUkhKMyxmgamUTJCQk4OnTp0piFZlBBIgAESg6ge+/uoouQyVzent7c3bXdyyjkvYX1egL9z4LuTVtU1QRlE9MAns2L0P4qxcws6qIsXMHiJlLNZMJvmaGTeO1QSe3AuIOaFVCr+1dhZAyQnD9fpQCA9NEi8UrcMBzDQ54rsXU3pYKbIt4qn+MiMbGOfu4qfUpAsUMUsbaMmvTrG2zNk5HyRCo30Q4Q4umm0vGu75zNS4DW+dNBxEgAkRA1QmQ413EO+DBA+GUs7oONM1cEoTXvOO45K6NWkmSjdJKSMDH8ybOHdsDHk8d0/8cDi0dFRnOlJCTMHkK3gVGcB/5LYxRWIs2dK2HEX1aYtyaqRjQvAAnvUi6lHAmnia0dbWgrcuHKoRVu3nuARdluV4rZ2jyFTO2KGvLrE2zts3aOGvrdMiegGvj1lwhN+8/ln1hSlQCOd5KVJlkChEgAsUmoJi/PIptdvEFiEa865HjLTbMhKQ03Av4CnV1ddSq21jsfJRQMgJsr9/1S6dxmQZO7oqqDuaSCVC51Jqo7GAG4A0E7hGIScuAKS/nNPMcSHjl0HmucK1tjvN5fknGW99QBL+MQQqA1BSgokNVONeuDK0804tOpuBzZDzSNLRQzriM0ClOjkPAvQC8TzVDYzcLLqr614+fkZSaAb6BQYERyVn08i9f08Aro4dyZbO/hBGVo4lyxvoFO9/JCXj5JAQhobGApgbU+Nowd7SGnZ1RwfkyTUr6+B6BPq8QGZsKDaRCrVx5OLjawdxYW2S0TP9mZGTA/dx9roxWXRvKtCxZC2dtmrXt/RvOcG39r4PXYWhUQdbFqrR81mexvuueXxDivyZBv4yOSvMQ1/j6Tg5cUtFghbj5KB0RIAJEQBkJkONdhFpNTk6Gv78/1NXVUMeOppqLi9D98RekpQOONV2hW4a2YBOXm6TpNiz9Fcz5dqpnh25DKYCdOPx4mpmp0j1w8kJD/Nyt+Hs7JwQ/xa6+23EnLwXUXfHHmYGoVSW7E/w9YVKwN8b0PQyo2WKt9xQYPLmLxaOOCIO/qZnC7M5sVONFYnO7P8HiLBtOnIJdY+y+C8jxKZGLXr7LJw26fUbg37l1sq5mL2flnSmw0c37hcNHX0/8KSo/K7fwg0a9lvhjUWfUMM3PgU7Egx0nsGpb3oGpWs76GWMHOMh8e7bnD0Pw4V00KpgYwqm+cPrrD6Yo1FfWth95PsdT72CwNr9w3T6F0l/RlGV9ln2NOgjw98EtX3/aVkzMCnSysYQmj4fAwEAkJiZCV1dXzJyUjAgQASKgfARoqnkR6vTx48dISUmBowUfutqEUFyE13yE08xr16cgX+IykzTd+WP74O15DXr6upiyZAjU1PJ2pCSVq+zpzds2R/VMI28uWInVW7zx/kvmuu8iGB/nfwvDRU63mil6zxqGhbsnYepM4XRVpD/Ekm5rcDeskOBYasaIf/IAo7M5vdadGqEic5C1TNBqkHA2Q+z254jOR8+Mz+9w10cYUbhHu6p5p1LTznfU+s2105ggKl/NFP0XjcSCLSMxeFBNTlaqtzsWdF4Hv495RS1OwKXpc7Ocbn6rtpi2ZRIWbBiGzi2F733dV/2FcWt9kZy3ZlI7e/OscLS7ZbeGStEuWNtmbZy1ddbmWdunQ7YEajdowRVwnaabiw1ai68JB2tzsJ1gnjx5InY+SkgEiAARUEYC5DUWoVYfPnzI5aprX9hq0CIIV+Is1x6KHO9mSmxl6ZkW9S4cuzct4hQYN78/jCqVKz1lFK1kXQv8+u/gLK3v7/4XP7f4FYuWnYX79SC8i4yHIE3MCObJEfhn6DFOlrpdC6y5/hsGDKgLpzr2aDawJ47cmIVObFuyjEis630e7wuSm+6FhaMOcLKs+/TFXx4bsGppKxgKpaN667pCndOuISgs7xcFH/2e4TlLpe6KOjWEOYWZCv8/42Mg1s8UxntXq9YG6+/MRp9uteHcpDZ6zBiDvUeHw4KJyYjEmh1P8KMGYWdOY5e7MIhZ9z9n4NC6bmjaxB7OLepixPq1WLlQ+CIi/sA/2H/9Q+EKFTHFt8Rk3L32iHO4W3WpX0Qp8peNtXHW1tnB2j57BtAhOwK16wv7rhv3yYGUhHItB+E2lr6+vpJko7REgAgQAaUjQI53EaqUjXizo5YtTTMXF9/7zwIEvUmGjq4u7GvUFjcbpZOAwJYVv0MgSEazjq5o1IYYS4COS2rg3IBzigd3+j7N3P/4VWyZsQVTO83BwLpTsHnLbYREFjxK/ebSDeH0cjVbLNzeG1blcoYt0yhnjqGbRgrVS/eA+/3YQlVtOHE8ls5thkplc8rSr+GAppm5vbwi85CTgoArt7nzur1qwjyfqeR5ZORO+Z+6Lpzeru6EZTu75cqvZ+eKn2e6cGkTT1xC2JdsLyeSI3B6oXCU2WXaFAzp8GPUdHXYdO+OmZmj9pd+98l31D4//cQ973X9EQRJAjjUsUYlc2NxsylEOtbWWZtnbZ89A+iQHQHWd7E+7MXrd4j6JNyhQ3alKY/k2uR4K09lkiVEgAgUiwA53kXAJ3K8XcjxFpverSfxXFpH5/rgaVBoAbHBiZnw+oXjePTAA3oGuhgxQ9zAX2IKV6FkzCnusew37D45DWMmtEK9ujkfkR67j+L3TjOxZZ8fEvPkEoe7B4RbDbpM7Ybq5fKe6q9h6pzlcJ45/rTgadbqLTBkZPW810BrmaBZpuN673QQhK0sm2KJkfC6KByH7tHJNt/p5NlyfP+Y/BYXtwVy32uNb41qZfO2xbJtM7Tp3BKTNgxElWxpop88Fb6AUHdC35623+Xm+KQO137thWdS/8PjwIJfauTIKsGXpu1cMX3FCPw0uoMEuRQnKWvzrO2zZwB7FtAhGwKs72J9GDvuPH4mm0KUUKqLvbD9P3r0SAmtI5OIABEgAuITyPmrUvx8KpsyLS0NT58+5eyvZUNBQsS9EW49+cIlda6j2NGExbW3JNPFfY7GzvULuCLZD/CyRhS4rrj8DaraoP3YXvht50Yc8liKtbtHoWe2kXD3DTsxrN9FvE/ONsLLCk38glch6VzxLq4FbTWmjkpW5cVSs8OyJqiUb5R1ddi3F043zwj2QXBUznXWsU8DueBrbJq5a3UJ74tsU+BrN2JR3/M+NIyrYfzS3mjZ3ArZn4ixIW+4DGq2djkc8h+laFQsj8wJ8z9ektp3TS1NNGlfBzUbCiMsS02wnAhibV70wo09C9gzgQ7ZEBD1Ybd9hb8DZFOKckmtaWfFRYRnv50Egh8XpCiXrWQNESACRKAgAjT0WBCdPK4FBQUhKSkJVpX4KFsm57TPPJLTqUwCt/2EjreTCzne0r4ptq+dj/j4WNRs5IAWSrR+VdqciiqPX9YAlnVcuH9dhgfg0Jy/cT0kHRkv/sPOI46YNyxbwDKeGkSxvfcO+R17xShU4BGKqOSmsNTKY0RZzRbNG5sUKEWvmnC6+Z2MSNx7/AF1Ophmpk9H0C3hshjdXnVQJS/5BUhOevdG6LSrmcKiksiqAjL8cInHF26YlvHiFIbWPvXD1by/Bj77BDeH71P9805FZ/MiwNq+x0Vv+HkFgj0TZi39K69kdK6YBER9mOcjLnJCMaWpRvYyOtqwNTflpug/f/4cLi7C5SmqYT1ZSQSIABH4ToBGvL+zEOuTKCpnLdvsYztiZVXZRDFfUvAsLBl8vhbsatRSWQ6yMNz7zg14XD0NvhYf4+f2k0URJDMbAQM7R0zY92vWCO3jzX6IzjYynBQenvf2Ydlk5P7IR74PYjVt8At7Pcqmm4/kQpzhzpWQ71Pgk6PgdVA46tyjk5Vk08yzK6lmBoOy+WqYPWW2z8kI9RQGoWQnhdplu5zPRy16mZkPGfFOs2cAexawZwJ7NtAhfQKsD2N92fPQcETHCl8oS78U5ZNYw0b4FBDNGFQ+C8kiIkAEiEDhBAr7SVe4BBVL4efnx1lck6aZi13znk8TuLQOTq7Q1Mx732KxhVHCLAKC5G/YumY2933ApM6oWLlC1jX6IEMCuhb4aaYLfFY/BjKiEJsMlM98D6dTuQrnlPuomWLOxRmoY1IS97s67Fs2APaEQ+Dui7DPTbm15QkvQjLXWLuinqTTzBm+VGE0cmREIPpzOixNJJnhowWrek6A+2PYDB6D5b/WLLrjL8OqVDbR7BnAngX71p7ing3b63mAryX5bAVl4yJNe1gfxvoyP9+78PILQJfmDaQpXmllOdpY4NQNLzx7RmvjlbaSyTAiQAQKJSDpMEahApU9AZsmxY7qVjTiLW5d33+e6Xg7y3olDigbDAAAIABJREFUp7gaKUe6Ewe240PkW1hWM0PnAS2Vw6hSsELwOQK3D51CH9fteJE9KncBuoimUedOkjldPCMSH2OFa71zp5H+Gb1q9nBjYjNC8NA/hivgtZc/91d/YB2YSTjNnGXUNjEV7m3O2ZLCyZLkP17mO4ewF7HIdOElyS6VtAEPQ5CcpFprStmzwMq+MvdsOHlwh1Q4kpCcBBwy+7IHT1/kvEDf8iVQPXPEmxzvfBHRBSJABFSAADneElayqNOoYUWjCOKiux8gjLXs4FRH3CyUrhAC0R+jcHTfZi7VqJl9oM6jplwIsnwvf7p3AxtX3wDSn+Kqe1S+6bJfSBMkZ37Vgkb2gWAtHYhCqj19lNf2Xt+lJL16gXt3w/H1xwBt35OI/0nLGPUzp5tfvf0OQAL8twVx+Xu3Lto0czXdMjDK1MD7fgG2JL/H6WUn4H43HF+y2cI3FAaPS/MJwJsCX2gkwv/aI4RFfhXfXjFSJn39hiUTt2J0m9n4Gp8kRg7lSMKeBSMzdzb4395NYM8KOqRLQNSXPfAXtjHpSldOaTVshNsJ0lRz5axfsooIEAHxCNCvdfE4calYULVXr15Bk6cG28o6EuRU3aTp6RnwCRJuvGTvRHtLS+tO2LtlOQTJSWjoVgvV69pJS6xKyjFr3TprL+ybiy4jLPGHSOU/Ukl8g3NsmjkAXl1rmGQfTeZVQIvMfa291lxBaL6ykuGxfCvW/Lwaw4feLHg7sR/Lz/N75nRzFlj91Cu8ehWGB8gAi2ZeqyjTzFkZWiZolLlV2eNNHnidzanOrkLskyc4cNwdW35eDa9XohcSgFnjOsK18OlPceRCWPYsOT4nBTzGopl7MKPT77gcKD3n2/OyLwSCFNg4WaGMvmo9r9kzgT0b2DOCPSvokC4BUV/mGxCM9PSSm9kiXStKVppNZVPwNTURFhaGr1+l185L1goqjQgQASJQPALkeEvALzAwkOtkbavwoamRRwRiCWSpStLnr5OQkJSOSqbmMDSiNcjSqPegp49w49IJ8DR5GDq9hzREqrYMLTP0Xd5MyCD9IWYNP4FnYXn/MEyKDMWeqWuyAqj1GlQDwtjd3xFad2wunKKd/hRzpl1FRB4Oa9h/F7HLR7j1V/uxTrlkfJcm/ie96pnTzdOuYe/y8wgHUNRp5sJS1eHSO3MJQ/pDzJ7tniOQHJfmyxscHneO+6hWrSsaO2SbCaRrga4ThNt3PV61DidufchtTGIEDg88nFlcC9S0k94SHvez9zi5rbqq5hpc9mxgzwj2rGDPDDqkR4D1ZaxPS0hMxvNXwgCG0pOunJI0NHiwszBFRkYGREv2lNNSsooIEAEikD8BcrzzZ5PrimiaeXVL6f04zFWIkp24H/A9sJqSmVYq5rAfLdvXzefK7j7UjQKqSakWzDp2x+TewkXJ6cEeWNDzd8yadwJXr/vj6YMgPPLwwdGlmzGk0wZc9BGOcOkPHoGezXPvxa1Wzg6Tt/fkNEvzPocpjTbh7KUghL+KwssHj3Fw+grMmCOMOM2r3xP93EST04tpDK8SGmdON3/mw6abA0WdZi7SRKtqfaycK3RcBTdPYlz9Hbh6PQivAsJw99A59GmxCtczE49f1Bw/7hReY9RADKor7GYOT12CRcuu4mnAO7wLDofX8fP4pcmfuJiZf/iudjDNd79ykUbi/Y18/R6BT15BR5ePhm1Uc+siFmiNPSPYwZ4Z7NlBh/QI2GcunfJ+StPNxaUqWudNjre4xCgdESACykaAoppLUKNsD292OFhkG9WRIL8qJvUNEo4c2lVXzR+/0q5zj8unEfTMF4YV9NFrZDtpi1dheVpoMW81rJrdxu5px8FCKL684I7tF9xzM1EzxYDlA9C1Q1XkF7PcuH5r7P63DBYNPYDwjBD8O3sL/v1Bkk2fXvhlestcziqXLCui+DcIx8V/yJzP12pthNHNucviTDMXoxybPoOxpowhZsy5zK2D3z7jac7S1UwxevsYuGUf7Ral4JVDz78Xw2D9fmw9GAT/42e5f6LL3F+Wf8todKhdNsfp4ny5ee4Bl71xe1doaedXS8UpQTHysmfEjTNe3DODPTtadhC+EFIM7eVby2qOLrh19Qx8A0Ixort86yov2tlZVuZUCQ4OlheVSA8iQASIQIkSIMdbAtyizsK2imqtF5QAUa6kj0OFjrdNNadc1+iEZATSUlOxf8dqLtOgyd2grfvjJGfJ5FHqHwmow7JFCyz2aYjXT4Lx7OErvPnwfcq5fkUTVKtrh+o1zaArxsisgXMDrLvngIDbT/Eo8D0ATe5fOYvKqFHPGhamZX5UIOu7TrW62HjUBmkaOjDRFX9Zi45jA2w+agMuBrlGGZhnX3+eJf37h6xyUHA5Vh274FDDenh43R+vXicCTK6WDixqVENNV3OULagcngFaz5gEl+6h8PF8jogEcC8sNPX1UbW6HarXEY/nd60L/pSRngH3c/e5RKo6zVxEiD0jBk7qiq0LD3HPjmZtuoKnQd2+iE9x/trYO3PZnwS9LI4YlcprY27K2Sv6LaVSxpOxRIAIEAEA1ANLcBuIOotqVWjEWxxsaWkZeBIqjCZsbV9dnCyUpgAC1y4cQ9S71zCzrIgWnesXkJIuFYsATwuWdZy4f8WSwzJrGcCxTRM4tpFQEk8XlYu03lkLpnbCUSWxSpSgHH65SmjUpxIaiSU4dyIjOxu0s7PJfUHKZ/zuBSLmQxxMLYzhUFv25UlZfamLa9mlAU7/cw0Rr1+DPUPadx8g9TJUUaCoT/MPfo20tDTweNm3N1BFIoXbbGthxiUS/ZYqPAelIAJEgAgoFwFa4y1BfYo6CztyvMWi9uJtEpIFGVwQGj19A7HyUKK8CaSkCHBkz3ruYt/xHWn7sLwx0VkiAFsnS4ye/RN6j+lANADuWcGeGexgzxD2LKGj+ARYn8YCrCULBHgRHlF8gSogwbYKOd4qUM1kIhEgAgUQIMe7ADjZL0VFRSE+Ph5G+uoop08TBbKzye/zo2DhNmI29jTNPD9G4p6/fPowPkS9g7mNKZq0dxU3G6UjAipHoExZXXTo2xwtu9CsEFHls2cGe3awZ8iVM0dEp+lvMQmI+rbHQaHFlKQa2cuV1YORgT4SEhIQGRmpGkaTlUSACBCBbATI8f4/e+cBH2WR/vFfsqmbSjqBkAYJoZfQe2+CIjYEC3rAqYfd82x/Tz3L6Xm2E+UO24GVU0FUFKnSa4AASSAhJIRAAgmpm2TT/p+Zdydtd7PvbjbJ7r7PfD5h3515pn1neGafd1oTGK09njlzhgfTbHdrlJqHndDt747pRYZ3czLmfdNWVeKbz97lkW69bzacnOTv+TUvJ5ImAkTAEQkwncF0B3Nff/oOmE4h13YCYmxLPmv8nvq25+JYKfSkfd6O1aBUGyJABMwiQIa3TFyZmZlcMiacDlaTiQwpWdKPux4x8XKjkJwBAj9/twYFVy4jKr4bRkweaECCvIgAESACrRNguoPpEKZLmE4h13YCYmxLPUd3eculGdtDOmAtPT1dbhSSIwJEgAg4DAEyvGU25fnz0hvtqDDlXk0jE1WD2Knz0sFqkTG9GvzowTwC1doqrPvv+zzSwvuvo9lu8/CRNBEgAjoCbNb7tvvn8G9MpzDdQq5tBMTYdvpcdtsSUlDsqPBQXlvxm0pBVaeqEgEiQARAhrfMTiBmvKPC6AonOcg0lXXIytNCpXJF1+5RcqKQjAEC2zZ9h6LCK3ymauh4WrJvABF5EQFOIPd8Hmpr64hGKwQSx/fnuoTpFKZbyLWNABvb2BiXfekKyito+b4cmj3CgrlYdja9rJDDi2SIABFwLAJkeMtsT/F2NiqMrhKTgywlWzpYrXtULN0bKweYAZn6+np8/8UqHjLvjikGJMiLCBABRqCurg7/t/QdLJ/5LArziwhKKwSELmG6hekYcpYTYHeid4+M4QmkZV20PCEFxezRVZrxzsrKUlCtqapEgAgQAYkAGd4ye0Kj4U1LzeUgO61bZt4jOk6OOMkYIHB4z3ZcOH8WgaH+GDNjiAEJ8iICRIARSNpzGkVXS+Hlo0ZAiD9BaYUA0yVMpzDdwnQMubYREPu8T58jQ1IOyYiwIC5GhrccWiRDBIiAoxEgw1tGi9bW1uLChQtwdnZCRAgtNZeBDOk50rK7iMiecsRJxgCB7z7/gPvOWTQRKheVAQnyIgJEgBHYsfEABzFp3ggCYoIA0yVMpzAndIyJKBTcCoHuPWJ5aEY2XY/VCqaGoIjQYH5WSU5ODl+p0hBAD0SACBABBRAgw1tGI7M7vNlSxhB/Z7i60FVOMpAh/aJkeIfR/m45uPRk0lNO4MTRvfBUu2Pq/NF64eRBBIiARKCsuBwHd5yAs7MzJswZRlhkEGA6hekWpmOYriFnOYGuEdE88rkcMrzlUHR3c0VIgB+qq6uRm5srJwrJEAEiQAQchgAZ3jKakr2ZZS48iGa7ZeDiIum50om54d0j5UYhuSYEvvvi3/zb1AVjoPamK+yaoKFHItCMwK5fjqC2ug4DR/dGl2BaZt4MjpEvTKcw3cKc0DVGRMnbBAExxmVcIMPbBKqG4Ag6YK2BBT0QASKgLAJkeMto74sXpUNTugW5ypAmEUYgQ7fUPFw3G0BU5BO4VnAFu7Zs4DN4c26fID8iSRIBBRLYtmEfrzUtMzev8ZluYasEmK5hOoecZQTEGEeGt3x+3UICuTDNeMtnRpJEgAg4BgEyvGW0Y6PhTQerycCFwpJqFGvq4Kn2hl8XaYCVE49kJAJbfvyGb20YNrEfgsICCAsRIAJGCGSfvYjMlByofdQYNmGAESnyNkSA6RamY9g2KqZzyFlGgI1xbKwrLtOgoKjEskQUFis0qAuv8aVLtEpAYU1P1SUCiidAhreMLtBgeAeT4S0DF85dkpaZ0/3dcmg1l2HX+/z6wxfccwrt7W4Oh74RgRYE/AJ8cMsfZ+P6uybD1c2lRSh9NUVA6Bimc+hqMVO0jIeLsS4zN8+4EIU0EAgNlLaEkOHdgIQeiAARUAgBMrxlNLQwvMMDyfCWgQvZeVouFhLaTY44yTQhcOLIPlzKOc+v+xk0OqFJCD0SASLQkoBfoC9uWT4LC+6d0TKIvssgwHQMu1qM6Ryme8hZRkCMdRcu05J9OQS7BkkrudjBteSIABEgAkoiQFMEMlo7Pz+fS4UG0B5vGbhw4YpkeAeHkeEth1dTmV/Xf86/Tpk/iu+/bBpGz8ojUFRQgvyLBcjPZX+FKMwvQum1MpQUl6O0qBzsRO+qyhqwKw9rqmpQU1PDIbm4uMDF3QUqlQruHi7w9vOCj78XfNlnF29+13VIeABCwgMR0i0Q/oG+yoNLNeY6humabz7cBKZ7BibSDQqWdIug0HAeLSfvqiXRFRcnTGd404y34pqeKkwEFE+ADG8ZXUAY3iH+ZHjLwIWcfGmpufgxIicOyQClxdewe8fP/I7TydePJCQKIqCtqsa509k4f/Yiss7mIuvMRWSl56JKI73EMheFVlsN9sdcKYCrl4taTcJd7YbInuGIjOuGyF7hiOrVDTF9esDNnXReq+AcIJDpmnWrfuG6577ia/Dxk/bfOkDVOqwK4iUzGd7ykNNSc3mcSIoIEAHHI0CGt4w2bTC8u9CPUBm4cCFfN+MdIs0CyIlDMsDWn/+H2motBo9JoEPVHLxDaEorkHzoDFKPnUPqsQycO30BtbV1erX28fdBt4gwdO0egvCIMIR2DYFfgC/8u/jCr4svfP194O7hDldXF7i5ucLFVVLpNdU13PCurq5BVWUVSopKUXytBEXXSlBcWIK8S/nIvXAZl3LycfHCZZQWleLMifP8TxRCpXJGTJ8I9B4Ui96DYtB/WBzUPnS1neDjKJ/skLVBo3sjaU8K10E3LFzqKFXrsHoE68Y6MrzlIQ8LlF7u0FJzebxIiggQAcchQIa3ibZkB85cuSLt2wr2I1wmcPHgC1ekGe9g3fI7OXFIBtj60zqOYSodquaQ3SEz9QKO7jmNpN2nuYHLTpMWzsnJCT0TopHQrydie8fw59i4KPgH+AkRsz6lJebuDXG6dgtteDb0UFRYjIwz55GekomM1HNIOZmOjNTzOJucxf82rtnGlyXHDYjC4LF9MGRMH0T3jjCUVIf4lVwrhW8Xnw7JSwmZMJ3DDe+f1oEMb/NbXIx1tMdbHrtgf0mvXb16lR/qx/QfOSJABIiAEgiQJWmilYuKilBdXQ0ftTPcXOksOhO4eHDuVWmfaWBIVzniJAPgYtY5nDt7Cmpvdwwd34+YOAiBcynZ2LM5CXs3H8WV3MKGWjmrnDFoRD8MGTEAA4b2Rb/BveHlrW4I7+gHZuAPHTmQ/4m8y8s0OJmUihNHTuHogRM4cfi0bob+HL78148IDg/A6OlDMGb6YMQk9BDROuTzhT++Dzar/9Q7yxEWEdwheTpyJkznMN3DdBDTRd0iYxy5ulavmxjrLl9t/D9u9UwcKEEXFxV81J4o1VSgpKQEfn6WvWB0ICRUFSJABBRCgAxvEw1Ns90mABkIzi+S9pb6B9Ad3gbwGPT6fctG7j980qCG5cIGBcnT5gkU5l3D1h/2Y8cPB5CXU9BQ3qDQQIyZPAyjJgxD4uhBnWpoNxSqlQf2ImDEuCH8j4kxQ/zw3mPYt/MQ9mw7hCu5Bdjw6Rb+FxYRhAlzh2PKvJEICG3fPcJs5QDbA+/jr6YtGa20nzlBbIsC0z07Nh4A00UL733InOiKlxVjXX5h62cpKB5UEwBd/Ly54V1QUECGdxMu9EgEiIBjEyDD20T7Xrt2jUsE0DJzE6Sk4JLyWmir6+GpVsPdg/aDyoIGYNfWH7jo6OmD5UYhORsiwJaNH/n9JH77bi+O7TmNurp6XrqAIH9MmTMOU+ZMwIChffjBeTZUbLOKwgzxCdNH8z+2BefEkdPY+tNObP1pFy5fuIqvV/6MdR9uwqAxfTDtxtF85Yazs/VXCW3feJCXe9zs4XBxVZlVBxI2ToDpHmZ4M11EhrdxToZC2FjHxrwKjQbFZeXw8/YyJEZ+TQgE+vki+9IVFBYWIiaGVlg0QUOPRIAIODABMrxNNK4wvLt4EyoTqHhw3jUx2x0iR5xkAGSfO4usjFR4+6gxYERvYmJHBCorqrB9w35sXLudX/vFiq5yVWHyrNG44bZZGDpqoENeC8f2ZA5M7Mv/Hn7ujziy7zjWf7UJOzfvxdFdp/gfu6Zs7uJJmHT9SHh4Nu43b0vz1lTXYtfPkuE9ed6ItiRFcVsQYLqH6SCmi5hO6hHTq4UEfW2NgH9ACCo058Fmvcnwbo2UFNbF15s/sBlvckSACBABpRAga9JESzca3jSzYgIVD240vGnfpRxeTGbXVmmZ+YgpA2gGTy60TpYrLSrDj59vx69f70ZZqYaXpltkVyxYPAez5k+1+FC0Tq6WRdmzWe1hYwbzP3ZI26bvt+DbtT/hYtYlfPT3//GZ8Bm3jsV1iybBx1/6sW1RRgAO/56M0iINv/YsKr67pclQPAME2OoBpoO2rt/PddKimEcNSJGXMQL+AcG4lHMeeYXF6NWjmzEx8tcRCPSXDkdkM97kiAARIAJKIUCGt4mWbjC8fQiVCVQ8OF/MeHcJkiNOMszw3rKBc2AHVZGzbQLsGrCNa7fhh7XbGu7Y7j8kAYuW3YRxU0c65Oy2OS3CDmlbeO8C3LpkPnZt2Y/P//0/JB9NwberN+PHL3Zg3uLJmLt4ssXXkm3/YT8vDt1zb06ryJcdPW2IZHhv2YBFS8nwlk8O8NeNeVdon7csbP404y2LEwkRASLgWATImjTRnmR4mwDUIriwVDrR3MevfQ9YapGt3X69kHkWF86n84Oi+g2Ls9t6OHrBtVXVfIZ7/adbwIxv5kZOSMQ9D96O/oMTHL36ZtePzYKL/eDJSSn46J3PceD3I1j371/w05c7ccPdU/kMuJu7q+y0iwtKkLQ7BexE+HGzhsqOR4LyCfQbHsd1EdNJTDdFRNNyc7n0xJh3raRUbhRFy/n7SPvgi4uLFc2BKk8EiICyCJDhbaK9xaDg60VLzU2g4sFFZbX809vbV4644mUO79vBGbB7kVUu1MdssUPs+y0J/317fcN1YGzf9rLH7sSAIX1ssbg2Vyb2YuLtT/+GE0dP499v/pfvB//ivY347ds9uPPhGzBqmrwDBdkBdjNvHYeqSi3d4d1Orcx0ENNFO386DKabyPCWD1qMeUWl5fIjKVjSWy0dvlpWVqZgClR1IkAElEaADG8TLS4GBW9PMopMoOLBxWXSjLeXD93LKYfX4X3buNigMX3liJNMBxLIPnsR/3ltHVKOZvBceyZE46FnlyFx1KAOLIXjZMVeVPzr89dweN8xvPO3fyM9JRNv/vljJAyJxdK/3IwevVrfF9sl2B/3/PkmxwFiozVhukgyvLdh/u1LbbSUtlcsMeaxU83JmSbgrfbgQqWltELANC2SIAJEwFEIkOFtoiUbDW/rX4tjImu7DC7SGd7eZHibbL/KSg2Sk/bzK6YGjaLTzE0C6yCBam0N/rf6F3z/8W+oq62Df4APlj+2BPNunaH4PdzWaAL24uKzjf/CD1//ilVvfsJfbDy+8HXMv2cabvrDTLi60bBkDc6WpsF0ETu1nukmpqM8PNSWJqWoeN4+0iovmvGW1+zenjTjLY8USREBIuBIBMiaNNGajYY3zXibQMWDr5XqlprrfoTIiaNUmROH96G2WovYvj3afNqzUhlau96pSel47JZX8e1/fkV9XT1uunMu1m37BDcsnEVGtxVhsz3gjClje9Md13HWjDljz9qAXOcRYCfPM53EdBPTUeTkERAvm4tLaMZbDjFaai6HEskQASLgaATI8DbRoo2GN6EygYoHF5dLhrea9nibxHV4r7TMfMhY2itsElY7C7D7ode+uwHP3fsucrPyEdUzAh+u+wce++v98PaVDgFq5yIoMnnG9rEXHuCsGXPGnrUBawvWJuQ6h4DQSUJHdU4p7CtXMebRUnN57SYMb1pqLo8XSREBIuAYBMiaNNGOjYY3zXibQMWDKyqlH8u0PNE0rSO6/d2DR9Op2KZptZ9EblYenr7rTaz/ZAtfYnvPioX474/v0+Fp7YdcL2W2/5sxZ+zZMmfWFqxNWNuwpf/kOpaA0ElCR3Vs7vaZmxjzNJVV9lmBDi61l26Pt/iN1cHZU3ZEgAgQgU4hQJvpTGCvqJCuDlJ70DsKE6h4cLm2jn+6e0gHp8iJo0SZ3AuZuJybza/uie0bqUQENlHnnT8exKq/fQV2XVjX7qF44Z0n6XqwTmoZVzdXLH3kToycOAzPP/R3nEu5gMdv/Tu6RgbDU+2BPz53G7rHdO2k0ikrW6aTvP3UXEcxXRUeEa0sABbUVox5mkqtBbGVF8VL9xtBo9Eor/JUYyJABBRLgKxJE01fVSW9vXZ3JVQmUPFgMePt7k6Gd2u8TiUd5MF9h/aivcOtgWqnMLaMefVr3+C959Zwo3vm/MlY8/NKMrrbibc5ybLrx1hbsDZhL0SyzuTizIlMePvRkn9zOLZFlu3B75co3eEtdFVb0lNCXDHmVeh+Myihzm2po7vuEEXxG6staVFcIkAEiIC9ECBr0kRLiUGBDG8ToHTBFVX1/MndQzqxVF4s5UmdPnGIVzp+UIzyKt/JNb52pQj/t/Rt/PL1Lri6qfDUqw/h+TefgJc3nd7cyU3TkD1rC9YmE2eO4X51dfV4/bH/gLUduY4hIHST0FUdk6v95iLGvAqa8ZbViG4u0oJLrZZWCMgCRkJEgAg4BAEyvE00Y6Ph7WRCkoIZAU2VtMdb/AghKoYJiB+zCWR4GwbUTr5ZZ3Lw5OJ/4Mzx8wgND8aH3/wT826d2U65UbJtJZB5Npsnwa50Y23G2o61Ibn2J5AwUHopKHRV++do3zmIMa+istK+K9JBpXd1deU5keHdQcApGyJABGyCABneJpqhwfB2I8PbBCoeXKmVZrxd3d3liCtSpqS4EDlZ6XBzd0VUfIQiGXRGpY/tPY2nl7yFwvxiDBreD5/+8B76DIjrjKJQnjIInDqWiqyMCwgMCcDnv6zibcbajrUha0ty7UsgqncE11FMVzGdRa51AmLMq6QZ3NZB6UJpxlsWJhIiAkTAwQiQ4W2iQRsMb9rjbYKUFFwrna0GlYpOgTcGLOX4ER7Us38kXFyJkzFO1vTfun4vXlmxClUaLabNm4h3//sK/AP8rJkFpWVlAhvXbeYpzp4/GQFBXfDOZ6/wtmNtyNqStSm59iPAdBPTUcwJndV+udl/ymLMq62VXj7bf43atwZurtJSc/Ebq31zo9SJABEgArZBgAxvE+1QWystnVY50Yy3CVQ8WPzocHYmg9IYL7F0k5aZGyNkXf+Na7fhgxe+RF1dHe5+4Fa88NafwU7QJme7BKoqtdj6405ewNk3TeefbIUIazvWhqwtWZuytiXXfgSEjhI6q/1ysv+UxZgnfjPYf43atwbuOh1MS83blzOlTgSIgG0RoOvETLSHGESd6RWFCVJScA3NeJvkJH7Exuv2UJqMQAIWE1j3n034euXPPP7jLz6ABYuvszgtithxBMrKyjFq0nBczStAVGzjdgx2x/fyx+5GUGgQ/vF/7+OzN79HZUUVbl46q+MKp6CchI4SOktBVTe7qmLGu6ZOellvdgIKi+DqIr2cr66uVljNqbpEgAgomQAZ3iZav75eWjZGE94mQOmCa3TL7MTbf3mxlCPFZurSU47zCscNoLtx27PlP3/vB3z/8W/8urZn/v4IZi+Y2p7ZUdpWJBAY1AUvvv0khP5tmTR7geLp6YGXn3yLv1jRVlZj0Yp5LcXoexsJCB3FdBbTXeyaMXKGCYgxT4yBhqXIlwgQASJABJRMgEZRE63fOONNS81NoOLBdboZb2fa420Q16UL56HVViGMJngwAAAgAElEQVQw1B/evnR9lUFIVvBkM93c6FY546V3/0JGtxWYdkYSbIbbmGMvUljbOquceVuzNidnXQJMRzFdxXQW013kjBMQYx57QUGOCBABIkAEiIAhAmR4G6LSxE/MuDgb//3XRJoeiUDrBM6np3KByLjw1gUp1GICbN8vW17OZudeeucvmDx7nMVpUUTbJsDalrUxa2vW5rTn2/rtJXSV0F3Wz4FSJAJEgAgQASKgDAJkeJtoZ/H22pksbxOkpGCVrkfV1tbIklea0PmMFF7lyJ7dlFb1DqkvO+ma7ftlji0vJ6O7Q7CblUl5mcYseVPCrI1ZWzPH2p5OOzdFzLxwoauE7jIvtnKkxZinouX4yml0qikRIAJEwEwCZHibACb2tNXV0RUhJlDxYJVKWhpQpzsNXk4cJclkpkuGd49eNONt7XZndzuveulrniw7SI32dFubsHXSu+f6B/Hsilewb+dh1In7B9uYNGtr1ubMsT5A93y3EWiT6EJXCd3VJIgemxAQY55Kd2hYkyB6JAJEgAgQASLACZDhbaIjiJNKrfT70ERu9h/soutRYqWA/dfIujXITD/NE4wiw9uqYLPO5OCNJz5quDKMTi+3Kl6rJubbxRdbf9qFR5c8h+vH3omVr3+MrHMXeB5vPPce/rz8BWSezTI7T9bm4qox1hdYnyDXdgJCVwnd1fYUHTMFMea5tHIugWPW3LJaOUH3kp72xFsGkGIRASJglwTI8DbRbC4u0sHvtTTjbYKUFNww401XqujxqqzQ4PLFLKhUzgiPCtULJw/LCBTmF+HlFR+iSqPFtHkTsezRuyxLiGJ1CIHg0MCGfNh1YWs+XIfbpi7DHxY8gk3fb8eu3/ZD5WrZhRus7VkfYH2B9YlrV4oa8qIHywgwXcV0FtNdTIeRM0ygTjfmiZf1hqXIVxCoh7SKUKwqFP70SQSIABFwZAJkeJtoXTGIkuFtApQuuGGPdw3t8W5JLCsjjXt1jw0DLUdsScey7zXVtfjHnz9CYX4xBg3vh+defxStnYRtWS4Uy5oEmhreTdM9lZSKCk0F2HkaH72zFgf3JMHcLT6s7Z/9+6O8L7A+wWa+WR8hZzkBpquYzmJO6DDLU3PcmLW6MU/8ZnDcmlqnZtU10v9LV1dX6yRIqRABIkAE7IAAGd4mGkkMorRl2QQoXbCHm7R8jF0/Q645gcsXs7lHeI/g5gH0zWICn775Lc4cP4/Q8GC8uvJZuLrRjziLYXZQxOCwxhlvQ1kyY3vzhh146I6nceO4u/Dvf36GnOxcQ6IG/dzcXXlfYH2C9Q3WR8i1jYDQWUKHtS01x4wtxjwPN8tWazgmFeO10lZLL+fd3NyMC1EIESACRMDBCJDhbaJBGwxvWmpugpQUrHZX8QdtZaUseSUJ5V2SDO+QbkFKqna71XXnjwfxy9e74Oqmwisrn4V/gF+75UUJW4+AsRlvQznkXbqCT/71FW6eeC/+eMvj2PrzLkNien6sL7A+wfoG6yOsr5CznIDQWUKHWZ6S48YUY56nh4fjVtKKNdNWV/PUyPC2IlRKiggQAZsnQIa3iSZyd3fnEpXaOhOSFMwIqD2kGe+qygoC0oJA3iXpsKfg8IAWIfTVXAK55y9j1d++4tEef+FP6DMgztwkSL6TCASHWvbiKSvzIiKi5N8GwPoE6xvMsb6Sm5XXSTW2/2yFzhI6zP5rZP0aiDFP7UEzuHLoanVL88nwlkOLZIgAEXAUAmR4m2hJT09PLlGppevETKDiwR66Ge9KmvHWw3U5VzfjHd76Ulu9iOTRjADbs/v20/+FtqoaM+dPxrxbZzYLpy+2TSAo1PwXT2HdQrBq3T8Q1yfWrMqxvsH6COsrbz/1Ge33Noteo3CITmcJHdYYQk+CgBjzPHQv64U/fRomUK2lpeaGyZAvESACjkyADG8TreuhWzZWqaUDekyg4sFeblKX0lbRUvOWvPIvSVcmhdCMd0s0Zn3/6oMfcS7lArp2D8XjL0h3N5uVAAl3KgFzlpqzgkb1jMCqdW+iR1Q3i8rN+gjrK6zPsL5DznwCQmcJHWZ+Co4fQ4x5NOMtr621tWR4yyNFUkSACDgSATK8TbSmMLwrqmjG2wQqHuzpIe3xrqyka2ea8mJ3vOblSkvNxexR03B6lkcgNSkdGz7dCnYFzQvvPAkvb7W8iCRlMwQ81Z5Qq6WVRKYKlTAgDh9+/Q+EhFm2PJ2lz/oI6yusz7C+w/oQOfMICJ3FdJi4r9q8FBxfWox5ag9pe5rj17htNazSSnu8xXa+tqVGsYkAESAC9kGADG8T7SQMb9rjbQKULtjfWzK8y0uL5UVQiFTh1TzU1lbDL8AHbrQH0KJWZ0sTV77wJerr63H3A7ei/+AEi9KhSJ1PILiraUM6ccwgvP/Fa/Dr4tvmArO+wvoM6zusD4llrm1OWCEJMJ3FdBfTYUyXkdMnIMY8fx8v/UDy0SNQXiHdfKJW08tTPTjkQQSIgMMSIMPbRNOKPd4VtMfbBCkpuMHwLiuRJa8UoSuXL/KqBod3UUqVrV7P//1nE3Kz8vnS47sfWGj19CnBjiNgap/3xJlj8M+PXgSbHbeWY32GLVtnfeh/q3+xVrKKSUforqt5lxRTZ3MqWq4b83zJ8JaFrbxCOoDV29tbljwJEQEiQAQcgQAZ3iZa0cfHh0uUVUj7kUyIKz7Y31u6w7SslAzvpp2htLiIf/XtQj8ymnKR+5x99iK+/2QLnJyc8NRrD9N93XLB2ahca/u85946Ay+/97TV25jd8c76DutD33/8G1ifIiefgNBdJUWF8iMpSFKMeTTjLa/RyzTSOTBkeMvjRVJEgAg4BgEyvE20ozC8S8rpcDUTqHiwn87wFsvu5MRRgkyx7seqr7/0IkcJdbZmHf/z2jrU1dZhwR3XYcCQPtZMmtLqBALGDO/Fy27C068+DGdV+wxNrO8sWDyH9yXWp8jJJ+DjJy2hFrpMfkxlSIoxz8+blprLafEy3Yy3+I0lJw7JEAEiQATsnUD7/LqxdypNyi8GhVIN3ePdBIvRR7HUvIyWmjdjVFp8jX/38aP9bM3AyPiy97ejSDmaAf8AHyx/9C4ZMUjE1gkEGzgs7YEnl+CBv9zb7kVf/tjdvC+xPrXvt6R2z89RMvD1l1brCF3mKPWyVj3EmEcz3vKIltOMtzxQJEUEiIBDESDD20Rz+vpKB/uU0lJzE6Sk4AAfaak5/ThrjqukWFqe6e1PsyHNybT+jd2/vObtDVxo+WNL4O1L/FonZh+hwSGNd9k7OzvhqVcfwuLlt3RI4VkfYn2Juf++vZ7f8d0hGdt5JkJ3CV1m59WxevHFmNfFl1Y1yYFbVkFLzeVwIhkiQAQciwAZ3ibas2HGu5xmvE2g4sGhAa78s6jwihxxxciU6Ga8xayRYirexor++Pl2XMktRM+EaMy7dUYbU6PotkIgOEwyvF1dVfjbv57GvFtndmjRWF9ifYr1LdbHyJkmIHSX0GWmYyhLQox5IYH+yqq4hbUtK6fD1SxER9GIABGwYwJkeJtoPDHjXaKhw9VMoOLBIf46w/vaVTniipERBxJ501Jz2W2uKa3A+k+3cPmHnl3G72GWHZkEbZpAUGggPNXu+MfHL2HSzLEdXlZ2pzfrU8yxPsb6GrnWCQjdJXRZ69LKCy3SjXkhXfyUV3kLalxUWs5j+fvTiwoL8FEUIkAE7JQAGd4mGi4wUJqZKSgmw9sEKh4c2kXMeOfLEVeMTKluqbmfbp+kYirehor+sGYbN4gSRw9E4qhBbUiJotoagcDgLnjv879j+JjBnVY01qeGjhrI+xjra+RaJyB0l9BlrUsrL7SoUBrzQgLIkJTT+kUlpVwsICBAjjjJEAEiQAQcggAZ3iaascHwLqFTzU2g4sG+Xiq4uTqhQqNBVSXNIglm4uAdtbeH8KLPVgiUFpVh4+eSMbT00TtbkWxbUG2VFppyLaqq9P8kf/p/3zbChmO7uLig78B4w4Ed6LvsMalvsb7G+hw54wSE7iovkwwm45LKC2FjHRvz3FxVoFPN5bX/1WIyvOWRIikiQAQciYB0EpYj1cjKdRGGd2GJ1sopO25ybLl5zhUtigqvIjQ8wnErakbNtFXSQTIubvRfTg42tu+2SqPFyAmJ7Xh9WAU2LLkZb+xv3bh27j0A00cnYsKUQUgc3gveKjk1UJZMVXEBrhZLOtIrKAT+avuAxK4XY31s/87DfK/3wgfmKqvhzKit0F1VVfRCtSU2NtYxR7PdLckY/15UIr3oEr+xjEtSCBEgAkTAcQjQjLeJthSDQkEpHa5mAlVDcHiQZFwW5F9u8FP6g5j9d3Elw9tUX6isqMKvX+/mYvc8eLsp8TaFu3qbVoF1qSfwy8cf46lFD2Ja3P1Y93t2m/J0vMgV+Om+u3DTxHv432OfZ9hVFUUfY32O9T1yhgkI3SV0mWEpZfqKsS4siJZNy+0BhcWS4U1LzeUSIzkiQAQcgQBZASZaURjeV4toj7cJVA3BEcHuOJiiwZW83AY/pT+IH6uuNONtsits37AfZaUa9B+SgP6DE0zKW0Ng2KOv4rWl8ait1M1+u6jAmkpbVISM5CR8/+b72JxWB9Rn4p93L0fSX17FS8sGwT7mda1ByEQa/AWGxC7MzcmEsG0Fsz7G+lry0RSwvjfrtgm2VUAbKY3QXUKX2UixbKIYYqyLCAu2ifLYQyGulZTwYpLhbQ+tRWUkAkTAWgRMT/dYKyc7TYddJ+bm5gZNVR2qtDTrLacZI0LcuNiVfDK8BS+tVlqGK2aNhD99NidQV1eHjWul650WLbupeWA7fvMJ9ILa3RM+ft7Sn5cn3Nn30K4YNHU2Xtj0PT55v3Gv+fbXnsIrX55txxLZU9IqqL2aGNvSf397qgBEX2N9j/VBcvoEhO4SukxfQrk+YqzrHhqkXAhm1Jz9Hysuq+A3VdCp5maAI1EiQATsngAZ3jKaULyRLSylWW8ZuNA9xJ2LXbl8UY64ImRq66TZQBcXmiNtrcGP/H4S+RcL0C2yK8ZNHdmaqHXDTB7h4IbesxZi+/aXIc7h/vnZt5BUWG/dcthlam6Y+cY6bE3+DluTN+DFhb3srhasr7E+x/oe64Pk9AkI3SV0mb6Ecn3EWEeGt7w+cOVaCerr68FWFLKr/cgRASJABJRCgDSejJYODpaWj+UXVcuQJpGIYGnK6yotNW/oDPW10ksbsVyzIYAemhH47bu9/PuCxXNs8geZR+QQvPCJbua7PhOf/i+lWfkV+8XFDWovT6i93Oxy+T378c/6HHOiDyq2LY1UXOguocuMiCnSW4x1ZHjLa/68wmtcMCwsTF4EkiICRIAIOAgB2uMtoyHDw8ORnJyMSwXVGBgrI4LCRXqESoZ3fh7NeIuuIJaviuWawp8+GwkU5l3DsT2noXJVYdb8qY0BNvYUPGEqFmMN1qIeB9/YiMy7+yC6leXVmovnceTIaRTAB57lhajwCsWQkYPRQ7cyxFj12Enh18pr4R0YCG93tlKiFpdOnkRy2kVotICrVwD6jx2CHgFNM6/FxZMncSz5Iqq11YB3AAaMG44YE3mJMtQWFyD1VDrOZxWAvWbUausRHB2DAYkJCFQLKUOfWlzNLUKNizuCQ/wMGN8iXI3gEG9deAUyDp1GanoeqllubqEYMG6w7LIaKkVb/Fife//1T3gfZH0xILRLW5JzuLhCdwld5nAVbEOFxFhHe7zlQbx8VTK8u3btKi8CSREBIkAEHIQAGd4yGpIZ3szlXjW5HlVGao4vEhsu3VV9Kee841eWamg1Alt/2I+6unpMmT0G/gF+VkvX+gkF4/r352PtA98BtTuQmrMC0TGGrNJibH3jPTz7wR6DRVjw8ht4cGE/NDWbGwWlk8LZVWcjXl6Ft292w0f3L8PqLfqrbpasXIllM6OBgnSsXPEw1hi4Hm3JylVYNrNHY/J6T8XY9u6/8czb0t3pesEAlq98F3fM7GXAqAbKU7di7ux3Aef++PjE60hogaNp+BdpryMwZSf+Nu817DKQ0d1vr8TyedEGQtrXi/W5CdNHY9tPu8D64s1LZ7VvhpS6wxAQY11MN5rBldOoeQU04y2HE8kQASLgeARoqbmMNhVvZXMLyPCWgQtdfFzgp3ZGhaaM3+UtJ46jy4h9bDXVdE6Asbbe8cMBHnT9rTONidiMf1B0o2GoqTB0D3gh1ty+qMHojrthMV5Y+QxeeGMFro+X1O63zzyBP/5jP4xpFXHVWe2pXXht7r2S0e0Ujfn3L8adCwc2sPjkTx9gx7EjeHXYCsnoNiRz/3LszDZ2VZYWv7+0pNHodh6JFW88jw+/+QfeeOtejNPltOr+B/H54aKGfA0/eKH1t7leOPT1p5ihM7qde4/CXY/c06w+nz58PzalaQwn386+N9wmGds7Nx5s55zsL3mhu5yd6ZyKpq1XfK2Aj3V+3moE+Pk0DaJnIwQuXS3kIbTU3Agg8iYCRMBhCbT+G8lhq21excSM96Wr+rNN5qWkHOnY7h44ekYDNhPgH0AnvapcXFCn1aJaWwM3D8NznMrpHfo1PXc6G3k5BQgM9sfQUY1Gpb6kffikfPoBVupmnme//E88vTChYaZ4+oJJGP3uS3jy7SSkrHwBnw3/FEvHhxqt2OEv1uIwgEmPPI3Hlo9DoK77zJ30JW5e9l+gLhlP3ZjM4zOZP98/Dv462+iGOd/ixsWredj327Mx4S79g89KTm7Fk59UcJnhjzyP11aMhKcoTWJfjJ0zHh/NXYLVaXVYvfoAbk6c0Rgu5OR+1u3HW8/u59Ir/rMSN02J1s3434yb5vyAeYs/4GG791/ErHj9ssrNxlI51vcCgvxx+cJVnEvJRkxCa6sELM3FPuMx3cWcig6IbNaAuRcy+ffYCFo23QxMK1/yCqQXeGJSoxVRCiICRIAIOBQBmvGW0ZwNhnehsbkpGYkoTKRnuHSyeW5OlsJqbri6Tk6SJVRTY2h21HAcJfnu+S2JV3fy7HE2eahay7bwiI7GdJ3n0ROXmwdXZeCrF3dzv4QHXmxmdEuCnhj/4NN4aKTUJz5+fSdMzSPPfv6feGVFo9HN0uk+dTbu082es++Tn3+Dywijm/l1HT2jIR8vKXO9f/NOHJX8VDPx5P1NjG4h6RKCm1+8h3+r3noMl9uqBp2i8dKmb3F7g9EtZRQ8enJDWXftOwfpVYAoRMd8spUpU+ZIc/x7Nkt9smNytv1chO4Susz2S9wxJRRjHBne8nmLPd404y2fGUkSASLgGATI8JbRjuKtbG4BzXjLwMVFenbT7fPWzQbIjeeocm5u0osIfuCVo1ayDfXau1ky/qbMmdCGVDonankLQ/TK/t3YrCvKXQsHN8x0Ny+dN6Y/skTyOv0Jfm9labX7/Cfw+F0JzaPzb27oEiEZ7x7zH8azd/UzKBMc7WrAv9Gr1+3PYPP297Dqx0UI182UN4ZKT2qx576+EpVt3C3x2HevYGp8i03gPBtv9J0gXSFXW1aNznpFJfqg6JMtWSj1u9BdQpcplUPLel/SjXEx3WnGuyUbY99zrxTwIDGpYUyO/IkAESACjkaAlprLaFExOFyiPd4yaEkiPbtLhndOdobsOI4s6O7hgbJSoKa6s8wJ26WbmXoBV3ILERQaiAFD+9huQZuUrDIns8G4HhzX/PTrq5k5kmSfJRgYblzFBgwYxPdPswPGqltZCTEmMdrk0u7RiXFGZNzQY/BY4MstTUqv/+gT2RMDdN5V5WUoLSpFcVExigqKUVBUgWtpjbO/xmukn66ej2oiBib463kLDw8fSW+w70beAQjRdvtkfZD1xSu5BWB9M7p3RLvlZU8JC93FdBm5RgJijOvZQzqEtTGEnowRuHDpCg+KjIw0JkL+RIAIEAGHJNCm31AOScRApZjhzZYgXi6sRXVNPVxdnAxIkVdTAn2jpBmt7HNpTb0V++zuIe2ardHtk1QsCAMVP7rnNPcdM3kYnJzs5P9Wk8Uv3r7SagZRNRfd6gbX7mo0DxES4tMFwmRny9UX9DVyMJOcPtOajLZeZNjKpxapW7bgyzffx+a0ulbk2hhUXwmwGXMbPuaA9UHWFzd8+QtY3yTDW2pzobuELmtjT3CY6GKMS4ih8wDkNGp1TQ0uFxTx31TdunWTE4VkiAARIAIOQ4CWmstoShcXF0RERPCrji7kGzsZWEZCChLp3UMyNHOyzqG2po1rUx2Am7u7zvCmU831WjNpt2R4j5owTC/MVj0upaVKRXOKRtdgqW0ljwqk7vidP9aWmSi9e1f0m6pbBt5iubqJmNYNLs/CyttvxJJl7zUY3UOnzcJdjyzHCyv/ig+//wDv/W2sdfO08dREXxR908aL2yHFE6eaC13WIZnaeCZsbGNjHHPxkWREymmui3kFYHfBM6Ob/bYiRwSIABFQEgHSejJbOyoqCllZWTh/WYsY3T3VMqMqUkzt4YzIUDdk5Wn5yebdo3oqkoOotJe3NJupKasUXvQJQFNagTMnzsNZ5YzE0YPsgokTLuP7R36WyuqSiJ4hTdWoJ3qOHgFs2Q2Vt4nq1OTj7BbppZSnd9M0TMSzarAWvzz7YMPd3+xU9IfuHY1QdfOF3pXeIwBIB8ZZNXsbTYz1RdYnWd9kfVTt0/Tlio0Wup2LVV4qHXcndFk7Z2cXybMTzWtrq9GjazC8PGkJvpxGy86jZeZyOJEMESACjkmAZrxltiszvJnLvEyGk0xk6Bsl/VjNOndWbhSHlfP1D+B1Ky4yNQ3qsAgMViz50Bk++zEgsQ+8vA0duGUwWqd65m75FesgLd+e/NdxCGlRGhfdMmqTM95V5bisS2dAb+PXibVI3rpfi1PxwwZpun2y7uT0lkY3y7C2usnaeuuWwCZTY32R9Uk2M8f6KDmgpLicYxC6jJgA2ZnpHEMfWmYuuztkX87nsrS/WzYyEiQCRMCBCJDhLbMxo6OjuWTWZVpqLhMZEiKlGQCxB05uPEeU8/GTDO+yYo0jVs/iOqUek5ZpDhkhjvayOKkOiVhz8SBeWvaVlJdqIu6+Xv+uac8u0uFhdft+RnK+8W0WJWdPgh2s1pmu/MJ58GPTnEdi8c2GTk6XSldbqrx+K/qk6KOd2U62kLfQXUKX2UKZOrsMYmzrHUMH8Mlti2zdwWo9etCeeLnMSI4IEAHHIUCGt8y2FDPebKk5OXkEBsRKNwdnnDkpL4IDS/nqDO8SmvFu1sqpx6RT7wcm9m3mb4tfCk/uxN3jnpcMVQCLPrwbvQxM0ncfP5WfVo76THy+XrcXXK9CFdiy8jPJN2ERxvQ1kJBenPbwaP2qMZ5jcRrevHV1e2Ru02kOGCr1SdFHbbqwHVA4obuELuuALG0+CzG29e8lrYiz+QLbQAHP5+bxUojfVDZQJCoCESACRKDDCJDhLRO1GCSyaKm5TGLAYJ1VknEmWXYcRxX09ZPOry4rkpZrOmo9zamXtqoa505f4CeZ9x3U25yoHSZbVV6MrGNHsPaZv2DOvNcgLseb/PwbuG+KkeXhXvG4+T7pTIODrz2Bz7bmtiivFodWvYk3tkjLtxc9Og2BLSQ66qs6OBSxLLO6/VizVv8FWW3eabw6+OGGq9Pg5AF01nb0joKiy6ff4N68b7I+yvqq0p3QXUKXKZ0Hq78Y2wbF8/9FhEQGgXPZl7hUr176q4VkRCcRIkAEiIBdE1DIT6i2t1FMTAxPJOMi7fGWSzOuuyfc3ZyQfykHZaXF8PbxkxvV4eR8dIa3mDVyuApaUKFzp7NRW1uHXgkxnb6/e9sLD+LOzQNQf60UADsIrxT1qZkNhnZD9ZxH4sVvH8C0gUENXoYehj34DO7Ydi/WpNXhw6X34vA9y3H33H7w1hZg63/+hjW6Q9XUi57AvcYMeEMJW9nPKTQBt051xStbqrH9tSewIvseLFk4EqEeVTh3YDf+/OzXPMeJt0/Gji+2AbU7kJ65Ar3i23eG3uTBdFbmYCg5ts87tncU0lMywfpq78HKNq6E7hK6zBAzJfmxMY2Nbe5uboijO7xlN336BelFJBnespGRIBEgAg5EgAxvmY3ZvXt3eHp6Iq+oAqWaWvi0OPVXZjKKElOpnDAw1hMHUzTISDuFgYmjFVX/ppX10x2uVqo7oKhpmFKfz5+9yKveu1/nGTRlF2ob8J/dd6LhueVDr1GzsOCeWZg+pRdknW/tHob713+EgL8sxzsbtDj88Soc/rh5qpP+8hKeW5ZoND2trmyXW5ltlSNToy3kGRtOxxNz33oPF5Y+wE82P/zFx2B/Td2Cl9/F4wv98eoX2/ADgOLKRmYNcjViRricX9Pd4C8eTIXr5ERZq3OqYSAXkVqHfSb068kNb9ZXlW54C90ldFmHNYKNZsTGNOb694qEStX8FgAbLXKnF6u0vAL5hcX8txTd4d3pzUEFIAJEoBMIkOEtE7qTkxPi4uJw/PhxnMmpwNA4U3cFyUzYwcUGxXpxw/tc2klFG97iJOCSa3SquejyWWelmY/Y3tJqEuHfcZ+emLn6QwwvM2LisfvnPb0QEBSILr66o8rNKZx7GG576zuMveswduxKQVmVdBK6T3AUhk0bhrjw1nSIJ6av/hD9imrh1zXcSK6NMj5GZYCYuSuwdlgVPLsaWxofifu/+A6z9x7E7r1nwXpofaUWHhFxGDNtBOLCpdntP27/ADdWqhAaLV2N17RQXr0n46tNA1ADT0QYmAw3FS7SEmV16RKE1ugI+fb+FH1T9NX2zs+W0xe6S+gyWy5rR5SNjWnMDYzvLP3VEbW0bh7pOZLO79mzJ9/GYd3UKTUiQASIgO0TIMPbjDaKj4/nhndadiUZ3jK5DYn3An68gjMpx2TGcEyxoNCuvGJXcq85ZgUtqFXWGWnGu2eCdGOABUm0OUqXbhGQdt+3OSkjCajQfdAILB7E7sE2z/l0i0B8t1zgjLkAACAASURBVNbjyJFxD+yKWJObyN0QNXos/zOWY5fIKOOsXLwRGd+KqWwqXJepvLIaK6H1/UXfFH3V+jnYT4pCdwldZj8lb5+SijFtSELnrdhpn5q1X6rp2Y2Gd/vlQikTASJABGyXAB2uZkbbsBlv5s5cqDAjlrJFRyRIP8bTTh5VNIiAoFCoVK4oLiyFtpJOxmedIStdN+Md1/xE4OSjKSgsKFJ0f6HK2waBWF3fFH3VNkrV8aVgOovpLqbDmC4jB4gxbVi/eMIhkwDt75YJisSIABFwWAJkeJvRtGzGm7m0C3TAmlxsfSI94e3pjLxLF1BUeFVuNIeTc3Z2Rmh4d16v/NwCh6ufuRUqKihBlUYLH38f+Ac0P3Rv346DuGH0Yrz4+D+QejLd3KRJnghYjQDrm6yPsr7K+qxSndBZTIcxXaZ0x8YyNqZ5q93RJ5ru8JbbH8SMt5jEkBuP5IgAESACjkKARlAzWlIY3jTjLR+as7MTEtlycwCpycqe9Q7pKv1Ay8+VDruST9HxJPMvSi8fukWE6VVO7a1GdXUtNn23FUvmrcDyWx7Dtk27UFtrZC+2XgrkQQSsR0D0UdFnrZey/aQkdJbQYfZT8vYpqRjLhvaJoxcRZiBOybjApfv06WNGLBIlAkSACDgOATK8zWhLYXifzalCfb10UJIZ0RUr2rDc/FSSYhmwioeF9+D1F7NHSoYhGHTtHqKHwctbelEjAk4cPo1nHngFC8YvwdpV36CkiF35RY4IdAwB0UdFn+2YXG0rF1F3ocNsq3QdX5o03Vg2rJ+0/azjS2B/OdbV1SHtfA4veN++fe2vAlRiIkAEiIAVCJDhbQZEX19fsCswKrT1yLxUZUZMZYuO6CPt805NPqxoEKFdpaXmV2jGG2IGLdzAjDe7P9mQy7t0Be///RPMHbUYrz3zLjLPZhkSIz8iYFUCoo+KPmvVxO0kMaGzhA6zk2K3WzFTkg/xtIeT4S2bcWZuHiqqtIiIiAD7LUWOCBABIqBEAmR4m9nqAwYM4DFOnNOYGVO54mP66Qzvk0dQXa3cg8VCu+pmvC8qd6+7+F9QmC8dnhba1cCMt49hw1vE1VZpseHLTbh9xh/x4B1PY8/2g6iroxUogg99WpeA6KOiz1o3dftILV+ns4QOs49St08p2RgmDlYbNSChfTJxwFRPn5NelNJstwM2LlWJCBAB2QTI8JaNShLs378/f0gmw1s2uQBfV/SNcodWW4Wzp47LjudogmHdJMM7N/uKo1XN7PqU6u4z9wvQn/kwNuNtKJNDe5Lw+L3P49Ypf8C6z9ZDU043DhjiRH6WExB9VPRZy1Oy35hCZwkdZr81aXvJ2RjGxrI+sT0Q6K+vv9qeg2OmcCojm1eMDG/HbF+qFREgAvIIkOEtj1ODlJjxJsO7AYmsh3EDpB8oJ4/tlyXviEKRsdKp+DkZl1Fbo+yDwkqKy3kT+3dp/sOVnZ1gyanJOVm5+OcLqzB3xCK8/dKHyNHdF+uI/Yjq1LEERB8VfbZjc+/83JiuYjqLOaHDOr9UnVcCMYaNGUwHhJnTCqm6g9X69etnTjSSJQJEgAg4FAEXh6pNB1SGZrwtgzx+oC8+/OEKko/uxy13r7AsETuP5eGpRli3SFy+mIWL5y+jR89udl4j/eJryirA9oNWlFdCw/7KKlGpqeLPzC86vjuGTxqA0iLJ8PbTGd4bv/kVb7+4ChUVlW06uFCjqcDZ1ExUaujKP/3WIR9LCIg+KvqsJWnYcxymq2pr69C1exSYDlO6Y2MYc+OGkAFpTl84mUFLzc3hRbJEgAg4JgEyvM1s14SEBLi6uuLcpWpUVNbB04MWDchBOH6gDxdLST6I2poaqFyU2fWie/bhhnfW2Us2YXizk2YNzTBfysrD8YNnUFFWKRnR/LOCG9LMoB44sjduvGe6XtPv3ZyED1/6Us9feEy+YSQ3vMt0M96+/lK/cFY5gxnNTk5O8FR7okJj/pLx7pHhWPH0HzB+2iiRHX0SgTYTEH1U9Nk2J2hnCTBdxVxULO1nZmMXG8OYGzuITubmIGT8U1ml5Seas7GGZrxlACMRIkAEHJaAMq2fNjQnM7p79+6N5ORknMrSIDFeOjisDUkqImpoFzfER7gj7YIG7CqWPgOHKaLeLSsZ3TMB+3ZuQvbZXGBWy1B539ly7KoKLSrKJUOYzSR7enmgW7T+ndhpx89h09e/c4OZz0LrDGkWt7y0EuNnD8WfXrxTL+OzJ7Ox+pVv9PyFR5eg5kvEG/yDfdGjVzjUXh7w9PaA2ssdnl6eUHt78DLGJEh3mVdV1vAo7h7u/HPadRMwccYYbnSz+7rHx88VSZr89PZRY8mK23HzXdfD1ZVUmklgJGAWAdFHRZ81K7IDCHNdBYDpLqU7NnZVaDSIi+yGsKAuSschu/7JGef5qglmdHt6esqOR4JEgAgQAUcjQL9SLWhRts+bGd7H0snwNgff1KF+SLuQj6SDuxRreEdESfe+ph4/B2YUsxlljaYSmtJKVGgqEdw1ACOnDNLDemTXSfz7la9RUVbF5epbnOI9evpgPPr3e/TiFeYXY/emI3r+wqOqslo8NvuMiAnDjFvGcWNZGNHMuGfPzJgODDP8o3PouH5gf6YcM66ZE4aym7sb2B9zzs4ucHVzRbXWcNm4EJdzxrzbZmL5o3fCP8BPeLfTZy2qyrWAi4rvz1d5eMJdZX5WtVVaVNUAKtQCLm5wtyQR87M1HqMqH/u2n0El/DF4Wj/4W1An44nrQsrzsW/XGVS6+mPYxH7wbo88TBbCcgHRR0WftTwl+4x5/uxFXvConrSnmY1dzE0eMdA+G7OTSn087RzPeciQIZ1UAsqWCBABImAbBMjwtqAdhg4dis8//xxH0srxhzkWJKDQKFMT/fD++nwkHdiJRUsftWsKhVfycOLIPmjKS6EpL9N9lkKjkZ5jevbB7QbqWFpyjdc75WgGnrn7LT0GQyf0M2h4M8GCy9IVXOzZzdONG8Bqb09uHId2D9JLi3nEDYjCQ6/cxWW8dLPQ3IDmM9CecHE1bAVFJ0RgqW522mDCbfSsYdYnq4ebq8GU2MnmRYXFBsOYZ+KYQXj4ueWIjYsyKmPNgPLUzZg6+92GJP0eeBG/PGbmqo3yNDzV/2FIP90B59EPYMva69CZ8z/lZ/fj0fs/AJz74+MTr8O/Hbbwlmc2zyOhHfJoaJh2eBB9VPTZdsjCppMUM95RusMhbbqw7Vw4NnYxN2WE/svRds7arpM/lioZ3oMHD7brelDhiQARIAJtJUCGtwUEhw2TfnAfSSu1ILZyo0wc5AuVM5B26ig3VNVe0v7e9iJSVcmWYkuGsZOzM8Ij9I20C5lnsfGbTxoN5wYjWjKg2ZL4Z1//SK+ImekpeOP5B/T8hUdFeZl4bPbZIyaO72Nmy8Vj+/aAj59atyxbMqCj4g0fuNZvWBw+3PQCX7bt6eVucF92s4x0XwJDu2DcrERDQZ3qV1MjGd4uRpaGsxcKhgzviKhwrHhmKcZNGdmp5S/+cC+yVwxDD2mSXlZZrhze32B0swgqW9il4iJefHih3QaDjshDVgtYJiT6qOizlqVin7HKSjQoyCuCm5s7uhrQn/ZZK8tKzV6ysrFL5eyM8UOka0UtS0l5sY6lZvBK04y38tqeakwEiEBzAu32W6t5No71jb21ZYeEnMysQpW2Du5udMCanBb29lRhVB8v7D5ZjuOH92LUhBl60ZhBKozlCj57zAxgMaNcBh8fP4yaNFMv3plTx/HOy481MaBLwQ4OE27A0DF4daX+nuWiawX46bvPhJjeZ0lRoZ4f8wgJ64aJM+bDU+0N9gJB7dX8Mygk3GC8/kNGImHAMJw+fhC3/nE2hoyVd0CPu4cb3MMCDKbpiJ4t7/Jm+7jveXAxbr5rLlxs4WC+2l+w58Rd6JHoLxO/FkfWf9dMttbwu5lmMvSFCHQmgTMnMnn2PRMGyn7Z15nlbc+82ZjFxpQxgxLg49WZ61Tas5bWT7umphYnM7L5C+dBg2ilgPUJU4pEgAjYEwEyvC1oLS8vL7DTzU+dOoUT5zQY1tsWpq4sqEg7RinR1GJPcilKymvBntlnaUUtqmvrea5ffvSWQcP79PHD+PPyG4yWrHf/oQYNb6AO5zNSmsVjszRqb19uFAeFdG0WJr5ERMXi/j+/qjOefaBWe3F5T2ZMe3vDy9vwIWIR0b3wxIv/EsmY9dlHZ3izPd5yDW+zMrADYWY8a7XVqKmugUqlv9xdGN7sBdf822fhD4/cCXGfcmdWL+6GWzCy/gj+uyEDn/yaglsSR0G/9AZKWJyOHzZoAado3HZfAr5a+bMBIfKyRQKsjzJnEy98OhgQ01HMMZ2ldHdk7zaOYPJIMh7N6QunM7O5ru/Vqxd8fQ2Pp+akR7JEgAgQAXsmQIa3ha2XmJjIDe/DaeV2bXhXauu4Qaytrke3IP11s5cKtfjXd3kNBnQpN6BrUFwmxYsN98CPr8XrUUy/WIl5T5/R8xce59NTxWOzTy9vb6jVktErzSQ3ziZ7qr3QPbJXM3nxJapnAt7/fAvU3kzeB0xWpTLdvf0DgjFngf6p3iLd9vgUP2JTjkk/atsjD1tP08VdMryZ8S1OjW5aZmZ4Dx87GA89txwxvSKbBnXqc7ZTOJ6Y7cwN79JPf8e5R0ahl4w9y7l79yCJGW+jEhHrY3gVRadWjDI3SoD1UeZYn1WaS0mSlggLnaW0+jet78E9W/nXmWNsb+tO03La2vPBk2m8SMOHD7e1olF5iAARIAIdTkB5vySshJjt8/7ss89wJI2tFw21UqrykqmvB8or61CiqUFJufRZqvt0dXHCdaP0T5w+f7kKS17NaBanuLwetbrTsfvHeODofwboFeBaaQ1e/1K6x1UvkO1TNbLKPsTfFTOH+8HXywW+amf4ejnDV+0CXy8VXvgsB8Vl1chIO4nY+OYnYDMDet12w0a5ofyFn5u7B1hce3AJA4fyYqYnZ6GmutboAWf2UBdLyyhmuat1s4kt03n0+fsQHqF/PVpLuY7+XlPuishhwzAYXyGpdgf2Hr8XvUYZPtiusWwV2P/9Rv51/LTh6O2/ozGInmyegOijos/afIGtVECmm9JPZvPUhM6yUtJ2lwwbqwquXEJ4cAAGx8faXfk7s8AHkiXDe+TIzj2XozMZUN5EgAgQAUGADG9BwsxPNuPN3GFueJsZGQCbYT58phyl5TUo0dShhH9KS7LZ0mwvD2e8eI9053HT1M9erETfu06AGd+GXM9wN4OGNxPffVJ/U6m7mxP81M4I8DbcFboFueNv93bnBrOvWqX7dIEPN6RV8DdyN1D3YDdsfFV/JpyV+fT5Cqz+6QoO7t6qZ3gbqpOj+fn6BaB7ZE/kZKXjfOoF9Oyvf+ibo9W5ZX3cPVzAjiasqqxqGcS/26LRzQpWV6aBu19PTJ3qiqQt1fjkf6excNR46K8VaVKtghR8t0WaNR07LgbuR39tEmj6UXPxPI4cOY0C+MCzvBAVXqEYMnIweoRId6CbTqEWl06exNHki6hGNbRaT0QmDsSIvqHylsk3ZFCB84dO41R6HlhttNp6dOvbB0MSozv1ZPaG4rXTg+ij7p6GdWQ7ZdvpyTLdpK2q5rqK6SwlOzZWMTdzLM12m9sPDiVLK9/I8DaXHMkTASLgiASU9UvCwhasqqpCeXk5AgIaf3ywQ0Lc3NyQkq3Fi5/loLqmvmEvc9M9zT6eKvz2pv5M7OVr1Zjw4GmjJeoW5GrQ8GbpMeftyWaQmSEszSR7q1XcgO5u5Md49yA3bH87oZkBzdJiM+StOT8vFZ683fBBYa3Fay1szih/bngf2vMbFt77UGuiDhvGlm4ywzvl+DlFGt7efl64erkIJUWl6NqtY1eMtLVT1cINI+fPBbZ8h6oN25Hx/HgktLJ1MXP3XvAFuy7XY2iMGuX7jbw10ytYMba+8R6e/WCPXgjzWPDyG3hwYb/Wjf7iLHx03wNYvV+6N71pQvGLnsBzC8Sp5k1D9J9LUg/izdnPY7N+EKCaiLe3PowRPeS+CDCUiO36sT7KnLevl+0Wsh1KxnQTc7TMHGBjFXOzyPDmHOT+U1RajrPZuXB3d8fAgXT3uVxuJEcEiIDjEnBow5sZyyUlJc3+tFotZs2apdei165dw5133tlMVsRlccLCwnDpUuOSazaQsOXme/bswUv/zdVLT3gE+hhei93FxwWj+3jBx8sFPnwptliSLX0G+xv+QRwW4IrKzcPhbDhZka3eJzOwx/Zv3+u79DI14jFlsB/cXJ2QdioJhVfzERAUYkTScb3Zj9nNG79E2rFzmLt4suNW1EjNfPwlI6b4WokRCdv2Dh89AoPxHZLq9mPXoTwkTDH28qAYB77+hVdm2INjwHr6WVlVK8Sa2+/ESp3BHHfDYiyaHgmUl+Do6vexIa0O3z7zBE5ffB4fPj7SsPFdnoHnB/+pwVh2GTULK27sD3VpFn5+8Wskff4GFn9uujCFx37AnBs/kASdonH3/92MxL4BuHryAP764vdA7Q48PCkLL/32D0yNkbHh3XSWNiUh+qjoszZVuHYsDNNNzCnd8GZjFBur2H3uk4aR8WhOlzt06gzYTSVshaCrq+HfNOakR7JEgAgQAXsnYLOGN7u2IyUlxaAhzAxidqfqSy+9pMe/qKgI0dHRPF7T66SEoJ+fH5hMS8dOrP3xxx9bevPvbGab/bV0Y8aM4Yb3iD5emDPSX7eHuXEvs4/a+FJsH09n7HxP3lVSLfM11+huGb+zv3t6OGNGoi827ivGvh2/YM5NHXu4WWfXn+Xfd7B00MypI2f5FTXs9G4lOV8/yfAuslPDG369MOt6NyRt0GLtumO4Y8oMg8utay6m4R2d8Txrmvy9oSmfftBgdM9++Z94emFCw7Lw6QsmYfS7L+HJt5OQsvIFfDb8Uywd39Lwr8XelW83GN2T/vIq/rpsUIOBft3CmVizYhlW6pbAG+17VVl4R2d0OyVcj0/XLEVcgO4c98SBmDp3Mt5d/BC+ScvEczP/iz4pf0S4rGPejeZocwGij4o+a3MFbIcCsbHz5GHpFZHQVe2QjV0kycYo5qaNHAS1h2Ou6mivhjiQLJ3XQsvM24swpUsEiIC9EWh3w5sZyKtXr+aGcGlpqZ4hXV1djR079A8bqqysRL9+zQ/eagqXGcKGDG921ZcwrNVqNb++gl1hIf66dNE/eIyl6+3tjY0bN8LHx6dBVsRhs9uGHDO8mfNwccJTi7oZEiE/IwRunBDIDe89239SpOEdHhGNsPAeuJybjYxTWejVP9oIKcf09ukiXcFXXGifM96AJ0becCOw4StUb9mK1MLpGBygv20jc+fvUgO63oyh8TJng6sy8NWLu3m8hAdebGZ0S4l5YvyDT+Oh/bdxo/7j13fi5vG3oNmN4sVpWPtBOhdXL3qqmdHNPd3DcMfKlbg6dzm+SWu8715Kv/HfzI3/k4x35/54f81yxLWooyqwJ1asfhrfjPsbULMBP+65CcvGmzpsrjF9e3gSfVT0WXsoc1vLyHRSWbGG6yimq5Ts2BjF3A2TRysZg0V1P3CCDlazCBxFIgJEwGEJtLvhzWby7rvvPqMAnZycDM74MaO5f//+3CAWBnBLo5gtYWLxmzq2nIktG2ey5pxCy9K57rrrmiZl8nn0aGkgPpSmQU1tPVxUzctiMgEFC8wd3QUqZyckH92LkuJCKPHwnqGjJuOnbz9F0t4UxRneASGSmZh3Kd9u/xcEJ47EOHyFXXXJ2HbwEgbPbHkWQiF+X7Od12/y0+P4MnM5lb2yf3fDTPVdCwc3zHQ3j+uN6Y8swTu3rgZOf4Lf067DvCaGfc7e7fz6MhbnqaUjGma6m6Xh0h3LXl2Ob8Qy8maB7Eshtn0k3V08/M93G3yxwKRcuo3E35f0xJOfpGPtF/txx/jrDM7+6yVvJx6ij4o+ayfFblMxmU5ijukoJTs2NrExSuXsjDnj6Dosc/pCTU0txInmY8eONScqyRIBIkAEHJZAhxjeK1asgIeHh95MsjCkWxrPgvaJEyfEo1mf/v7N5n7MimuOcFBQEOLj45GWloZj6eVIjJdm8cxJQ6my7NC2qUN88OvhEuzfuRnT592mOBSJoyXD++ju07hl+WxF1T8kXDqoMPfCZfutt1c0Ziz0wK4vK/Hd2qNYPjMcTTVAZVYyVutmk6dPkz9reDUzR2LSZwkGhhtX0QEDBmEcgF0AqmuaH55WcU23nabPEiS2duiZRyv7LsuvIU1X/lEj9G9YaGw4FbrGsqvfpBn2Rn/HeBJ9VPRZx6hV67VgOok5pqOU7NjYxJbdTx01GP4+yjpcr63tfuzMOZRpKhAXF8fPyGlrehSfCBABIuAIBIz/qrNi7d59910rpmZbSbHl5szw3nOyjAxvM5tm/oQAbnjv3vajIg3vAYmjoHJ1Q8apbJQWlcHHv6nZZiZMOxMPCQ/kJb6UY78z3oAbBt+wGPhyNer2/YzT+TMxPKRRpZ79hZnEgPPoZa0a0C2bzsVN2tri2l0Nw5tcRAwXiI0zR09cxoK+TQ9PlJuGSMvApwtbUC+5d+bfgncMiLT0qt56Cjna69BL/0iMlqJ28130UdFn7abgFhaU6SKmk5huYjpKyY6NTczNn6xsDpb0gV1HT/JoEyZMsCQ6xSECRIAIOCQBZZ3o1A5NOH78eJ7qzmPF7ZC6Yyd5w9gu/HT2pAM7UVxU4NiVNVA7Dw81+g8eyU99PbZPOoTGgJhDeoV0kwzvi/Y84w0gYEAiprMWqs/E5l1Nbze4gt//vpe33az5Q5vvv261RSuQukPaF15b1qog4N4V/abqZqy1TWXNSKNptBbP5ZlnGpa8twhq5asHGl89tCJmR0Gij4o+a0dFt6ioTBexbVxMNzEdpVTHxiQ2NrHtcnMnjFQqBovrvevoKR6XDG+LEVJEIkAEHJCAo/1G6vAmmjRpEs/z92OlqKurh7Mz7fOW2wiBvq6YnuiHXw4WY/cWZR6yljhqMo4d/B3H9pzCuFmJctHZvZx/oC/c1W4oLSpFUWEx/AP87LNO7t0x476e2PxBOjZ9fwR/WtCDG9nlqcexFvWAUzSmT2ptmXbLanui5+gRwJbdUJlaAFGTj7NbangCnt5NVbknek8cD2zZajqNltk3+e4VESMtZXeKxpu73sLo8Nbn35tEdZhH1jdZH2V9lfVZJTimi5hjuknJjo1JbJn5zDFDEeSvjLa3VnszbvuOSdsVxOSEtdKmdIgAESAC9kyAZrzb2Ho9evRAbGwsijV1SEovb2Nqyot++1Rp5nP7r98pr/L8x+1EXu+je06jtsU+XUcHEtlTOows48x5O66qCv1mTePlr9v3G07nSobwmc3SoWSu065H/xYngZuqrItumbbJGe+qclxmxj2AAb1bXidWxf1ry6rRfPe3qdybhuuM+fpMXLpmeSpNU7S3Z9E3RV+1t/KbW16mg5guYi5xlKSbzE3DUeTFmHTLTGlVm6PUqyPqkZyeheIyDb/aNSLCnBePHVE6yoMIEAEi0HkEyPC2AvvJk6WZgW1H7fVqJCtAsDCJ68cEwNPNCSknDiEvV3eolIVp2WO0iOheiIjqidIiDU4ePGOPVbC4zJFx0hV86SmZFqdhCxF9ew/BPFaQ+kxs28eWm1/B9reP8aLdcvOghn3Scsvq2UU6HJLtG0/Olwx5Q3FLzp7kB6sZCmtIY++/sT9bMsINybV65ba7F8IgreA5ejjLUPQGv/KM49j++1mUNVvy3hBstw+ib4q+arcVkVlwpoOYLmI6iekmpTo2FrExydPNDXPHj1AqBovr/fuRZB6XlplbjJAiEgEi4KAEyPC2QsMKw3t7Ehne5uJUezhj3hjpiKidm9ebG90h5MdNvZ7XY+9vRx2iPnIrEdlLN+Odek5uFNuUc+mOmQ8P5mXb/NsJXEw9jnVsJtp5JKYMazkTbboK3cdP5Uu8mSH/+Xpje/8rsGXlZ1JiCYswpm/zvbgsDalEwOtrjhqZ9S7Dz6s+NF4glzDM+r8xPHzbS98gRWNMtAK/PvcMnr77QUy78XtUGBOzQ/8MXd8UfdUOq2BWkYUOEjrJrMgOJCzGorkTR8DL08OBatYxVdl2QHrxKH4bdUyulAsRIAJEwPYJkOFthTYS+7z3nCpDdY209NMKySomCbHcfOvP6xRT56YVHTdlLv96YOsJ1FQrZ0lvVC9pxjvlpP1fQ5UwXVr1Ur35fdw0+03enuqFkxBrydZQr3jcfF9PnsbB157AZ1ubHtrGvLU4tOpNvLGlmsssenQapA0b/Kv0j1dPLNalUfrRi3jly5MtjO8ybH3jZbyxofUp6oS5cyUDvm4/li77BtkGxNM3rMUb+6V+e9OfRpg9w9+k1Db3KPqm6Ks2V0ArFojpHqaDmBM6yYrJ21VSW376hpf3ttnKXm5vSaNpq6uxK0k6J2DaNGkbjiXpUBwiQASIgCMSIMPbCq0aGhqKvn37QlNRh0Oppo4itkKGDpbEjGH+CAtQIScrHSknDjtY7UxXp0dML0TG9kZZqQbH96eYjuAgEjF9ekClckZG6nmUlxmdTrWp2ho78Myj90As1i3LFgW+c/YAtHarlrG0WPxhDz6DO+Il9fzh0nux4m/rceR4OtIOHcDKZQvw4N/38GzUi57AvVMMzaqrMPrBx6Ul8AB+fuYJTF6+Cpu3HsORLb/htVm34tkPpFkpUV6Dn4ED8NzaP/Cg2r2f4NY+f8YXPxxDxrkLSNu7GyuXPYA7HpHOZ2DXpt07U1rFYDAtO/NkfZL1TdZHWV91dHfiQCrXQUwXMZ2kVMfGoIvZGQgL9Me0EYOUisHieu9PToOmogr9+/en+7stpkgRiQARcFQCZHhbqWWnTJnCU/rtMF0rZi5SlcoJd0wP4dE2b/za3OgOKIsEewAAIABJREFUIT9et9x8328yjCGHqDHg5u6KmD4R/Oqik0nGllTbSGVrpNnl6hxjh5UFY/yTTX6kO4/E+KHSXu2WNajRFnIv42kBcA/D/es/wkPXS6b74Y9X4U/zV+DuW/+KNbqTzCf95SX8+NJk4zPM7pF4KulfDQa89rf1eH7pU/jTsn9iQ1odkLAIn+96S3cdWh6M7SbvOnoBfvruMcSyUtcl472Hn8Liqctw9+KXsWaLtE0g/vblWPfv+YavTdOxA8qN5tGSkS18Z32SXavF+ijrq47u9m5O4lUUusjR62usfmIMun3OJKhUrZ6CYCwJRftvPSD1I5rtVnQ3oMoTASJghIBTPftlQa7NBDZt2oTZs2djaLwa+1f2a3N6SkvgzIVK9L37BDzV3li7KUlx98dezDqHZbeMg9rbHR9vew0urk2vh3Lc3vDZP7/HxjXbcM+Dt2Ppw3fYbkWripGVeQU16iDE9jBsUKO8ABk5pVIdXH0QG6O3AJyH1ZYX4HzONcCzlbQaSNQi59hh7NiVgrIqSVX7BEdh2LRhiAs3dd+YSKQCqTsPYO+hTLCV4vWVQNfEkZg6MwHe0OJiWi4q4Y6I+K6tztCjqgDHth3A/lPsEERmiLohIDoWiaP6Iaa1stSUISvjKmrgiYj40NbzEEW2gc//vL0GH7/7BebeMRl3PTrfBkrUfkWoqa7BPZP/Ak1ZFf79zS50i4xpv8xsOOXKSg0WzxqMCk0Zjq17H3GR0nYYGy6yzRVt3N2P48jpdPzyyy+YMWOGzZWPCkQEiAAR6EwCyvh13wGEJ06cCHd3dySdrcDV4moE+Tn+DIk1scZFeGBEghcOpJRhz7ZNmDJ7gTWTt/m02A/dmLh+OHfmJI78fhIjpjSZPbX50ltewN6DYrjhffSAtLfU8pTaOaa7HyJ7m7hr3CsQsfGGje2mpVPJlJPiqNB90AgsHtSWk5U90XvCRP7XtBzSsxu6xUfpexvycQ/EoFmzMWiWocBW/Fy8ERkv9yVBK+l0cJDok6yPOro7/PtJbnQzHaRUo5u18Z6tP3Oje0T/eDK6Lej0hcWlSEo9Bzc3N4wbN86CFCgKESACRMCxCdBScyu1r6enJ5jxXVdXj18P0XJzS7DeMzuYR9v0/RpLott9nKmzb+Z12PL9Xruvi9wK9B8WB2dnZ5w4fNpu9nnLrRvJ2S8Btr+b9UnWN1kfdXS3VadzhA5y9Poaq9+m9Wt50F3XTzUmQv6tENh26Djq6uowduxYqNXNb1poJRoFEQEiQAQUQ4AMbys29axZ0lTQrwfJ8LYE622Tg+Cjdub3p54/q5xDxgSrybMXQOXqhmN7U3H1srQPWIQ56qfaxxNxA6JQV1uHw3uVs7/dUdvTUerF+iLrk6xvsj7qyI7pGqZzmO5hOkipjo057O5uH7UaN0+j2VpL+sGm3Yd4NPFbyJI0KA4RIAJEwJEJkOFtxdYVg83mg9f4zLcVk1ZEUuxO7zumBfG6/qzAWW8fvy4YO3E2P9Bp6/r9imhzVsnBY/vwuu7bKf1oU0zFqaI2S0D0RdE3bbagVigY0zXsqBeme5gOUqoTY87tcybS3d0WdAI20715z1Ee87rrrrMgBYpCBIgAEXB8AmR4W7GN4+LiEB0djYLSOhw5U27FlJWT1PJ50unm2zZ9iwqN8hjOuGERb+xt6/fxJXtKaPkhYyTDe8+2Q9wAUEKdqY62S4AZoawvMif6pu2Wtm0lY8YS0zXMCd3TthTtMzYba9iYw9zSG2faZyU6udQHTp5BQXEpYmNj0bt3704uDWVPBIgAEbBNAmR4W7ldxKz3z/uLrJyyMpLrE6XG2H5e/ICbHb+uV0alm9RywNBR6Pr/7F0FWFRNF36pRRCkBEERUAwsbP3s7u5PfxO7C/1s7MTuFrsTuwu7EBNRUAQEpQVZWPifc5ddwgWJXdzdO/M8PNy9d+bMOe+cO/eeO2fOsbbDj2/heO7BD3f7Yg5FYV7YFN+//YDnk9ep0GCHDIG8R4B0kHSRdJJ0U50LzTE019CcQ3MPXws9ayiSeZ1KZVDWXv1ztitinCVu5u3atVMEeUaTIcAQYAioBQLM8JbzMHbo0IGjeOouP/boyhk+jtzQDoW4/2cOb1cEeaWmqaGhgRbte3E8SgIeKTXDcmKudvMqYpnP3pQTRUaGIZAzBK4m66BEJ3NGRTVaSeYYmnNo7uFrOX1oGyf6oK5stTunOnD+tthLhLmZ5xRB1o4hwBDgAwLM8JbzKDdq1AiGhoZ4+fEXfIPi5EydH+S61DeDlZkW/D6+w7MHt/khdCopm7btDk1NLTy64cWbIGt1mlfmELh27jZvXOxTDTk7VBIEyPX66lnxnCPRSSVhTe5sUFA1mmNorqE5h6+FnjGfP72HVUFjdG5ch68w5Eruz99C8MrnM/fuU79+/VzRYo0ZAgwBhoA6I8AMbzmPro6ODtq0acNRPXmHrXrnBF4dbQ0M72DJNT11cGtOSKh0GxMzc9Rr2p4zQM/u58cKcPEyNihkbYYfIeF4cu+FSo8fY151ESDdC/0eDsuiBUE6qc6F5hb60EBzDc05fC2SZ8yQbm2go63NVxhyJffZWw+49i1atAC9A7HCEGAIMAQYArIRYIa3bFxydbZjx45c+zN3w3JFh8+Nh7azgK5AA488ruKrnw/voOjyv6GczFeO3UVMdCwv5G/YviYn58mD53khLxNS+RCQ6F6DdjWUjzk5ckRzCs0tVCRzjRzJqwwperbQM0ZXIMCgTi1Uhm9lY/TUNXEWDsm7j7Lxx/hhCDAEGALKggAzvBUwEhRgTSAQ4I7XT/yIjFdAD+pP0rSADno3NeMEPXVoh/oLnE5Ce4cKcKxaB7ExcbhywiPdVfX82aT9P9DU1MDNSx4ID41QTyGZVEqLAOkc6R7pIOmiOheaU2huoTmG5hq+FsmzpWfrBjAzLsBXGHIl9/fwSNx59pp752H7u3MFJWvMEGAI8AABZngrYJALFCiAxo0bc7m83e+x6OY5hXhMF7G7+eUzBxAR/iOnZFS2Xedewzjez+67AVGCSGXlyCrjpoVMUKlOWYjiRTh/4kpWm7F6DAG5IEA6R7pHOki6qK6F5hKaU6hI5hh1lTUzueiZQs8WKqN6sEjcmWGV2bUzN+9zWxaaNm0KIyOjzKqyawwBhgBDgPcIMMNbQSogiW5+4hbb551TiCm1WOuaRhAK43Dm0M6cklHZdtXqNEJRu5Jcup+7F5+qrBzZYbxZ59pc9WN7z7Iga9kBjtXNFQK015l0jopEB3NFUIkb01xCKcRobqE5hq+Fnin0bGlZtxpLIZYLJThxTZwHvkuXLrmgwpoyBBgCDAF+IMAMbwWNc+fOnaGpqYnLT6IQ8VP9VysVBCMm9yrMkT5zZCd+xcYoqhulpEvpfTr/T7zqfXrPVaXkUd5MVa1fHhZFzPDVLxC3r4j3Dcq7D0aPIZAeAdI10jnSPdJBdS6SuYTmFr6mEKNnCT1TqEzs11mdh1uhsoVH/cTNh57cu45ksUGhHTLiDAGGAENAxRFghreCBtDCwgKUWkwYnwgW3TznINcpb4ja5fIjOiocF07uyzkhFW3ZqGUnGJuaw/fdVzy+9VJFpcg62/Sxql1v8Srcvi1Hs96Q1WQI5AIBia6R7pEOqmuhOYTmEppTaG7ha6FnCT1Tajk6oE7FsnyFIddyn739EPEiERo2bAgzM3FMllwTZQQYAgwBhoAaI6C+bxhKMGg9evTguDhyjX/7k+UJ/6Se4lXvE/u3ICGBX8HqdAS66N53FAfnwQ1nkZSUJE9olZJWow7/wMBQHy+fvsHLZ2+UkkfGVM4RmDlmEd69Vp5MBaRjpGukc6R76lpo7qA5hArNKTS38LHQM4SeJVQmsNXuXKnAiavJkfGZm3mucGSNGQIMAf4gwAxvBY41uZtraWnhytMohLLo5jlGus0/xihnp4vvwQG4cuZwjumoasNWnXvDzNySW6l6cE39c1zn09NFix51ueHasWa/qg4b4zsDBIK+BqN/21FwGb8EgV+/ZVAr705vXy32pCGdI91T10JzB61201xCcwpfy+Uzh7lnSVl7G7SuW52vMORa7tCIKFy5/4zzEOnatWuu6TECDAGGAEOADwgww1uBo0yuV82aNYMoMQkn7rCc3jmFmvYhTu9jzTU/5LaGd6veAt186NF/rFj+jed4EXSs7f8aQVdfgPs3H8Pz6eucqg5rp4QIWBcrwnF16dQNdGs8EKvmbUJEWORf4ZR068GtJ5yukc6pa6HgcYc2nuPEo7mE5hQ+FlrtPuy2hhN9ysDuvN3jLo+xP3HNA8J4EfeOQ1vrWGEIMAQYAgyBPyPADO8/Y5SrGhJ388PXWHTz3ADZpb4pytjqIjjQH1fdj+SGlEq2bd7hX1hYFsEXn0B4XFL/COeGxgZo97/G3FhtWb5bJceMMS0bAdtkw5uuUvquQztPoXPDAdi98SDifsXJbqSgsxLdat+7MUjn1LXQnEFzB80hNJfwtdCzg54hDsWs0bmxOIMCX7HIrdyHL97iSPTq1Su3pFh7hgBDgCHAGwSY4a3goe7YsSMEAgFuvIjCtzChgntTX/KamqlWvXetgSghQX2FlSGZjo4A/zqN564c3nQeiaJEGbXU61T7Po2hb6iHJ/de4PG95+olHI+lsSkm9l5JDUFMVAw2LnND14ZOOH3oAkQixWeCIJ0i3SIda9db/JEnNU/qckxzBc0ZVGgOobmEj4WeGYd2pax2q3MQPUWP79fgH7j7/A10dXXRqRN/g/QpGmdGnyHAEFA/BJjhreAxNTY2Rps2bZCYmIR9l1mQtdzA3a2BKRxsdPEt8AuunOXfqnfTNt1gWcQWAX7BuOH+IDdQqkRbMog69m/K8bp6/hZeuNirxMDkksmiqVa805P6HhyKRVNXo3er4QpNJ0eu16RTVEjHSNfUtdBcQXMGzR00h/C10DODnh2l7azRtak4hgRfscit3Ecu3+bm4/bt28PQ0DC35Fh7hgBDgCHAGwSY4Z0HQ923b1+ul72XQ/KgN/Xtgla9Z/QVr5bt37YC8cK8dUv928hqaWujz5BJHBv7153Brxj1l5/23ZoXNsWHN59w+tDFvz0ErH85IGBtK85SkBkp3w9fMHnIHAztPlEhke1Jl0inSLfUeW83zRE0V1ChuYPmED4WelbQM4PK1EHd1TplXF6M7+ELYjfznj175kV3rA+GAEOAIaA2CDDDOw+Gkla8KdDay4+/4OnzMw96VN8uujc0hWPxfFxU2rPH+Lf3t0GLjihdrgrCv0fh+I5L6jvQyZIJdHXQZ1wH7tfm5TsRHcnuH1UfdD39fChYKGs5fz0fv8aQLhPw37C58PvoLxfRSYdIl6j0HdcRpGPqWmiOoLmC5gyaO/ha6FlBWTEqlLRDt2b1+AqDXOR+7fMZz999BHnztW7dWi40GRGGAEOAIcAXBJjhnQcjraOjg3//FQe02XPpex70qL5dUITzeQOLcgIe3LUGsTH8MsRI/qET5nLyn9lzFcFf1V+fajergjJV7BEeGoXNy3epr3LzSDKbTNzNZcFw69I99Go+FEtmrAG5o+emkA6RLpFO1WpWOTeklLotzQ2ndl/leKQ5g+YOPpaYn9GgZwWV2SN68xYHeY39nrNinaJ3GtrjzQpDgCHAEGAIZB0BZnhnHatc1ZS4mx+48h0iUVKuaPG9cet/TFCnXH5EhYfixH7xPk0+YVK6fGU0btkF8UIRdq88yQvRB0/pBk0tTRzbe5alF1ODEbcpLk4plh1RaF+217O3iIyIyk6zNHUpfdjRPe6cLpFOqXOhuYGixtNcQXMGX8vJA1u5Z0XtimXQqk41vsIgF7kTEkQ4cO4GR2vAgAFyocmIMAQYAgwBPiHADO88Gu0aNWrAwcEB38JFuPwkIo96Vd9u5g+24YQ7vm8DIsL4F7Su/6hpEOjq4f7VF3j92Ft9BzpZMpuSRdDJqRmSkpKwaMoqxAvj1V5mdRYwuyvetFrbe2hX7DixGsVL2uYIGtIZ0h0qpEukU+paaE6guYHmCJor+Fro2UDPCCqzR/bhKwxyk/uCx2MEh0agbNmyoHcaVhgCDAGGAEMgewgwwzt7eOWqtmTVe9e54FzRYY2BuhUM0bqmEWJjYrB3iyvvIDEzt0SP/mM4uXe4HuNFerGug1qisK0FKPDWrvUHeDfm6iRwURkpxTKSz7KIBdYfWIKR/w2EjiDn+7FJZ0h3SIdIl9S1UPowmhOo0BxBcwVfCz0b6BnRsm411K1Ulq8wyE3uPWfEbuZstVtukDJCDAGGAM8QYIZ3Hg54v379uGiqpz0iEBKewYqdKAnRvxIRJ0zK9h/XTvHpb/MQscy7WjLMBpqawIWTe/H5o/qv+qZHo/P/hsDCyhq+777i7AGx+1/6Our0W0egjREuPbk9mrvWH1JItGt1wkuZZSlql7XV5padGmPvuY2oXKNCrsR5+ewNSGdo5Zx0iHRJXQvNBTQn0NxAcwRfCz0T6NlA+boXjunHVxjkJndIWAQu3HkCLS0t9OnDvAfkBiwjxBBgCPAKAWZ45+FwFy5cGG3btkW8KAluF2UFxUrCrtnPYNLmMQxaPcr2H7XrcIo/buwONnoY0tacyye6Y+28PBxJ5ehKoJsPI5wXccwcWHeWF4HWHCqXQIf+Tbgxdxm7BD+jY5RjMBgX2UKgSFHLTFM6GRoZYMG6aXBZPgn5DfWzRTt9ZdIR0hXaI066QzqkroUCqtFcQIXmBpoj+FromUBjPrBzczjYiQNy8hULech94MINxItEXCTzQoUKyYMko8EQYAgwBHiHADO883jIhwwRr0Bsd/8ms2dhTO4Cr4VmsJAus7M8PBnwJQbu137AKyJRrr269LeGob4mHnlcxbMHt+VKWxWIVa/bGA2adYQwTohNCw6pAsu55vHf4W1RvExRBPp/g6vL+lzTYwTyHgFtHW1YFZX98l69bmXsu7AJRqYFcOPi3VwzRzpCukI6Q7qjzoXmAJoLaE6guYGvhZ4F9Eww1NfDjMEs17Q89GDnicscGScnJ3mQYzQYAgwBhgAvEVBffzslHc6WLVvC2toaH/z9cfNFJBpULJCKUw30nV8JnYXpjVMN6GolYvU4T8z5lIjG/e1xqJsxEuLS1wO09ZVwSGN/oW9/L9wEsGR9RZQ3kl8KkoJGOpjSqzCmb/PH1lUuWLvnErS0lRCDVKMs78OhE+fi6f0b8Lz3FjfdH6JBW/UOeqOto4VxC/vC+d+luHDiGueG3L6H+u7Zlbe+KAs9CrD21S9Qyo5AoIORU5zQrV8HvPXyxqheU6BvqA+HCiVhWdhCWi87B6cPXeB0hHJ1j1vUD6Q76lro3qc5wNDQGDQn8LWIEhK4ZwHJP8mpK8xNjPgKhdzkvvXUC+98/SHx2pMbYUaIIcAQYAjwDAG24p3HA077oyRfjLe5/x5kLZ+eFsiYTPunDUMDHVhbiYfLyEQHxvlk1dOBsY4S5mrV0kBhiPnKpyV//sZ2sURxKwH8Pr6D+1G3PB7Rv9+dkYkZBo+fwzGy0/UYIkNznm7p70uTNQ4K21li6Ix/ucquLuvw2vN91hqyWkqDQOrI5qXKFscu93Xo3r8jtw+7TIVSaNCiNmKiYjBn4jLOZTi7jJNOkG5QIV0pbCt7hT27dJWxPt3zdO9TobmA5gS+FnoG0LOgWBFLjP63PV9hkKvc249f4OgNGjQI2jz7sC1XIBkxhgBDgPcIMMP7L6jAwIEDuf2Nx++EIywqIfscCHPnjp79DpW7ha5AEytGiVMM7d26jJfpxZq06YrKNRogOiIGO5YdVe4BkxN3tLLfskc9Lp/5tBHzER7Kn/gGcoLwr5KxKV6UM7L7DuuGbcdXoVgJcYpACVNTF46Fmbkxnj/wwoFtxyWns/SfdIF0gnLdk46ouxcI3fN079McQHMBX0t46HfQM4DKsolO0M1FFHy+Yphe7uDQcJy6fo97Zxk8eHD6y+w3Q4AhwBBgCGQDAWZ4ZwMseVW1sbEBuZwLhYnYfi5EXmSVmE7KKreudsqxPBlu848JWtYwQkx0FHauWyhP0ipDa/TUJRAIdHHnwlPcu/JMZfjODaP9J3ZBqYp2+BYQgqmcoaWkQQ5yI6Sati1X2QEbDi7F8MlOMtOEGZkUwIxlEznpNy7fBe83H7OEBOXrJl0gnSDdIB1R50L3Ot3zlLOb5gA+l13rF3HPgBa1q6B1XfXecpNX4+x25gqE8SK0a9eO2yaXV/2yfhgCDAGGgDoiwAzvvzSqI0eO5HredOobEhPzagU7CW+9IuHmHoyt7sFYd/wb3L1+IjqrtrAwAU+fhUvbb3UPwSWvn/iega2TECvCl2AhAr7G4iXEMvoFxeF7RDx3/ktoPDLKfhYSGAv3a985HolXt1th8AoUZjpaK0fZQkdLA5fdD+KdFz8Mz9SAFCpcFAPHuHCnNs89iNBvYakvq+Ux7dmdtGwgTC2M8PyhF+ZNXoGkpLy6n9QS0jwTqnRZe1SqXj7T/v6pXw1d+7SFKF4El3FLEBeX+RxAY086QLpAOkG6oc77uukep3udysDRM0FzAF/L25fPuLlfR0sLrs5sZVYeekBR4XecuMSRGjZsmDxIMhoMAYYAQ4DXCPArCpUSDXWrVq1QokQJfPjwAWfvh6NdbROFchf2KRJjB73DgWQDOG1nxji31x7NrDIOPPT0WiBqLviStpn0ly7mzrfH1FoG0jN04HneDzXXp02btmjGa4gTYFENXXicdUT1fCmWf0J4LFyWv8FSD9ku+I5NreA22hrlDVLaSDotUSQfJnS3xJIDgVi3+D+scjvP5RyVXOfD/7bd+uHxvWt4dPcK1szcA5fNozl3XnWW3cTcGNPXDsO0AStx+fQNFClaCEMn9ldnkXkl26ipg/Do7nN88v6MHWv2YfikARnKv2WFG6cDuvoCTidIN9S10EcGusejo2JQvU5T0L3P1yISibB+yX+c+GP7dIS9tRVfoZCr3JfvP4NfQDCKFSuGFi1ayJU2I8YQYAgwBPiIAFvx/kujrqGhAcmqN608K7KEvA2FxaC3yUa3LqaMLIZLqx2wZ2Th5G7D0bq3Fw59kb107XMvKJXRbYhV00vgBte+CMTrVXGYRQb1s9g0YhhZGaBhbVP0qpSiZprFC6BXUzP0amqMhnVMYJTa1hfFw6WLl9To7tClKE64OuDS4hKYXFucy9fzSiCqjv+CwN/tbq7vGX2LwK6QAB+9X+HUgW1p+OHLj3EzlsPYtCC8Hnnj9O6rvBDbtpQ1t7qpqamJXesP4dhed17IzQchdfPpYvaqyajTpAa6D+iQocg05jT2pAO00k06oc6F7m26x+lep3uez4XmeprzbQtbYKpTdz5DIVfZ1x08w9Gj1W56Z2GFIcAQYAgwBHKHgEYS88vMHYK5aB0REcGl54iJicHLnRXgYKOXCbUk7Jr5DIM9EtBpZGkc7pzFFClCIfq2esEZ3ZrFC+KBqx0qGaUYwgnhvzDZ2QtrP1FqMjO8u2yP4imXASRhy8SnGPlcBL2mRfFxmhUKpvbkjf2FCW1fYi23ki6rPQCREH2bi3nYtK0KBhaT7WgR9SkMpoO8uZXwjesdMMghbdqxl9cCUGWBP4fRMJdyWFs/v0y8Lj4KR9sp77k9j5sP34CFpXq/gMsC4fHd63CZ0BtaWppYvNcZxRz44YJ69aQHNs45wEEyc9lEtO7SVBY87JyaIXDu2BXMmyQ2Poe79ESTjrXVTMK04nx6+wVTertCJErEnBV7Ua1Oo7QVePQrOMgfQ7s3hDAuFidXz0LzWlV4JL3iRH3r+wVVe4yBnp4e/P39YWKiWK88xUnCKDMEGAIMAeVBII2JpTxs8YMTIyMj9O3blxN2w8kghQj99vq35JVufVxMZ3RTh9rG+bB0Qenkvn9g15O0q9YQxuPZc3G+8JX/mqc1uqmVXj7MXG3HtW/UTh86yZTS/EuVlzwu4ffc45K6Xz/FJB/qoU2ZtEY3XajQuBAWFiOV1UdF04xVt0V1Y3RraMK9iG1cNkNCnlf/6UW8XTcn7sV85dRdiIvNfG+suoBDBle/iZ04cRb8txLXzt1WF9GYHBkgQGNMY02Fxl7djW66l+meJqOb7nE+G9005jTHk9HdtVkdZnRncI/k5PT6g+5cvIx+/foxozsnALI2DAGGAENABgIZWy8yKrNT8kdg1KhRHNE9l34g8mdGocZy2m8Cjh4Ru7E3HmKNhqlWulNT1C5kiONdxCvoy8+EpQ22JtBC8WRX8TvPfqZuJj02KW+OsLPVcWmcFYrK0qgs5u42s5AY2yL4x6ZeVpd0pYXxG6rg19XyGFQ+M+8AgAKtGepr4uGdy7h9hZ9ux06jp8OmWCkE+AZjywLxKrAESXX+3653Y/QY0ZrL/Txz7GJmfKvxYJPRTWNMQaBozGns1b3QvUz3NN3bdI/zudDcTnO8ob4+lo4fxGco5Cp7WGQ0Dpy9zrmXjxkzRq60GTGGAEOAIcBnBGSZSXzGI89lL1euHJo0aYLo2ERscQ+Wb/+xCXjKuZADLSpmbqja2eTLoG8tONiL17H3rn+HbnuC4RX6e+Azg1QB0jIg9MfTJuYSwzsKdUd749CznwhPt+1cW6CJ1NvCMyJayESAxUPE7tUbl01DZERoRlXV9rxANx+mLNjEudzfPPsY5w/dUltZ0wvWbXArdHJqhkRRImaOWQxyRWZFvRA4e+QyZoxexI0xjTWNuboXuofpXqbUYeJ7O6N5W92RADen09xOZeHYfrAsyFyh5TXq209eREyckAuo5uDgIC+yjA5DgCHAEOA9AszwVgIVcHZ25rhYezwQ8QmyVnpzyKSWBgwgDojy38gX0GnyMMO/KivFK+PCu9H4IEzLQ7s+JTEomc7JXb6o3O0pdJq8QP8Nn7H1WijeyTA//tiEAAAgAElEQVTEc8Ixrbw/mCwO+Jb4MRy9nV/BvOVDVJ31ATMPUeqzGERnwylgcFsLNKxkiIjwH9i0bGZOWFL5Nrb2pTF+ptgNd+eyY3j3PGu5kFVecAD/G91euvJN+39ZwDV1GFWxDG4bDmL+f+LUcd2Ht+LGWn2kky0J3bt0D1Ohe5rubT4XmtNpbm9QrQKcOjbnMxRylT0hQYQtR85xNMeNGydX2owYQ4AhwBDgOwLM8FYCDWjZsiXKly+PgO8JOHgtbfqt3LAX9TUmeX93dqho/L5P21APG69WxfXJNmggJRWHfceCMGLBB5Tv9hTNNwTi46+0Bru0ajYOqrSwRvDespjdNiV4nOfdUCze4odOY71g0twL255J9oJnTpiisG6dVBz6upq4efkk7t8U5yPNvJX6Xa3frB069hzCrQwum7wN4d8j1E/IDCSiVVDJnm/XWeuxefkuluc7A6xU4TTFAqUx3OTqJmWXop6re6F7lu5d8uCge5nuaT4XmstpTtfXFWDj9FEs4rYcleH4tbvw//YDZcqUQfPm7IOGHKFlpBgCDAGGAJjhrSRKMHHiRI6TlUcC5caRoaUexK9nujh5oCrir9bIwl9JlNORlTZEE3VbWOLK1RoIPV4Zz9aXwbaRRaSG+PVjX1C6zQe8j8+98W1iZYDp40sj9nw1+O2tgEvz7fGf1BCPwXBnL4y6Fp0lnOwsdbFgsDiq+dol/yEqMjxL7dStktOo6ahQpRbCQ6LgOnkHRAnZcB1QcTBo3y9FupakGnMZvxTxwnR7GFRcRj6wT2NGYydJGdaml/gz4P41p+H3XpztQB1xoHuV7lm6d+kepnuZz4XmcJrLqcwd3Rd2RQrxGQ65y75i93GO5vjx49kHDbmjywgyBBgCfEeAGd5KogG9evXiUou9/PgLlx/L2ziMg19ExtHEswuBoZEOyjsYol/nIrhytTruTC6STCIMa+9lbTU6K33Sfu7CVnpoVMsM88eXRujh8hjNRTUHNi/4ho9ZFGlEh0KoUy4/wn8EY8NS8Z7ArPSvTnW0tLW5PaFm5pZ4++wj3FacUCfx/igLRbqetnYodPUFuHz6Bsb0nYbwUP6s/P8RICWvQGNFY0ZjR2NIYzlgUle06F6Pi+69atpuxAt/jz2h5GJliT26V+mepXuX9nXTvcznQnM4zeW1K5bB8G5t+AyF3GW/fP8ZPN/7wsrKSppxRe6dMIIMAYYAQ4DHCDDDW0kGXyAQQBI9dPkhOaUWE2jBLnlv9o2XsiOSS8SP+hKN44+ifwtmJrkenuHmag3UbGGFFZXEIc++fc/dy29CrCjDfdyGZvqY41w8mSUhfqTbiy7hNf1/TU0N7JxagnM5v3X5FG5ePJW+Ci9+G5sWxLRFW6GlpYNzB27iwmH+BFujAa5UuywW7hwPUwsjPH/ohf7tR+PNy/e8GHtVFvK153turGjMaOxoDGksqfQd1xGFbS3wxScQ+9eeVmUxZfJO9yjdq3TP0r1L9zCfC83dNIfr6+liq8tYtiIrZ2VY7iaOIUB7u3V11X8Lh5zhY+QYAgwBhsAfEWCG9x8hyrsKQ4cOhYGBAa4+jcQz78wN5SxxpaWD3iPNuaon1gfiUYZ7sJNwYNU79JjyGoVG+KdJJxbgFYougx7DvMObTNprQFdf7J4eKYsxURKiIXFBl+XGDkCUgC0bfKDX9gm6HM14xV9HN4P2svpNda6YlS6Wj7ThzmxYNhXfg+Xn0p+qG6U/dKhQBWNnLOf43LHkKJ7c8lJ6nuXJoG0payzZ64xSFe3wLSAEQ7tNwOlDF+TZBaMlRwRobIZ1n8CNFY0ZjR2NoaTo6gkwdkFfbhvBmb3X4fXwneSSyv+ne5PuUSpjp7uC7l0+F5qzae6msnS8E4pZW/IZDrnL/uj1e9x64gUjIyMMGzZM7vQZQYYAQ4AhwBAA2+OtTEpgbGwsfeAt2vtVLqxVaWyevA87CvVn+Mvcg/3yWiBGPhfv+R3SxwQGEhsZgJ42cJpLSRaDppuCES7D7g149h0jPcQr3TWKCn7nO9XK+6n7Ub9fpzNaGojzERvc17b4Yc8noYx6CVi7Ljkqt4Y+rPVkMCOjleTUoDYWaF3TCNFREVg5bwJvg2w1ad0FvQZNRGJiElZM2YlPb79IIOLFfxNzY8zdOg4te9RDvFCERVNXY87EZfgZLb9tErwAUoFC0ljQmNDY0BjRWNGY0dilL/blbNF9WCuQZ4vfh4D0l1XyN92TdG/SPUr3apM2XVVSDnkxTUH1aM6mubtl3Wpw6thCXqQZnWQEVriJ93YPHz4cBQoUYLgwBBgCDAGGgAIQ0Jo9e/ZsBdBlJHOIgKOjI9atW4dXvjHoUt8E5sbiHNpE7vn1IJz5kogyNQqiW5ks5m/NJ0BDRwHWXApHYlA0NuwNR/6iAhTQBvw/RmHdBh/03f+D41a7chGcGmIG/VS86xXUQ+WfP3DoTQLi30dgmdtPmBXTgr4mEBwci8Mn/dFyueRl1wzb/7OASXp7WFMLoQEhOPFRhE/PQxFplg+F9TTw6v1PCI0EKCigBpqoWsEAC05QVHcRTp0OwssELZjra0AYK4Lni3BMdHqDjUHirwLjXOzQ2VaGkZ+Kd1mHTaoUwO6Lwfj40Rf5DQrAoUJVWdXU/pxj1VoI+voZH968xKNbnqjdrDL0DTLP9a5OoGhqaaJK3XIoZF0Qzz3e4J2XDy6fuYmylUqjkJXYS0Sd5FUlWV4+e4MxfaZx2wEEujoYMft/6OzUHDRmGRWHSsVRvWEF1GhUMaMqKnP+e1AoXIaswc+IWDRu1RVDJ85VGd4Vxeipg9tw7pgbChob4tTq2TDQz+LzT1EMqRnd935fMdF1G3R0dHDw4EHO807NRGTiMAQYAgwBpUBAI4k+JbOiVAiMHj2aM77/bWyKPdNLJPOWhLWDnmDCp0RUHlIKD3v8vvKTmRAhb8PQfKQ3MnIsrtjOGoeHWaF4vvRWs9gNfNfmjxh8LGMXcO3KFrg10wbVjWS/HP/6EgnD/m9/Y7HykNJ42CMldVjA2zD0HemNm7/VTDkxdXppuDQ2gnhXecr5rB6d8QhD55ne3L7JFdtPo0QZx6w2Vat6CQnxmDm6FzyfesCmhBXm7xzPK+NbMpgBvkGg4Fwf33zhXJb7j+yB/iN7QkeQ8tFLUpf9VxwCFLV81/oDXNTyxMREFC9TFOMW9kVhO/64FMdEx2LGgJX4/CEQjlVqY97a/dDW5rcefnjjiQkD20Mkisdh16loW7+m4pSQp5QHzV6F/edugLa7bdq0iacoMLEZAgwBhoDiEWCGt+IxznYPX758gb29PUSiBLx2qwD7wuKv+2HBv/D1ZyL0TfOheAYGbqadCRNw5344LniTS614ldnSWg8NKxuivMWfX+6iIuJw70UUPP1iEZ7sCW5SSA//VDREnaJ/DsSSECXE6ZuhePotHnoCMtC10KiFOWpbpDehk+DzNhp3XkfDOyw5WJtAC+VLGKBBZUNYyfo4kKngv18cu8YXG04Fo3DR4liz+wL09PP/XokHZ8h103lQB3zx9Ub56iUxbe1w0Coj30pCvAgHN7rj1K6r3BYEuxJFMXXxODhWEQfx4hseeS2v59PXWDRlFXw/fOECZnXo3wT/Dm8LbZ30c0Nec5Z3/Qnj4rFw9EZ4PfJGUbuScN12CgaGKR8l844T5ekpNuYnxvRtiYAvHzG0W2usnDREeZhTE058/ANRsetIaGlp4f3797Czs1MTyZgYDAGGAENA+RBghrfyjQnH0eDBg7Ft2zb0b1kQWydJInkrKbMqyFacMBG1RnqB0rc1ad0NE1xWqaAU8mH5W8AXTBjUnkvRU6VeWUxePoRXBk9qFN88/YCNcw8gwC+YMwC79GmLoRP6waAAPz/MpMZGEcfRkT+xefkuHNt7lvvgQRHKR7j0hENliaePInpVPpr04WfpxC14evs1jM0ssGLbaRQqXFT5GJUnR0kJEMbGQaSlCz1d2SnSVswZh6vnjqB8CVvc3uUK3Vx6oSTFReC553v4RsVDoKON/KZFUbecFWT3Lk9hlZfW4Lmrsc/9OgYOHMi9cygvp4wzhgBDgCGg+ggww1tJx9DHxwelSpWClkYS3u5xhE2hP68oK6koSsvWuy+xqD7kFWKFiZjgsgYUdIyv5fPH95g8rBOiIsJRq1kljF80INM9teqME+WDPrr1PE7svIJEUSKMTQ0xdOIAtO/RgnNFV2fZ80o2ciU/fegiNi/fifDQKE7XOg1oiq6DW0FHIB8z6MW9NwgJDEPTzrXzSqwc9UM6tnLqTty7/ByGRsZYuukEbIqXyhEtVWoU+2Efuv5vMqDVAmuu7IB96uAiAK6eO4YVc8ZATyCAx74VKG2bEs0+J3IGe11HG6fVeJW6sU5n+Hj0hRVPN9x98g+CY9cRgIYGvL29UaxYsdTosGOGAEOAIcAQkDMCsjfkyrkTRi77CJCrea9evRAvSsKCPfKJcJ59LtS7Remielg9RpxibN2iSfDzUZ9URNkdOXrRX7DmIPQNDDkDYMOc/byN+k6GX8+R7eB6YDLKVLHnDMMl09egX7tReHzveXahZfXTIUAYEpaEKRndhDFhTZjLy+j2/xiIeSM2YOviQ/jsrbzzJ4VYoXuNjG669+ge5IPRnU4lfvtJczHNyVRWTB6ca6Mbcf6Y47RGanT3GjoQy0Z1xehh5WGiwkZ3fGQonj16hEP3fZG8Kes3LDM7sWjnYYgSE9GvXz+lNLpDQkJw+PBhxMXFZSYGu8YQYAgwBFQGAbbircRD9eHDBzg4OABJidxe7+LJe72VmGWVZM1piQ/2XPoBa9sSWLXrHG/3e9PgvfF8jOljeiIuNgYtutfD4KndVXJM5cm0x+Wn2LPqFEICQjmy1WpXxOAJfdn+72yCTPu4tyzfjSf3XnAtzQubos+4DqjdTDH5qbcsOIRLR+9wgQOX7JssN6M+m2JnWn3rosO4ePg2dPX0sWDNAZRxrJZpfXW6mNGKN+3rHte/Nfz9PuB/bRphq8vYXIsd9fYSCvXdwNFZvnMXhpfLXnDSXDOgIAJPD7qg7ooXQCknBOxtj+xI5fv1Gyp0Gc6tdtPe7uLFlWtLG3nF0L5zKu/eveM8ABUEIyPLEGAIMATyDAG24p1nUGe/oxIlSqB///4QJSZhzi7lXbXJvmTK1WLD+GIoX0yXe9FbvcBZuZjLY27oxd9l2S7oCAScQeC24kQec6B83ZFhuPr4DPQa3Q76hnp47PECQ7tOxPgBM0Gpr1jJHAHCiLAizMjoJgwJS8JUUUY3cdRvQidY2ZhzEcL3rzuTOZN/4SrdW2R0073m4urGK6M7M7hpDiaju5y9Ddb8Nyyzqlm/Jtm9oFkftUqqT8A6HYEph4GmkU6296lLVrv79OmjdEY3CaWhkZJhRSDIfurQrCsHq8kQYAgwBPIOAWZ45x3WOepp5syZoIfOweuhePs5Nkc0WKPMEcgn0MSROaVhqK+J21dO4/ShHZk3UPOrFavXwbRF26CpqYUze66BVuX4nnWQIr1TLulNZ+eg6+CW0NUX4P7NxxjSZQKGdJ2Am5c8QCs0rIgRICwIE8KGMCKsCDPCjjAkLBUdPV9XT4CxC/py+/JJj70evleK4aF7ie4p4onusemLtqNiNeXeh55XwNHcS3Owob4eDiydAr188o5tEguI8koa5e2H8nZTQDVaUZ4xY4byMso4YwgwBBgCaoYAM7yVfEBtbW0xaNAgJCYmYfZOfyXnVnXZK1EknzR6/NZVLnj59IHqCiMHzmvUbYJZqVa+17vs4wKNyYG0SpOg1dp/R7ThjMcug5rDwFAfL5++wZRh89C9ySAc2H4M4aERKi1jbpgn2QkDwoIwIWwII8KKDG7CjjDMq1KivB26DW3Jdbd21h78jKRUin+vUCA1upckK910j1Wv2/jvMaREPdOcS3MvlY2zRqFE0cJy406y4A3oURZLtSua2Uy6MGfjXu5DIb1bUDwZZS86OvxLcansY8L4YwgwBHKGANvjnTPc8rRVQEAA5womFArxeHNZONpn8ymbp9yqdmdTt/jB9dA3GBqbYq3bBZhbFlFtgXLJ/YvHHpjj3I/b803Rzscu6M/bVGOyoPwVG4frp+7jzN7rCP76g6uipaOFhi3qoEOPlqhaq6LaR0Kn1W1yIT916AJuXLwLUbx4SdGiiBna9W6ERh3+QT49ea9cyhoN2efI2J0+YAW8X/qhRbe6GDyth+yKCj5LKcNWT9/FBVKjPd3kXs7nle7Ue7zn7p+HZUNbIio8FOP7dMSC0f250fgVGYrgWBH0CpjCXE9sMUeF+OHeUx98jhEiTgjYOTigSUU75Ptt/EQICQlFgoYA31+7o6bzEUDDFvv3T0edAtqITRRBz8QU5oIUS1zSXwETUxgnnw/0fY1bzwJRvF5dVC8oS49FCPD1wbN3/giMEQLCeCC/GRwrlEYNW7PfuJJ1IsT/Ix6+8oVvuBC6AkDXyAKVSxdH+SKydm2LEB4SilhtLTzZPx/d3T4CJTvj4eoOMBOJEI+0eIn7EyIwKALx2vnw7XswGvZzRr58+bBz507o6+ujXbt2adiKioriVsPpWkaF7vufP38if/78f5zjwsLCcOrUKcTEiD98UcaWhg0bQls75ZOIpB8J3cjISFhbiyPZX758GfXq1QO9A9EqfXq+5MVvejrknXL16lXExsb+hpGEX/r/8uVL3L59mztFmLRs2RIVKlRIXYUdMwQYAgwBDgFmeKuIIkycOBErVqxAyxpGOLOotIpwrXpskmdB26nvcPlxJOxLV8CyLSegmy/vVuiUETEKuDZrfG/EREeB8nw7LxukcDdhZcQhM5444/OWFy4f98Dzu685DxWqb2ZujMat66FJmwZwrFo2zb7FzOgp+zV6IfV88hpXz97E1bO3Efo9nGNZU1MDleqURbPOtVG1fvk/vpDnlZxBn4NxYL07nP7rBiNTw7zqVtqPMC4erpO2cXm6KXr53JV7eb+nO8Xwbgrr4t/g7/0STf6phFOrZiXrTSy2Du+NsU9EaOS8Eme7m+Pg+rVwcpPhjVSyMx5t64Nyein7gpNivNGq4STcko7C7weVxiyGR2+H5Avp+zPC1kXzMPbEJ+562rriJsEf7mHKzGU46CN7m4lOw39xc2ZXVDL83cAkCvFh7zFvwTS43pIdk7xCq77Y4dwJ5QxzIxcQ9eESCvXaAGiWQ41qOnj4MG12BpFIJL1XfX19pRHOU59PBkn6b9myZZg8eTJcXFwwe/Zs6fnUBzRPtG/fHu7u7qlPS4/Xr1+PESNGSH/TgYRumpPpfqTmS178fv36VWroE99kTDs6Okp7Tt2n5GTqNpJzqf+HhobCxMQk9Sl2zBBgCPAcAdlPA56DooziT5kyBVu3bsWFhxG4+SISDSoWUEY2VZ4nMhz2zyyBmsO84PPuJdYsnIxJc9eqvFy5EYACri1efwTTx/zLGQ4LR2/E5BWDoW/A7w8SqTHV1NRE9YaO3F/otzBcPX0fN04/wDf/Hzjidob7K1jIDHUaV0etBtVRrXYl5DfIeDUpNW1lOf4ZHYPHHs9x7+Yj3L32CN+/iVf4iT/LogXRoF0NNGn/D0wLKd+LpqWNBcYvcforUMZEx2LphK3weuTN5emmlGH2Dmw1TDoYia/g7x2I4taW2D3fWWoA0nXd/LQbTgTD715Y4OyGBckGarvOXVCziAYurT0qNqy9j6POEhv4z24Ig2TCGlp6qNegBoz09ZD0/jbck41j7WoN0NUc+BnzA5Vt0wZak/Rnrx+FgyvWSo1uWinvU8FcyjIdxPvfh12vJdJz7XoORN96xWGcFIMHt69gxsEHiL9xELUDdOC3rwvM06ctEwVhbov/sBziC5L2+eN/4Nqx43C95YuX53ejuk8SfPZ1keYa19A1RLOWNVFYIx8Onr+Z0n+rBiBfOJKrTOGMvOL08PDhY2kbOqhfv34azLPq1k0r3VQk/9MQBbi4IDQvSgr1s2DBAlC2lgEDBnCnR44ciRcvXmDz5s2SaqhcuTIqVqyIiIgIkFFNxdjYWGoE0/nUgdfkxa+UgeQV7NRGd3qMqC5Fgi9dOmURZOnSpdxK94ULF7gPElTH1NQUwcHBMDdPqzup+2LHDAGGAL8QYCveKjTeCxcuxPTp01GllD7ubyiX5uGjQmKoBKuvfWNQa8RrxMQloveQyeg5MPcpbVRC8EyY/PzxPaaO6oHwH8FciqZpa4ehoKU4qm4mzXh96ePrz7h7+Rk8Lj2VpiMjQDS1NOFYrSyq1HRExWrlUK6Sg9IZ4mRov3r+Fi8ev8LTB57wfPw6zT5/SgdWu3kV1GlWGcXL2vB6nDMS/ntQKBaO3sRFVjc2s8CidYdYnu5ksKQr3gD09HRxe8cylLVPrUex2O3cF8NuxUvh1WnYBx7T2qKccbLLtygE6/4bgclUR7M6PK5PQ6VUq96ShrG+l2DWnVZ8q8Pj1jRUEqSsIEvqAL/3Rwb32vVT0K+aVbqo4dHY6jwAY7l+y+HoseloXSTthzS/e0dQZuw+jvy6A/vhZJ/2unQVmvrYMQcD06U4e3lhJ2rOOsW1H7x4I1Y3tkphNfno7fHVqLL4OjSrD8X39a1kuNuLK0r7SkWhbdu2OHHixG/u3qlXcWWt8kpIbNiwAWQ4k8E5aZI457rkGv0fOnQotmzZwp06ffr0b67avXr1woEDB7jrGa0MSwxsf39/FCkie9uXvPhNTUciR0YY0Yq45KMCfRQICgqCrm7KNgTKO25paYnwcLEnENVnhSHAEGAIEAJsxVuF9GDcuHEg16yn7wNw+EYoejTK2v4xFRJRaVgta6ePfTPt0XmmN/ZuWQrLwkXRqFVnpeHvbzBiU7wUVmw7DZfxffD5gzem9HXF9DXDUcyh6N9gRyX6JIOU/vqM7YBPb7/g6d3XeHbnNd57+uL5Ay/ujwShF8wSDsXgUN4e9g7FUaJMMdiXsoOxadoVOUUJTUHRfN774sObT/B5+xFvvD7A561vmmj29KLpUKk4Ktctiyp1yrJx/8Ng0HgvGLMR4SFRKGpXEnNW7kGhwuxekcB2685TySHmzJyYzuiWXpIeOPaahCvj6khXtLkLWubo178/Jt/aCiQ+wtOAWFRKZ+BSvYRUntzJIQikdDM80KyOo8ec0bpIikElrRsXgsvJHwQGzRn1m9FN9WxrNce8qgcx84kIHm+C4WRvJ21OB18/fBT/1rBF6/LGSF74ltap0LIz5rmdwcxPZeBoJjudVsonCeAXkKHhLSWafDBmzBisXr06/Wm5/SbDU2J0kyt6+j3k1NHevXulhjethLu6uqbpn7bvSEp8fGpJJWcV+5+296XnSdKjm5ub5PA3o5sukBH++fNnFCgg9ky8c+cO6tatK23DDhgCDAH+IsAMbxUaewooMnfuXC7K+cxtX9CprgkEOimuXCokikqw2raWCVaMtMH4dZ+xct4EFCxUBBWq1FQJ3hXFJBkOrttOYcHkQfB86oEZTqswYfEAbj+vovpUF7r0gYL+ugxswUXX9nrsjbfPP+Ltcx98fP0F3m8+cn+p5TU0NkSRopawsrZA4aKWKGRlASPTAjA2KQAjkwIoYGwI3Xy60NHRhkCgA20d8ZSeEJ8AoTAe8fEJiPsVh8jwKESERSI8LBIRoZH4FhiMgC9BCPQPxtcvQYgKj0rdLXespaXJfTRwqGTPGdwVqpfK04jkvzEk5xMUdC0yLArGBeX/cePJLS+smLITcbFCOFapjelLt8HAUP79yBmSPCNHEczXbz4s7k/DFnXrVM+0b+2GQ3FmfB0YyFg4NLApjrYAaBdxXMKfc4VlNT724IVOso1u4lS3GA7ddsPzt0GwLGOZAe8GKJLsKh8dk8ryT65tailpFwv/mCRY/bZSb4Sxu/ZhrK5ellZIMnuZE6bDRZFGN4m3fft2KSYZpSujD3m0Wk7ByMjITV8kq93pz+fV74yMbup//PjxHBv0USH1Sndq3gwNDdGzZ0/u48KoUaPw/HnaffWp67JjhgBDgD8IZDZX8wcFFZK0f//+WLlyJV69eoWNp4Mxtovk4a1CQqgQq6M6WeJTwC+sOR6M+ZMHYPm207C2K6FCEsifVTIg5q3dj9XznXHt/FEsGb8FTv91Rcvu9eXfmZpSzF9AHzUbV+T+SEQKvkVu6b7eX+HnHQC/91/h9yGAM4jfhkfh7UtvhSJBObZtSxSGbakisC1ZGHYli3BGt6JzbStUqEyIh4WEY/nkHYiNicOSvZOkHywyaZLlSxcO38KOJUe5AHuNW3XF2Bmu0NbOqrmX5W5UtqK/7wduLhVJVjQ1LP4oS5taZX7fI53cSkM3H/KDXMdlWOV/pJxBBa1mGNnwd9fu1LU1dI1QuWLyxxSREOGR0QiNiML38EiEhIYh+mckLn3N+EOAicTwTnyERgNXYseEzmjuaAvjVG7w2rryiaOx7cJLKesS927pCQUe2NnZ/ebKnro7WS7qqa//reNDhw5l2DWtxEtcyMldPrNCq9x5iXdmvLBrDAGGgHIgwAxv5RiHLHNBqTSWLFkC2nu0aN9X9G9pDqP8KelQskyIVcwyAsuG28I3SIjTHuGcm/WKHe4wMuG3mz8ZEhNnr4ZlEVvs37Yc2xYdQYBvMPpN6AQtbaaPWVau5Ipk4DpUtuf+UrcN/xHJpSkLDviB4IBQhAaHIyosGpERPxEV/hPRET8R9ysBtBczIS4BCck+tZSmR1tXm0u9o5tPGwZG+WFonB8F6L+JAUwtjGFR2BQWhc1Aab+MzfgVrFHPQA/hodEI+hzCRTvvM65jathzdCxKEMFtxQmcOyAOeNVr0ET8b/CEHNFS10YRYT+4OTQ6KgItqxbDhSfiiOF/kjcp/vcV4z+1yc31RiOboFQWnMliQz5i3+HTGON2I9vd6Vj+g2QElNAAACAASURBVDszW6LuvAtI/HAL/UeI469XaNAALR3LoIZjOTQoXxQGuZxOf4RHYtXJlIBqXbt2zTav2W0gcTNv3rx5dpsqRf3OnTPeVpZ6JT51cLXMGKcAcrTPO3XbzOqzawwBhoD6IsAMbxUc2zZt2qBRo0a4fv065uz6ghUj0+4dU0GRlJplinS+d3oJNJ74Go/ffsacif2xaMNh3qcZo0Ejw8KysA1WL3DmDI6Pb7/AeamTQtx3lVpJFMQcGcT0V8qxmIJ64CdZyis+dn4fTO+/Cqd3X+P2rJerXirHYIR/j4Dr5B14++wjtLR0MHa6K5q0UbyBk2OG/0LDuF+xmDOxH4ICPqNq2ZLYOKoRig0QB9/6C+xk2qWh4M+vRm+v7kOVqUekdDRLlEeP6qVRxc4GdlYFUdhYiDV95+JQJivxVdoNw9fKdbBxz2HMPyFelX558ybojyua5bB23SgMrJb56ruUCRkHC7YdRATlF08ukqBgkt+K/E/RyVWxZIZRQECAKorEeGYIMASUBIEsfNNVEk4ZG2kQWLVqFRdVc8PJELz7EpvmGvshfwT08mni9ILSsC0kwLtXT+HqMhqpg7/Iv0fVoUgGxtLNx2FmbskZHs69luDd8+TAQaojBuOUZwiUrFAMXYe04Fai1s7ag5ionM2jpOuk82R00z1A9wIzutMqE82VNGe+e/UMNlbmOLp8OvR1/2zcpqWiPL9ifW+nGN2a1bF/5xaE75+P7eP7YGSnBmjzTzlUdiiHRi3/vMXAxLoCpk2dh8jbB+BzfDXOuY6Bc6fkdHOJrzB6xHCMufglR8J7f/6K7ccuSiNw54hIDhpRyi8qFFRM3YqVVcpHkMjISG7+oNXsP/2x1W510wQmD0MgZwgwwztnuP31VpRjcsiQIRAlJmH8Or+/zg8fGDA31oH74tIw0teEx43z2LF2Ph/EzpKMDhWqYM3uiyhf+R8uivPMQatx/pDYdTJLBFglhsBfQIAC3ZUob4vvQeHYujjjfZ0ZsUY6TrpOkctJ9+keoHuBlbQI0FxJc6aRgT5Orp6FQmbGaSuo2K8nV66IOdasjiuXp6FjOQsZAdBEQEzW953Tfm4ra1s0rN8Yc6fOw7ezSzHSXvyKtm3ORXxKCfKdZbSmrt6JeJGIC/KV5UZZrEjBXjMq/fr14y7du3cvoyp5fj4zfnPKzI8fP3LalLVjCDAEeIoAM7xVeODnzZsHyiF5+XEkzt4PU2FJVId1Bxs9HJtfCjpaGjixfzOOuK1XHeYVzKmxaUEsXHcIHXsO4fI9b198BGtnuHGRnRXcNSPPEMgRAhSPgFzOBboC3D73BHcvPskSHYpWTrpNOk7R0UnnSffpHmAlLQI0R9JcqaOlhUOu0+Bgp+op1aLx5okXJ2SjCV1Q21BWTnC6LETIz8yt5YSYaERnEH/N0LwUZk0fKAYz8Ru+x2XdiKdGFz2e4Nztx6Do2ooIYkZedxkVCqpGxdfXVxp3QlbdK1euYPbs2QgLU/z7S2b8yuIto3Op3dCPHEnZaiCrfkhICLfqz/J4y0KHnWMI8BMBZnir8LgXLFiQe2iRCM7r/SCMz/whr8KiKhXrDSoWwI4pxaChAezasBDuR3YpFX9/kxktbW0MHueC/+ZvgkBXDzfPPsakXku4HNZ/ky/WN0MgIwSsbAthwKTOnDtu2PfIjKpJz1N+btJp0m3ScdJ10nnSfVbSIkBzI82R5Ga7Zc4Y1K9SPm0FlfylBXBpwjjbOkMJHhzcxeXwlllBFIKtKxahQMPe6HHgrcwqdFI7359c1Sl7N6CZPy0JYXw8Ji7fxp2cM2cO6F0hJyWj7VRkLFPAsIxKly5dpJckgdakJ1IddOvWDcRf8eLFU50VH+bEWM0pv791/ocTlAaNyuTJkzPdclajRg3Uq1cPpqamf6DILjMEGAJ8QYAZ3io+0iNHjkSZMmXwIUCItSe+qbg0qsP+v40LYsN48Vf9ja7TcflMck5a1RFBoZzWb9YOq3aehU2xUly08ym9XXHK7Qq3D06hHTPiDIEcINCsSx2sOjYVbf/XKMPWZAiQDpMuUwR/0m3ScdJ1Vn5HgOZEmhuprJ06DD2aN/i9kkqeEaBEMfGq/fV1x+ARnn4lWoQHxzeh0YrrUuk0dNJ9lNESIM5bHGn8+tqN2OsTJa2bchCKDcs3i39q28Na//eVdX0jcSq2hFt38CQqhY+Ve0/i45dAlCtXDqNHj04hmYUjgUAgrTVlyhTpMR3QPUAptMhYzqzQKnv9+uL0kvSO8vJlSjozSbtdu3ZJ03LduvX7tqTUK8vr1q2TNPvtvzz4/Y3oH06MGTNGWsPe3l7mc+3w4cPcij9V3L17t7Q+O2AIMAT4jQAzvFV8/CltEOX1prJgz1cEfE+JXqrioik9+4PaWMB1hA3H55qFE3Hr8hml5zkvGbS1L43VbufRrpsTRKJE7Fl1CnOGrkXoN8W7FealnKwv9UCgsJ1lhoKQzpLukg6TLpNOk26TjrPyOwI0F9KcSGXJeCc4dWzxeyWVPaOFai2SP7YkPkLTljOw8qIn3n0NwrPn9zDLuQcaLb4AaFaHU32xwX3+hS+i08hrhKHTJ4nPJPlhSM8++HfDBdx45Yt3vn64cdUd3Ws4SVfMx8xtAKsUu1pKqXDpEuLjxFdoPWw7zr3yxZVbd7Bou9gFeu3atZnm0ZYSSnVgbm4u/bV8+XJUqlQJZ86cgbOzM+cVQnmpaYtbz549pfVkHVy9elV6mmLSDB06FO/fv8fjx485mgMGDOCuU+TzChWSg8lJW4gPJMY78bFhwwZIXLclaROplrz4Tdd1pj91dXXx6NEjrg6509NHAjK0iT+JfD169OCuk9t9u3bs41ymgLKLDAEeIcAMbzUY7BYtWoDyTkbFJGLCOl81kEh1RBjbxRJzBhTh3M2WzRqJh7eTg+6ojggK5VSgmw/DnOdhzoq93P5Xr0femNBtMe5deabQfhlxhoC8ECBdJZ0l3aU93KTLpNOk26z8jgDNgTQXktvvrOG9MLpn+98r0ZmE+OTzMZAcpa8Y91W8AfqzMOM83kmiBAQmp+yKS09A8jsLfVHVrPRH9QxLNMKDRd3E1BNfYfrMWajcaRjqDFkC11sJ0CjZFjcvT8O09s24OsIPkUgvgY71P/iwYyzE68LA6V2b0HrAOFTuPhatp26Du5g6Js1bgvmNUyJpJ5/m/ulZV8Pef8Vu2kne7ug6YBzaO7tCKBSC3Lgp7SiV+PiMEE5NLeU4NDRU+oNcytu3bw8yfqmQoUzX69aty/3++fOntG7qA1oUoH4l+73J5ZzyXlevXl3qpt62bVs8e5bxs+Do0aNSkrRybmFhwbluz5+fNrCpPPjNLkbVqlXDu3fvpPyRoU38pZfPx8dHWocdMAQYAgwBjaScbKRhuCkdAv7+/pzLeXR0NM4uLoXm1VU7aqzSAfwHhqZv/YKlBwOhIxBg9vI9qFRD/FLyh2a8uhwe+h2r5k3AIw/xSki9VlUxwLkLCpga8goHJqxqIBAZGoWdrsdw+7w44Fr12k0wbuYKFkAtk+F7/vAOZk/sg3ihEBP7dca8kX0zrJ0UF4H3X8IRr6GHEvYWkPUZIyzIH74RCTAqZIXixroZ0BLi44dAxGhowrpYURjLWE6Q9qWjBwdbWRHIxaQl/ZkVsoJNhv2lsBEb5o8L1x/hWZB4PTsOAlStUg2t/7GHAVWLC4WXbzh0jE1RulBGz+RY+Hh9gMerD/D+IaajoZsfZUuVRv1qZWGl97uLeQoHdCSCz/OHOOXxAZ6BYTh88RrI/ZoMPmtra2nVr1+/cudTrxBLL8o4oFdDCh4mWbkmg5uMeUn7uLg4BAYGgtJr0QpwZoVWgbdu3SqtQrRoxdzExER6LqMDWt0mo50+AJALOxUXFxfpsaSdPPjNLkbUN/Xr7u7O/Ul4qVWrFmifu4RfyXn2nyHAEGAIMMNbjXTA1dWVi15a3EoAzx2O0BXIeANRI3mVTZSxa3yx4VQwF3BpwdoDKFuxurKxqBT8uB9xw/Y1cyAUxsHASJ8zvhu0raEUvDEmGAKEwE33h9iy6BDiYoQQCHQxcIwL2nYTp0hiCMlG4PWLR5g+uieEcbEY2q01Vk4aIrsiO6sQBOKE8ajeayw+fA7AokWLkH5/tkI6ZUQZAgwBhgBDIFsIMMM7W3Apd2X6Mly5cmV4eXlhZt/CmNUv5Wu3cnOuHtzRl+/Byz7C7eIP6OsbYuH6wyhZ1lE9hJOzFEFfP2Pd4il49vAmR9mxlgOGTe8BiyI5i74rZ/YYOZ4iEPz1OzYtOATPeymRpifP24AGzTvwFJGsie392hPTRnZHTEwUerdrjM0zRnORzLPWmtWSBwLztuzHom2HUbZsWc59O3XQMXnQZzQYAgwBhgBDIPcIMMM79xgqFYU7d+5w0UR1tDXguaM87AvLcuBTKpbVipnExCT0XvABR26Eccb3nFV72Mp3JiN89exRbF3pgqiocC6Xcs9RbdCmZ0NoajFvjUxgY5fkjADl4j574AYOrDsLYZwQhobGKFf5H9y/dQEWlkWwfv9V6OdnWyJkwU4r3S7j+nBGd9dmdbBr3kQu2JSsuuycYhB46/sF//xvHOITEkERwiX7rxXTG6PKEGAIMAQYAjlFQGs2JWRkRW0QsLGxgZ+fH548eQavTzHo2yIlQqnaCKnEglC+2g51TfH+SyxeeEfg5qVTcChXBZZFxNHPlZj1v8Ja8VJl0azdv/j+LRAf37/Ci3tv8ejmS1jbFYJ5YbO/whPrlF8IvH7sjaXO23DzzEOIRCI0aNYRs1fuRpPWXfHk/g18/uSNH98CUbtRK34BkwVpaU/3rPF98OvXT5DRvWPOBGhpaWWhJasiLwTI06rXf4vhGxCMIUOGgIKQscIQYAgwBBgCyokAW/FWznHJFVc/fvzgAq1RaovNE+3g1Fqc6zNXRFnjbCFAK99DXMVu5xRwbdrCrahRr2m2aPCt8qM717DBdSqCA/050f9pUhF9x3dk7ud8U4Q8kpfcynevPIn7V19wPVpYWWOE8yJUr9tYysFXv48Y1bs5hMJYTFmwGfWatpVe4/sBRS9fOG0wF0iN3Ms3TR/FVrr/glLsPHUJIxdsgKWlJd68ecOl+voLbLAuGQIMAYYAQyALCLAV7yyApGpV9PX1UbRoURw7dgx3Xkaib4uCMNBjqxB5OY608t2utgl+RCTgwetI3L5yBta2JVje30wGoYhNMbTu1AcCgR7eej2Fn7c/Lh29A2FcPEqWt4O2jjgnbiYk2CWGwB8R+BUTh8Obz2PlNDd8+RDIBUPsNWgiJs9dB5viJdO0L2BsggLGpnh09wqeP7qDRi07M5dzAJSne9G0oRAlJHCB1NZNGc6M7jSakzc/gkPD0d15EX4Jhdi2bRsoxRUrDAGGAEOAIaC8CDDDW3nHJleclS9fHk+ePIGn1zv4Bv5Ct0bMbTdXgOagMRnfrWoaI06YyH0AuXfjHMwLWcO+dLkcUONHEy1tbZSvXBPN2nZHROgP+Lx7hTfPfHDt9D0uArptySLQ0PxTeh1+YMWkzB4CtI/7+pn7WDJhC57dfYOkxCQ0btkFs5bvRI26TUC6J6uULOMI79cv4OvzBpQSr06j1rKq8ebc5TOHsXLuWC5PN6UMWzLOiQVS+0ujP2TuGjx/64NWrVpxkcz/EhusW4YAQ4AhwBDIIgLM1TyLQKliNcrtTRFOo6KicMilBDrXN1VFMdSC54V7v8Jl51dOluHOC9C2W3+1kEvRQrzzeobNK2bh3aunXFeFbS3QfVgr1GlRlb3sKxp8NaFPe2DvXnyCw5vOI8AvmJOqdLkqGDphLkqXr5wlKcN+hGD3xiUYMHoaChjxdx51P7ILG12nc5jNGt4LUwZ0zxJ+rJL8ETh+7S56T1kGAwMDLpOJra2t/DthFBkCDAGGAENArggww1uucCofsY0bN2LEiBGwNNWB1y5HGOVnLud/a5RWHwuC84bPXPf9R0xDt34sCE5WxoIMp5sXT2LPlmUI+urHNSlqb4Uew1ujZuOKzADPCog8rEN68+DaCxzaeA5ffAI5BCyL2KLPkElo0KIj05ts6sQRt/XYtWEh12rJeCeM7tk+mxRYdXkh8D08EtX+HY3g0AjQM37YsGHyIs3oMAQYAgwBhoACEWCGtwLBVQbS9PLZoEED3L59G72bmWHnFHtlYIu3PGw7G4wRK32RlAR06jUUTqNnsL2RWdQG2k965ewRHNyxEsFBYu8Bu9JF0HNEW1StXz6LVFg1PiDw5JYXDmxwh+87sZ5QSrB/ncajaZtuGbqU8wGXnMiYmJiIHWvn48T+zdzHinXThmNAh+Y5IcXayAmBvtOX4ejlu2jcuDGuXLnCPiLJCVdGhiHAEGAIKBoBZngrGmEloO/t7Y1KlSohJiYGx+aWRPs6JkrAFX9ZOHjtO5wWf0K8KAm1G7aC85y10M2nx19Asil5fLwQF08ewGG3NfgREsS1JgO8fZ8mqNOiCrS0mVdHNiFVi+qiBBHuXnyK03uuSg1uM3NLdO83Bi069oSOjkAt5MxLIeJ+xcLVZTQ8bpyHjpYWtswZgx7NG+QlC6yvdAicvH4Pvf5bwrmYv3z5EnZ2dulqsJ8MAYYAQ4AhoKwIMMNbWUdGznytXbsWY8aMgYWxFjx3OsKsgI6ce2DksoPAzReR6DLjPSJiElG6XGW4LHeDkQkLgJcdDIVxv3Du+B4c2b0e4aEhXFOzQsZo87+GaNqpNvQN2MeM7OCpqnVjomNx5YQHzu67gR/fwjkxjE3N0a3vSLTu3AcC3XwKEY08MMjzwspaPffWRoT9wJyJ/fDu1TMYGejjkOs01K/CPEsUokxZJPqDXMx7jsG3H+FYv349t40si01ZNYYAQ4AhwBBQAgSY4a0Eg5AXLJDLedOmTXHt2jV0qmeMw7NL5UW3rI9MEHj7ORZtp7yD3zchLAvbYM7KPbC2K5FJC3ZJFgLxwjhcO3+cc4X94uvNVdHT10XTLnXQplcDFLTkbzAsWXipy7nvQaE4u/8mrhy7i9iYOE6sonYluS0cjVt1ho5AV2GiUrC1eZMGICw0BOv3XVG7FGP+vh/gMr4PggI+w8bKHCdXz4KDXVGF4ckIZw0BiYt5w4YNuWc5Zc5ghSHAEGAIMARUBwFmeKvOWOWaUz8/P1SoUIGLcr57WnH0bFIw1zQZgdwhEBwmRIcZ7/H4bQwMDI0wY+lOVKhSM3dEedqaPi49vnsdx/dthOdTDw4FTU1NVG9YHk061Ual2mXYfnoV1w3ab/zc4w2unvDAoxteXEorEsmxSm10/t9wVKvTKE/2u9Jq98RB7eH95gUat+qKibNXqziyKey/fPoA8ycPQHRUBKqWLYmjy6ejkJlxSgV29FcQOHDhBgbOWsW5mHt6eqJYsWJ/hQ/WKUOAIcAQYAjkHAFmeOccO5VsuWPHDgwcOBDGhprw3O4IKzO27/FvD2Tsr0T0XvABpz3CoaWlg/EzV6BRq85/my2V7v/DG08c378Ft6+cRmKiiJOF3NCbdKqFxh3+YavgKja6tLp97dR9XD1xT+pOrqmphXpN26NzryEoUcYxzyX66ueDUb1bQCiMxdSFW1C3SZs850HeHV4/fxwr502ASBSPdg1qYOe8idDPpzjPAXnzr670Pn8LQc2eYxERHYPt27fDyclJXUVlcjEEGAIMAbVGgBneaj28soVr27Ytzp49i6ZVC+DcktJ5skIkmxN2VoJAYmISJm30w5rj4jzDvYdMRs+BYyWX2f8cIkAuwVfcD+Pi6f0I9PflqJB7ZqXaDtw+cIqGrq2jnUPqrJkiEUiITwBFJ6f928893oI8GqhYWduhebueaNauB0zMzBXJwh9pnz26GxuWTYWBoTE2HLgKCuamquXA9tXYu2Upx/7Inm2xZKwT8xBRgsEkL49WI2bi9tNX6NixI06cOKEEXDEWGAIMAYYAQyAnCDDDOyeoqXiboKAgODo6IiQkBEuHFcX4blYqLpH6sL/uRBAmrP/MpRtr1LIzRk9dyiKey2F4yWjzfHIPF0/uw50b5yCKF3JU9Q10UaNRJdRuXhmONR2grcMiossB7hyTSIgXwfPBW3hceoaH158jJlq8d1tLR4C6DVujRcf/wbFqLaX6WEh7oR97XEPlGg0wb80+peItKwNBkcvXLJyMGxePc7wvmzgQI7q3zUpTVicPEFix5zhmrN0NS0tLUBTzggXZFrE8gJ11wRBgCDAEFIIAM7wVAqvyE3V3d0e7du0g0NGAx/qyqGifX/mZ5gmH7vfC8L95PoiJS0QJB0fMWLIN5pZFeCK94sWMigjD1XNHub+P772kHRoY6qNmE0fUbl4F5auXYmnJpMgo9oDSgHk9eg+PS0/x4KonoqNipB0WL1UeTVp35f4MjZQzDWLo92CM6NUEURGhGDphHtr3UB034JCgr5g3eSB83r2Evp4u3OZPRJt6NaT4s4O/i4Cn9yfU7+8MYbwI58+fR8uWLf8uQ6x3hgBDgCHAEMgVAszwzhV8qt141KhRXEqS0kV18WhTBejl01RtgdSI+9e+Meg04z0+BgphZGyGqYu2sqBrChjfr34fcevKGdy+ehp+Pm+lPRga66NKnbKoVKcc/t/efYBFcbRxAP9LOYogqFhAEQQVa7ASG8EaW/wsURM1mth7jTFGY2Is0WiMxhJjNCbGFluMvWKLFRUVUSyAgBRBqvSj+D2zhLNiBI7j9u5/z3PP7e3tzrzzGzx82dmZ+s1qwtLaQvUZNwovkBifhGvnb+Pa2ZvwPnsLifFPk20H55pwb/s/vNOuKyo5OBW+Mg2UcP7kIcyfPhKDx81A977DNFBj4asQk6jN+2IoEuNj4VS5IrYtmo7azlUKXzBLUItAalo6Wn4yBX6BDzBmzBisWLFCLeWyEApQgAIUKD4BJt7FZ1/sNaelpaFx48a4efMmhr1XDj9N4iypxd4pzwQQn5SJfnP8cfTyY4iJpIZNnCWrq2nPNEUWmyGB9/CP5178c2w3HgT5q2IW94Q716mChi1ro0HzWnCu48B7X1U6b7Yh7lMNvBkC73O34H3mFgJuitspcu7ZFiXYO1aDe7tucG/bFVWcqr9ZoVp2lLh6LJeRKXu2rsOapV9Ls8K3bVoff8ydgtKl+MclbfqRGv3tSvz+91HUqlULV65cgZmZmTaFx1goQAEKUKAAAky8C4CmS6eIe8ZE8q1UKrFjdjV0a8E1j7Wpf8WkazPWhuD7rZFSWGIW5wkzvoeZOW8NKMp+enD/Hi6fP4nL54/jxtULqnvCRZ3ianidRtXhUt8Jteo7wdHFnveGv9AZ4l7toDsP4HctEHeuBeLmlXvPXdUW92zXa9AUjZu1QeNmrWBfVZ7J9gvN1vq3qSnJ+HHeFGm2fxHspAHdMWfMQP4hSct6bvvRf/DxjMUwMTGBl5eXNCeLloXIcChAAQpQoAACTLwLgKZrpyxbtgwTJkyQlhi7sroeqlTg8jHa1sc7T8di2KJAJKZko7JDNUyf/wscnF20LUydjCctLQU+l89LE2hdOX8cD8NDnmunwsQY1eo5SEm4i6sTarxVFRalzJ87RtffJD1OwV2f+7hzPVBKtv1vBEOZnvFcsyvaVUEjkWg3b4O3GjeDqal+GT2HUQxvggPu4NsvhiM02B+W5mZY9dVY9GzTohgiYZWvEwgMjUCzjz5FYkoKfv75Z4wYMeJ1h/MzClCAAhSQkQATbxl1VlGG2q1bN+zZswdutcxxcmkdGBuVKMrqWHYBBPzD0tD76zvwvZ8OhYkZxk77Dm07v1+AknhKYQTCH9zHzateuOVzSXqKRObFh1gz3KGGHRyqVUKV6nZwrG4HO8cKsp+wTUyEFh4UiaB74Qi5F45g/zAE3w1Xra39rIP4A1Htt5pIzzoN3GBnz1tZnvXR5LbngZ1YMf8zKJXpqONcBVsWTkM1eztNhsC63kBAmZGBNkOnwdsvAL1798a2bdve4CweQgEKUIACchFg4i2XniriOOPi4tCgQQMEBwdjfM/yWDzGsYhrZPEFEUhTZmP0kvvYcCRGOr1t594Y9dk8Dj0vCKaaznmcEAu/61dUibi/33UpwXmxeENDA1R2rgi7KuVQvpINytmVQXm7sij/76vCVPHiKcXyXpmmRFR4DKLCY6XXR+I1LBrhIY8QGvAQWVnZL8WlUJigWi1XVaJdy7URSlnp920rYsI132sXMWzi1y95aWqHGFq+atEMeB7YLlXZv0trLPt8JMxMOapJU32Qn3o+W7IWK7fsg5OTE7y9vWFlZZWf03ksBShAAQpouQATby3vIE2GJ+4la9myJTIyMni/tybhC1DXbwejMGFZCFKV2bCzd8Lnc1aiWq23ClAST1G3gJhILOJBEIL8byMowA/3/cXzFh6GBb+2KqsylihnVxqlSluglLUlLK3MYWFdEqWsLWBhZQ4rawuYW5jCSGEEI2MjGP/7amRkqNoWFWRmZCJDmYnMzKyn2xmZyFRmIiUpDQnxSUhKSMFj8RqfjERpOxGP45LwKDwOCbGJr42zYiUHVK1WG1Wr1YKjcy04VqsJW3tH3if8jFpczCMM7t4MSmUqpn+7Bi3adn7mU81s+vv54LuZYxD+IBBmCgV+mDoMH/+vvWYqZy35Fth3+iL6TJkPY2NjnD17Fk2aNMl3GTyBAhSgAAW0W4CJt3b3j8ajW7p0KSZNmgRrCwNcWl0PjhV5ZUTjnfCGFd55kIq+s+/hRmAaDA2NpaWMun04FGIWbj60TyAtNQXiPtuHYSGIjBDPUOl+8aiIB4gMD0VW1vP3RBdXC8TPUgW7yihvaw9xX3YF28qoYFsFFStVkeYVMDXjvdlv0jf7tq/Hqu+nw9LSGj9tOY4y5Sq8yWmFPkbMFr/7z7VYt3ye9DNVt5oDNsz/DC4OlQtdfjoagQAAIABJREFUNgsoGgFxX3eLgZ8iISkFixcvxuTJk4umIpZKAQpQgALFKsDEu1j5tbPynj17YteuXWhYwxynf6wNEwXX99bOngLSldmY+nMIftodJYVY3+0dTJr5A2zK22pryIzrFQLiKnlsdCSiIyPwOD4WCfGxSEyIgxjG/li8Su9jkZyUiPT0VKSn5TzFagRZ2Vl4kpUpLQ0lijYwMEAJQyMYGhhCoVDAxNQs52lihpIW4kp6GZSyLoNSVqWl4eCWVqVhJd5bl4FNBVuUsanAq9ev6KOC7PpqQn9cuXASDd9uhTnLNhWkiHydEx0VgSVzJuOa12npvBG9O2PBhEEwURjnqxwerDmBlLR0tBo8Fb7+wRC/e3fu3Km5ylkTBShAAQpoVICJt0a55VFZfHw8GjZsiPv372NwJxusnuIkj8D1OMq95+Iw/PsARCdkw8LSCqM/mw+PDt30WIRNp0DxC8RGR2F0v7ZITIjFyE/nomufQUUW1KnDu/HToi+QlJgAG2tL/PTlWLz3zttFVh8LVo/AkFlLsOXAKbi4uODSpUuwtLRUT8EshQIUoAAFtE6AibfWdYl2BHTt2jU0b94cqamp+GmSI4a9V147AmMUeQpExSkxbNF9HLiYIB3j0b47Rk2dB8tS1nmeww8oQIGiFTh34iDmTRsKMQHdsj8Oq33N8sTH8Vi1cAZOHf1bakjHlo2xasZYVCjLf/dF27OFL331jgOYtPAXmJubS0l37dq1C18oS6AABShAAa0VMJw1a9YsrY2OgRWbQMWKFeHg4CANOT96JQHtG1mhUjntmHW52FC0vOKSZobo29YGdjbGOOH9GP53/XDswA5UquyEyo7OWh49w6OAbgrYV62OqIdhuOd3HY8iw+Hxbne1NfTCqSP4atJHuON7BeZmJlgydTgWTBgMC3NTtdXBgopG4KLvHXw843tkZT/Bhg0b0Lp166KpiKVSgAIUoIDWCPCKt9Z0hXYGMmHCBCxbtkxKur1W1Ub50ky+tbOnno/qfkQ6Bs33x9mbydIH4ur3yM/m6P0ST88r8R0FNCOQkpyEDasXof+wydKtIIWtVdz7//Oimaqr3M1da2HN1xNQtXLFwhbN8zUgEBkTD/dPpiA0MhoTJ07EkiVLNFArq6AABShAgeIWYOJd3D2g5fVnZmaibdu2OH36NNzrlcSRxbVhZMhZs7W826TwxOzGK/+OxIw1oUhJz4aVdVmM+uxbuLd7Tw7hM0YKUOAVAv8c24dVi6YjIT4G5iYKzB43EKN6d+FqBq+w0sZdyowMdBo1E+d9bsPd3R3Hjx+HkZGRNobKmChAAQpQQM0CTLzVDKqLxUVGRqJRo0YICwvDqG7lsGx8VV1sps62KehhOoYtCsTJaznrM7u1bI9Rn81F+YpcXkhnO50N0zmBqIehWLXoS3idOSq1zaNxPelebsdKmlmmTOdAi6lBI+Yux4Y9nrC3t8fly5dRvjznTymmrmC1FKAABTQuwMRb4+TyrPDixYt45513IJYvWj7BASP/x//syaknxdXvNfuiMO2XB0hMyYbCxAwDhn+Gbn2HwtDQUE5NYawU0CuBrKws7N6yFht+WQRleioszc0xb8JADOnegVe5ZfaTsOLPPZj6wzppMrUzZ86gQYMGMmsBw6UABShAgcIIMPEujJ6enbtx40YMGDAAhgYlcHChC1o3KKVnAvJvbmScEhOXB2PHqTipMU7V62DstO/gUpf/AZR/77IFchLIzMxAaFAAHKvVzDPsO75XsWLB5wi8d1M6plf7Flg4aSgq2pTO8xx+oJ0Cnl7X0G38bIg/gm7duhW9e/fWzkAZFQUoQAEKFJkAE+8io9XNgqdPn4758+ejjKUhzv1UB852nD1Xjj19+FI8xi4JQlCkUgq//XsfYtDY6bAqXVaOzWHMFJCVQGJCHGaM6yvNdv7TZk+UsXl+uHFCXAx+W/Etju77U2qXg115/Pj5SLzbrKGs2slgcwT8H4TjnU+mIj4xCTNnzsTs2bNJQwEKUIACeijAxFsPO70wTRZ/re/Rowd2794NF3sTnFtZF6VKcqhyYUyL69zUtGzM2xiGH7Y9REbWE5hbWOKjYZ/hvV4fw5CT/RRXt7BePRGYOb4/vC+eRKNmrTF76Uap1VmZmdi3Yz02rlmElKREGBsaYsKA7vhicB+YmZroiYxuNTM+MRmtBk/F3eAw6Xfnzp07eYuAbnUxW0MBClDgjQWYeL8xFQ/MFUhKSkKLFi3g4+OD9o1LYe+3LjDkTOe5PLJ79Q9Lw6QVwTjklSDF7uDkgmETv0GDt91l1xYGTAG5CMQ+isTovm2QmBiPUVO+RaUqTliz9GsEB96RmtCheUMs+nQoqtnbyaVJjPMFgYzMTHQdNwunr/jirbfewrlz51CyZMkXjuJbClCAAhTQFwEm3vrS02puZ3BwMNzc3BAVFYWhXcph1WTOdK5mYo0Xt+98HD5dGYzAiJzh502at8XgcTNRxam6xmNhhRTQB4Gzngfw7fRhKGFggCfZ2VKTq1aqiIWTB6OLu5s+EOh0G4d98yM27T8BOzs7XLhwQZrJXKcbzMZRgAIUoMBrBQxe+yk/pEAeAg4ODtJwczMzM6zd/wgLNoflcSR3y0XgvWal4bPuLcwbWhmW5ga4dM4TY/q3wcrvvoC455QPClBAfQLi39S1y/9IBYqk28CgBL4e1R/eW5cz6VYfc7GVNG/tn1LSbW5ujn379jHpLraeYMUUoAAFtEeAibf29IXsImnatCk2bdoEAwMDfLUuHH8ej5ZdGxjw8wImCgNM7WuHuxtdMfJ/5QBk48Bff2BIz6bYvHYJUpKTnj+B7yhAgXwJpKYkS/+WxL8p8W9LJNwW5mbIzn6CtHQlTBTG+SqPB2ufwOaDJzDvlz+l343btm3jsmHa10WMiAIUoECxCDDxLhZ23alUTLT2ww8/SEukDFl4H//4JOpO4/S4JTZWxlg+oSqu/1oPnd+2QmpKCjat+R6DezbD31vWIEOZrsc6bDoF8i8g/s2IfzuDejSV/i2Jf1MdWzbG5T+XYdePM2GmUMCmNJdozL+sdp1x2tsXo+eukIJatmwZunTpol0BMhoKUIACFCg2Ad7jXWz0ulXxxIkT8eOPP8La0gBnlteBi72ZbjVQz1tz5kYivlwTgrM3kyUJm/J26Dd0Mtp16c0Z0PX8Z4PNf72AmKn82P7t2Lz2B0RHhUsHN3ethVljBqBl/dqqk6PjH8PGmom3CkSGG7cCQtBu+HRp2bDJkydj8eLFMmwFQ6YABShAgaISYOJdVLJ6Vm52djZ69eqFXbt2oUoFBc4srw3bsgo9U9D95h64EIeZvz6AT2Ca1NgKtvb44JPxaPtebxgZcYis7v8EsIVvKpCZmQHPfdux9fdliIx4IJ1Wr7ojZo3+CJ1aNH7TYnicTARCIh+h7ZBpCIuKQc+ePbF9+3ZpqLlMwmeYFKAABSigAQEm3hpA1pcqUlNT0bZtW5w/fx61HU1w6sc6sLYw0pfm6007xVru207GYu4fobgdkjPkvLxtZXzw8Xi069qHCbje/CSwoa8SEAn3sb3bsHX9MkRFhEqHuDhWxhdD+6B3e3eu4fwqNJnvi4l/jLbDvpDW6vbw8MChQ4dgamoq81YxfApQgAIUULcAE291i+p5eXFxcXB3d8fNmzfRrHZJHF5UC2amnEpAF38sxGRQ20/FYt6GUPgF5yTgYgh6j37D0bF7f5iametis9kmCrxSIC01BYf+3oRdm39RDSmvWbUypg3pg17tWvLq5yvV5L8zOTUNHUfNxJVb9+Dq6opTp07ByspK/g1jCyhAAQpQQO0CTLzVTsoCw8LC0KJFC4i1vju6WWHX3BowMixBGB0VEAn4ztM5CfjNoJwE3MLSGl17D0LXDwbByrqsjraczaIAkBAfg71bf8Pe7b8hKTFeIqntXEVKuHu2aV7ghHun51nsP+2Fdd9MIrOWCmRkZuL9T+fh2PmrqFq1Ks6dO4eKFStqabQMiwIUoAAFiluAiXdx94CO1n/37l20bNkSjx49Qr+2ZfH7F04cYqmjfZ3bLDEEff+FeCzaEo5z/07CplCYoH3Xvuj2wWBUcnDOPZSvFJC9QFhwAHZvXYeje7dA+e8s/83eqonJH/dE55ZNCvV9F5+YjNrdR0iTdC39fDiGv99Z9l661gDxfTf46yXYeug0ypcvj7Nnz6JatWq61ky2hwIUoAAF1CjAxFuNmCzqeYHLly+jTZs2SExMxNge5bFkrOPzB/Cdzgqc9U3Ews3hOHAxQdXGJs3botuHw9DgbXfVPm5QQG4CVy/+g91/rsGlc56q0MWyYJ9+3BMtXJ/OUq76sIAbfx0/i4+mLZKWGbuweQmqV6lUwJJ4WlEITFj4M9bsOARLS0ucPHkSDRs2LIpqWCYFKEABCuiQABNvHepMbWyKp6cnOnfuDKVSic/72mLuUHttDJMxFZHAraAULNv5EBuPxSBd+USqxcHJBV37DEGrDt1hZl6yiGpmsRRQn0BqSjJOHv4be7f9iuDAO1LBJgoF+nb2wNgPukIMLS+Kx9BZS7H5wEk0ql0NJ9Z+ByMjw6KohmXmU2D68t+xdMPfMDExwcGDB9G6det8lsDDKUABClBAHwWYeOtjr2u4zXv27JGWV8nKysKsQZUw4yNeudFwFxR7dbGPM7B6bxRW7X6IiJgsKR4zcwu06fQ+OvcYAMfqtYo9RgZAgRcFgu754cCuDTh+cCdSU5Kkj21trDG8dxcM7dEBZYt43e3HSSlw6z8BIRGPMG1Ib3w1ov+LIfK9hgXmrtmCb9dshbGxMf7++2/pD8saDoHVUYACFKCATAWYeMu04+QW9rZt29C3b1+I9b4XjrTHpN62cmsC41WDQEammIgtBqt3R+KMb7KqxFpvNUGnHgPQok0nmJpyNnQVDDc0LpCWloKzxw/i4K4N8PO5pKq/Rf1aGNqrI3q2aQFjI80tk3jm2i10GDFDumf82Jpv0bReTVVM3NCswJKNuzBj2XppwjzxO+3999/XbACsjQIUoAAFZC3AxFvW3Sev4NevX49BgwZBTEqzfIIDRv6vgrwawGjVKiCGoa/eE4UNR6ORmJItlS2ugr/Tvhvav9cHtd5qrNb6WBgFXifg53MZR/dtw+mju1VXty3NzdCvS2sM69mxyIaTvy6m3M++XLEeP/yxC62a1MOBlXNyd/NVgwK/7DyAid/9Iv0BRPwuGzBggAZrZ1UUoAAFKKALAky8daEXZdSGn3/+GaNGjZL+8/LLFAd80rG8jKJnqEUhkJKWjS3Ho/HbgUe46Pf0Knhlh2po27k3PN7tjgp2lYuiapap5wKR4aE4deRveB7YjtBgf5XG2/Vc8HG3dujd3h0lzUxV+4trQ5mRgQXrtmFi/x4oZcERIZruh/V7jmL0vJ+kPxqL32EjRozQdAisjwIUoAAFdECAibcOdKLcmrBkyRJMnjwZBgYlsPpTJt9y67+ijPfugzT8fugRNhyJwsPYnHvBRX21Xd3Q6t0eaNmuC9cFL8oO0IOyxbrbZ47tx8kju3DrupeqxRXLWktXtwd2bYcaDpyHQgWj5xu/7zmKMf8m3T/88AMmTeK66nr+I8HmU4ACFCiwABPvAtPxxMIILFq0CFOnTpWufP882QGDO/PKd2E8de3crKwnOHwpHpuPxWDP2Tik/jsjuoGBARq87YGWbd5DU493UcqqjK41ne0pAoHHCbG4cOoIzhzfh6sXT0lzTYhqzBQKdG31Nj7o5IF3mzaAoSFnDS8CftkWue7vwxg3/2fpSvf333+PTz/9VLZtYeAUoAAFKFD8Aky8i78P9DaCxYsXY8qUKVLy/dMkBwztwuRbb38YXtNwMRT97zOx2OIZgyOXE5Cdczu4NMFRvYbN0aJ1FzRr1RFlbPjz8xpGvfsoNjoK508ewtkT+3HD+5wq2RZ/vGnftD76dHwH//NoqhVDyfWuc2TQ4F93Hcb4BTlJN690y6DDGCIFKEABGQgw8ZZBJ+lyiLnDzkuUKIGVEx0w7D0mT7rc34VtW8zjDOz6Jw5/nY7Fce9EZGXnrA0uynWp0wBNWrSHW8u2cHapW9iqeL4MBQLu+MLrjCcunT2KOzevqlpgaGCAVm5voUebZvhfq2awKeJlwFQVF+GGuO/b+3YAZzkvAuO1uw5hwoLV0pVu8Ttq4sSJRVALi6QABShAAX0TYOKtbz2uhe1dunSpdN+cSL6Xja/C2c61sI+0MaSE5CzsORuLXadjcfjyYygznibhZcvZwq1FWzRq3gaujZvDvKSlNjaBMRVSICU5Edcvn8OVc8fhddYTMY8iVCUqFMbSle1ubZrhPfe3YW1ZUvWZ3DcSk1PRdtg0BIRE4OKWpahmbyf3JmlN/Kt3HMDkRWukpFv8bpowYYLWxMZAKEABClBA3gJMvOXdfzoT/bJly1T/wZk/3B5TPuA63zrTuRpoSGpaNjyvJmD/+XjsvxCLiJinE7OJocUudRpK94Y3cHOXrowbanAdZg00X2+qyMrMlK5kX/X6R7pX+85Nb9UQcoFga2ONTu5u6NSyMVo3cYW5qYnO2gyZtQRbDpxCo9rVcWLtAhgZ8f70wnb24g1/YebyP6RixO+kcePGFbZInk8BClCAAhRQCTDxVlFwo7gFVq9ejdGjR0v/kZ7xkS1mDbIv7pBYv0wFrt5Lxv4LcTh2KQEX/JKR9e994aI5ZubmqFXPDfUaNkXd+k1RvY4rjI0VMm2pboedkaHEvZvX4XvtAm54X4DfDS+kpqSoGi2GkIulv9o0rS8l2w1cnFWf6frG46QUuPWbgJCHj/DF0D6YObyfrje5SNv3zc+b8N267dLcEatWrcLw4cOLtD4WTgEKUIAC+ifAxFv/+lyrW7xp0yZ8/PHHyMrKwrie5bF4tIM0+ZpWB83gtFogKTULJ689xrHLCTh2JQF3HqQ/F69CYYKadRuhZr3GqFm3IVzqNoB1GZvnjuEbzQjEx0bjju9V3Pb1xu0bl3Hb9wqUyuf7Syz11eZtV7R9uz7eaVgPliXNNBOcFtbyz9Wb6DjyS+k70nPtfLxd10ULo9TukJ48eYIpP6zFqq37pVnt//jjD/Trxz9iaHevMToKUIAC8hRg4i3PftPpqHfv3o0+ffpAqVTik442WP1pVWnNb51uNBunMYHIOCVOX0/E6euP8Y/PY9wMej6xE4FUsLWXkvHqtevDuUZdOLnUhoWllcZi1IeKkhITEHjnFgLu3MA9v+tSkh0Z8eClptd2roIWDWrDvWFdtKxfBxVtSr90jD7vmLH8dyzZ8DecKlfExU1LOUt7Pn4YsrOzMerbldiwxxMKhQLbtm1Dt27d8lECD6UABShAAQq8uQAT7ze34pEaFDh27Jj0H6CUlBT08iiN9V84Q2FsoMEIWJW+CMQ+zsBZ3yRcvJWEi36JuHwnBUmpz4xN/xdCJONitnSn6nVRxckFDk7VYVvZEbxf/PU/KeK+7IjQIAQH3kNI4B0E3vOFmH38VUm2hbkJGtaqDrd6LnCrWwPN3qqFsjowA/nrhQr3qZjd3P2Tz3DjXhA+6d4eP00fU7gC9eRs4TboqyXY5XkO5ubmEH/wbdeunZ60ns2kAAUoQIHiEGDiXRzqrPONBM6dO4fOnTsjISEBbRpYYuecGrAw4wRCb4THgwoskJ39BLeCU3HRLwned5JxLSAZ1wNSka58Omt6buGGhsao7OAkJeKVqzjD1r4q7Co7wM6+KqxKl809TC9eE+JiEP7gPsJDgxHx4D5CQwKkRDs0OBBZWRkvGZgoFKhX3QGuLk5oWMsZTeq6oHZVe+ke25cO5o7XCtwKCEG74dPw1cj+GNm7y2uP5YeAmBX+g6nf4uSlG7CyssKBAwfQvHlz0lCAAhSgAAWKVICJd5HysvDCCly/fh2dOnVCREQE6lczxf4FNVG+NCfCKqwrz8+fQFbWE9wNTcXVeynwCUiGX3AabgalIjhSmWdBZuYW0hXx8hUqoVzFSrCpYIdy5e1QroIdypa3hXWZsjAxlcf9yelpqYiPjUFMVAQeRYbjUVQ4osXrwzBERYZJV7RTU5LytKhiWw61naqgppM96lV3RH0XZ9SoYifdU5vnSfwgXwJJKamwMJfHz1O+GqbmgyNj4tF94je4fuc+bG1tcfDgQbi6uqq5FhZHAQpQgAIUeFmAiffLJtyjZQJBQUHo0KED7t69i6oVFTi4qCac7Uy1LEqGo48CKWnZ8AtJwa2gVPiHpsE/LA3+4ekICE1DQsrLw9VfNBIzrFuXKQ/rMuVgXdoGllalYWFRCiUtrWBhWUq6r9zcohRMTc1hYmoKExNTKVkXCbuxiYmUuBoYGKpeDQxzRoRkZ2UhOztLmqQw9zUjPR0igZae6WlIT0tDWloKUpIeQ9xvnZT4GMniNekxEhPiEB8XjfjYR4iPjXpuJvEX25D73srCHM72ttLTqbItnKvYolbVKqjpWJn3Heci8bVYBQJCI9B13CwEhUWiRo0aOHz4MBwdHYs1JlZOAQpQgAL6I8DEW3/6WtYtjY6ORpcuXeDl5YXy1obYM98FjWpYyLpNDF63BcS944ER6QiJVOLBIyVCo9LxIEpspyM8OhNR8RlQZrw8fF0bVRTGhihfxhoVbcrAvmI5VK5go3qK91XtKvBebG3sOMakErji54+eE+bgUXwC3NzcsH//ftjYcPUCFRA3KEABClCgyAWYeBc5MStQl0BycjJ69eqFQ4cOwcLMAFu+qoaObtbqKp7lUEDjAo+TsxAZlyE9o+IyEJuYifikLCQkiddMxCVmISE5C6lpWUhWZkuvqelPkJKehTTlE2l9cjEMPjMbyMx6gux/L7IbGABGhiVgZAAYGpaAoQFgqiiBh7FZUhsb1a4Gc1MT6WllURJWpUrC2rIkxLZ4LV3KEuXKWKNCGSsp4Rb7+aCAXAWOnPfGR198h6SUdOnWpe3bt6NkSf5My7U/GTcFKEABuQow8ZZrz+lp3JmZmRgyZAjEWqsGBiXw47gqGPm/CnqqwWZTIH8CpTpdQqryCaJPb5WS7vydzaPlJPDn4VPYtP8Edv0wE0ZG+jsp5Zq/DmLSwjUQS4cNHDgQv/76K4yMjOTUlYyVAhSgAAV0RIDrM+lIR+pLM8R/mNavX4+vvvoKYvbpcT8G47NVwdK2vhiwnRQoqICZSQnp1NS0l9cuL2iZPE/7BFLS0vH1ig3wvHANC37bpn0BaiAikWh/vnQdJixYLSXdM2fOlH53MOnWAD6roAAFKECBVwow8X4lC3dqu8A333wjXfVWKBRYuiMSvb++h9S0/57MStvbxfgoUJQCZiY5X/kp6XnPxl6U9bNszQiI2wjWfDMRJUqUwIJft+PSrbuaqVhLahF/eOj7+QIs37wH4neE+GPt7NmztSQ6hkEBClCAAvoqwMRbX3teB9o9YMAAHDlyBNbW1thzLh6tJt1CZBwTCh3oWjahiATMFDlf+WnpvOJdRMRaU+w7DetifP//SVd7B81cguTUNK2JrSgDiYiOxbsjpmPvKS/pd4P4HSGGmPNBAQpQgAIUKG4BJt7F3QOsv1ACHh4euHDhApydneF9NwXNRt/C1XvJhSqTJ1NAVwXMTHO+8lN5xVtXu/i5dn0z6iPUreaAwAcR0rDr5z7UwTfX796Hx6Cp8PYLkH4nXLx4EeJ3BB8UoAAFKEABbRBg4q0NvcAYCiXg4uIiJd8tW7aUlmvyGO+HbSdiClUmT6aALgqY/zvUnIm3Lvbuy21SGBvjt9mTIZaDW7frCA6c8Xr5IB3Zs+PYGbQd8jlCI6PRokUL6XeCWKubDwpQgAIUoIC2CDDx1paeYByFEhDrsXp6ekoznqcqs9F/bgC+WvcAT57IY53kQjWeJ1PgDQVy7/FO4xXvNxST/2F1qjlg9ticodaLft8p/wa90ALxHf/1qg0YOP17iLkLBg8ejOPHj3ON7hec+JYCFKAABYpfgGtqFH8fMAI1CYhJdNauXQtXV1dMmjQJ8zdFwDcwBX/MqAYLM/1dTkdNvCxGBwRMFTn/DnjFWwc6Mx9NGPehuNf7CYb26JCPs7T/0MTkVAz6ajEO/HMZhoaGWLJkCcaNG6f9gTNCClCAAhTQSwFe8dbLbtftRov/eB0+fBhlypTB3vMJaDHWFwHh+jGxkG73LFtXWAEuJ1ZYQXmeL2Y3n9i/OyzMzeTZgFdEHRAaAY/Bn0lJd9myZaWJNpl0vwKKuyhAAQpQQGsEmHhrTVcwEHUKtG3bFl5eXqhTpw5uBaXj7RG+2HsuTp1VsCwKyE7ATHXFm7Oay67zGLBKYP8/XnD/+FPcvh+KunXrSt/1bdq0UX3ODQpQgAIUoIA2CjDx1sZeYUxqERAznZ8/fx7vv/8+ElKy8f5X/pj56wNpyKVaKmAhFJCZwNMr3lx2T2Zdx3ABaWk0cT93nynzEZ+Ygp49e0rf8U5OTvShAAUoQAEKaL0AE2+t7yIGWBgBS0tL7NixA4sWLYIYbrlgcwQ6f34HMY8zClMsz6WALAVyJ1dL5Tresuw/dQYtJtg7euGqOoss0rIexSXgvXFfY9FvO6Xv8oULF2Lnzp2wsLAo0npZOAUoQAEKUEBdAky81SXJcrRaYMqUKdKs5xUqVICn92O4jbyJy3eStDpmBkcBdQuYmXByNXWbyrE8kXS3/GQKekycg0u37mp9Ey763kGLgZ/i5KUbEN/hYtbyzz77TOvjZoAUoAAFKECBZwWYeD+rwW2dFmjVqhW8vb3RvHlzhEQq4THBD8v/eqjTbWbjKPCsQO5Qcy4n9qyK/m2bmijQrml9aej2kK+WIiVNe+/5/2nbPrw7bLq0PnfLli1x9epVeHh46F+nscUUoAAFKCB7ASbesu9CNiA/AnZ2djh58iTGjx8PZcYTTF4Zgp4z7yA+KTM/xfBYCsjJrjIpAAAgAElEQVRSgFe8ZdltRRL0N6MGoI5zFfiHhOPzpeuKpI7CFBqbkIg+U77FlO/XIiMrCxMnTsSJEydga2tbmGJ5LgUoQAEKUKDYBJh4Fxs9Ky4uAWNjY/z444/466+/YG1tjb3nEtBwmC8u3EosrpBYLwU0IpB7xTs1jZOraQRciysxURjjt7mfQmFsiF//OoyDZy9rTbTnfPzQ9KNJ2HfaS/qOFvdyizW6jYyMtCZGBkIBClCAAhTIrwAT7/yK8XidEejRoweuXbuGpk2b4kGUEq0m3MaiP8Px5MkTnWkjG0KBZwXMFDlf+Zxc7VkV/d2u6+yAWaMHSACj5iyHmMCsOB/Z2dlY8Ns2vDt8hjS0vFmzZtJ3tJi9nA8KUIACFKCA3AWYeMu9Bxl/oQQcHBxw+vRpaaKe7CfA9DWh6DLtDh7G8opgoWB5slYK5M5qnp7On2+t7KBiCGpCv254p1FdRMUmYMy8lcUQQU6VEdGx0qzls1dtlv74OW3aNOm7WXxH80EBClCAAhTQBQEm3rrQi2xDoQTE0HOxNM3+/fthY2ODo5cfo8HQG9h9NrZQ5fJkCmibQG7irc2TaWmbma7HI5ZZXDNrIuzKlUGHFo2Kpbm7T57H2/0mqGYtP3z4MObPn8+h5cXSG6yUAhSgAAWKSoCJd1HJslzZCXTq1Ak3btxAhw4dEJ2QhV5f+WPE94FIScuWXVsYMAVeJaBKvHnF+1U8ervPvoINbu5ajSE9OmjUIDE5FcPnLEPfqd8hOj5R+u69fv062rdvr9E4WBkFKEABClBAEwJMvDWhzDpkI1CxYkUcPHgQy5Ytg4mJCdYdjEaDoT64dJtrfsumExlongK593hzqHmeRHr7gZhsTZMPMYGaW/8J2Lj3OMzMzLB8+XLpu1es080HBShAAQpQQBcFmHjrYq+yTYUSEEMvx40bhytXrsDV1RWBEUq4j/PD7PWhyMjkxGuFwuXJxSpgbprzlZ/KK97F2g/6XHlGZia+XrVBmkAtODwKDRs2hLe3N8aOHQvx3csHBShAAQpQQFcFmHjras+yXYUWqFOnDry8vDBlyhSIidfm/BGO5mNu4EZgcqHLZgEUKA6B3KHmTLyLQ19+dap7hQefe/fh/skULPptp4Qxffp0XLhwATVr1pQfDiOmAAUoQAEK5FOAiXc+wXi4fgkoFAosWrQIJ06cgJOTE675p6Hp6FuYtzEMmVm8+q1fPw3yb23uUHOu4y3/vizqFmzY5yklyeqYiE9c5Z67ZgvcB06Bz90g6btUrCYxb948iMkt+aAABShAAQrogwATb33oZbax0AIeHh7w8fHBmDFjkJEJzPotDC3G3sTNoJRCl80CKKApgdwr3mnpaZqqkvXIUECZkYEfN+2Gt18Apv34W6FacO1OIFoM/BTfrtmKzOxs6TYeMYllixYtClUuT6YABShAAQrITYCJt9x6jPEWm0DJkiWxYsUKeHp6wtHREd53U+A28ia+3RjGe7+LrVdYcX4EchNvDjXPj5r+HaswNsZvcybD2NAQa3cewuFzV/KNIJL32as3wf3jKfD1D0a1atVw6tQpaeJKc3PzfJfHEyhAAQpQgAJyF2DiLfceZPwaF2jdurW07NjIkSOhzHiCr38LQ5MRPrjox5nPNd4ZrDBfArlDzVPSM/J1Hg/WP4F61Rwxa8xHUsNHzlmO6PjHb4wgZixvNmAyFvy6HeKGnIkTJ0IsE+bu7v7GZfBAClCAAhSggK4JMPHWtR5lezQiYGFhgVWrVuH48eOoXr06bgal453xfpi4PAhJqVkaiYGVUCC/AgrjnFmjlcoMqHvirPzGwuO1X2BCv25wb1gHkTHxGDNvxX8GHJ+YjLHzf0L7YdPhF/gANWrUgLiXe8mSJeBV7v/k4wEUoAAFKKDjAky8dbyD2byiFRBXv8W931988QVKlDDAyr+jUG/QDey/EFe0FbN0ChRAQCzXZKLISb453LwAgHp2ioGBAdZ8MxGW5ubYe8oL6/cczVNgx7EzaNhnDNbtOiJNmDZz5kzpu5H3cudJxg8oQAEKUEDPBJh461mHs7nqFzA1NcW3334rrUXr5uaG0EdKdJ9xDx/OuouwaKX6K2SJFCiEQEmTfxPvtPRClMJT9UWgSoVyWDptuNTcX3YcemmkRHBEFHpMnI2B07/Hw5h4aTj5tWvXMHv2bJiYmOgLE9tJAQpQgAIU+E+BEk843vA/kXgABd5UIDs7G8uXL8eXX36JpKQkmJsY4MuBdpjYyxbGRjkJz5uWxeMoUBQCjh94Iyw6E3f3rUXl8jZFUQXL1EEBcbW797vvwNw0J5lOV2ZgyaZd+H7dDqSkK2FtbY2FCxdi6NChECMr+KAABShAAQpQ4HkBJt7Pe/AdBdQiEBoaismTJ2P79u1SeTWrmGDZ+Kpo3aCUWspnIRQoqECtAdfgH66Ez86fUM3erqDF8Dw9Fjh07gqmfL8GgaEPJYW+fftK93FXqFBBj1XYdApQgAIUoMDrBTjU/PU+/JQCBRKoXLkytm3bhiNHjsDFxQW3Q9Lx7pTb6D/nHiJiOPy8QKg8SS0CZqY5X/u8x1stnHpVyP3Qh+j16Vz0nDhHSrrr1q2LEydOYPPmzWDSrVc/CmwsBShAAQoUQICJdwHQeAoF3lSgffv20gRD4h5wMavvtpNxqP2xD+ZvCkO6MvtNi+FxFFCbANfyVhul3hSUkpaOOb9sRsMPx+PAP5dhaWkpXeG+evUqWrVqpTcObCgFKEABClCgMAJMvAujx3Mp8AYCCoVCmvXcz88PPXv2RFJqNr5aF4ban/hg+8mYNyiBh1BAfQJmxv9e8ebkaupD1dGSxBQwGw8ch2uv0Zi/dhuUGRkYOHAg7t27h+HDh+Ovv/7S0ZazWRSgAAUoQAH1CzDxVr8pS6TAKwWqVKmCnTt3SkMzXV1dERKpRL85AWg1/iau3E165TncSQF1C/CKt7pFdbO8096+aDHwUwyftQxhUTFo0qQJzpw5g/Xr16Ns2bJo2rQpPvjgAxw6dEg3AdgqClCAAhSggJoFmHirGZTFUeC/BMTQTG9vb6xZs0a6L/LszWQ0G+2Hwd8FcPmx/8Lj54UWUCXevOJdaEtdLCAgNAIfTp2PjiO/xLU7gbC3t8eGDRtw8eJFNG/eXGqykZERPvroI2l78ODBiInhyB1d/FlgmyhAAQpQQL0CTLzV68nSKPBGAgYGBtKyO3fv3sXUqVNhbGyMDUdi4DLAB1/8Eoz4pMw3KocHUSC/AmYmhtIpqelcxzu/drp8/KO4BHy6eA0a9h6LPScvwsLCAnPmzMGdO3ekJPvFJcKmTJkCDw8PRERESMPOddmGbaMABShAAQqoQ4CJtzoUWQYFCihQqlQpfPfddxD3f3/44YdQZjzB91sjUf2ja/h+awQnYCugK0/LW8DMJGeN5bR0zq6ft5L+fJKYnCpNnFanx0is2rofWU+eYMiQIdJ93F9++SXMzMxeiSH+eCiGnVtZWUn3ev/++++vPI47KUABClCAAhTIEWDizZ8ECmiBgJOTE7Zs2YLLly+jXbt2iE/Mxhe/PIDLgGv4/VAUsrKeaEGUDEEXBFRDzZl460J3FrgN6coMLNuyG3V6DJcmTktKSUXXrl1x/fp1rF27FhUrVvzPsh0cHLBixQrpuPHjx+P+/fv/eQ4PoAAFKEABCuirABNvfe15tlsrBRo2bIijR49K6383aNAAYdGZGLYoCK5DfLD1RAyys5mAa2XHySiop0PNecVbRt2mtlAzM7Owfs9RvPX+KExb8hui4xPh7u6Os2fPYs+ePRBrc+fnIe717tOnDxITEzFgwABkZ3OZxPz48VgKUIACFNAfASbe+tPXbKmMBMT631euXMGmTZvg7OyMOw/S8dHcADQY5oOdp2MhlvnhgwIFETBVcKh5Qdzkfo5IuDfs84Rr7zEYNXclHkRGQ6yusH//fpw+fVo1cVpB2rlq1SrUrFlTmrdCDEHngwIUoAAFKECBlwX4G/JlE+6hgFYIiMmM+vXrh9u3b0tDP8WwzltB6fjwG380Hn4De87GaUWcDEJeArlDzVM4q7m8Oq6A0T6bcI+YvRz3wx7CxcUFmzdvxtWrV9G5c+cClvz0tDJlysDX1xeffPLJ053cogAFKEABClDgOQEm3s9x8A0FtE9ALN2TO9mRuLJUuXJl+ASm4f2v7sFthA92/cMr4NrXa9obUW7inZrGoeba20uFjyyvhHvjxo24efMm+vbtixdnKi9MrYaGObPlF6YMnksBClCAAhTQZQEm3rrcu2ybTgmIJcdGjhwJf39/LF++HLa2trjqn4Y+s/zx1mAfbDwajUxOwqZTfV4UjVEl3lxOrCh4i71MMVv96h0HUK/XKORe4a5Ro4a0FrdIuPv37w8mycXeTQyAAhSgAAX0UICJtx52OpssbwETExOMHTsWgYGBWLlyJcQQ9Nsh6Ri0IBC1BlzH6r2RXIZM3l1cpNGbm+R87adzVvMiddZ04QlJyVj4+3bU7DYckxb+guDwKGlI+YYNG3Dr1i1pLW5NJ9yZmZmaZmB9FKAABShAAa0VYOKttV3DwCjwegFTU1OMHj1augIu1tAVkxsFRSoxdmkwqvW/ikV/hiMhOev1hfBTvRN4esWbQ811ofMfRsdhxvLfUeO9YZj10yZExcajcePG2LFjR7El3MJ1zZo1qF27NmJiYnSBmW2gAAUoQAEKFFqAiXehCVkABYpXQNwD/vHHH0v3bW7fvh1iGbKHsVmYviYUjh9cxeSVQQh6mF68QbJ2rRHITbxTeMVba/qkIIH4BgRjxNzlqNl9OJZs+BuJKSlo27Ytjh07hkuXLuH9999Hcc0wLpYUE/eS37t3DyNGjChI83gOBShAAQpQQOcESjzhukQ616lsEAUOHz6MxYsXS2uCCw0DgxLo0dIak/vYwq2WBYH0WOD09cdoO/k23BvWweGf5+mxhPyaLn5dHzp3Bcs378bJSzekBojkukePHpg2bZp0pVtbWhUcHIx69epJ63uLETnij4N8UIACFKAABfRZgIm3Pvc+267zAj4+Pvjhhx+wZcsWKJU5Q4ub1S6JsT0rood7GRgb5azprPMQbKBK4NLtJDQfcwuNalfHP78vUu3nhvYKiKXfNu73xIot++AfEi4FamlpiUGDBmH8+PFwdnbWyuD/+OMPKeEWsYrvIkdHR62Mk0FRgAIUoAAFNCHAxFsTyqyDAsUsEBERIc2ELpYji4+Pl6KpYG2I4f+rgGHvlYdtWUUxR8jqNSXgez8FDYb6orZzFVzeskxT1bKeAgjcDQ7DLzsPYvP+44hPTJFKEJMpjhs3DkOHDoWVlVUBStXsKb1795buN3d3d8fJkyeLbfi7ZlvN2ihAAQpQgAIvCzDxftmEeyigswLJycnSvZcrVqyAr6+v1E5DMQzd3RpjelREy3qWOtt2NixHICA8DTUH+KBqpYq4uetnsmiZgFh/e+/pi/hlx0GcupwznFyE2Lx5c0yaNEkaVq7p2ckLQxQbGysNOQ8PD8f8+fOlIfGFKY/nUoACFKAABeQqwMRbrj3HuClQSIFTp05Jy5H99ddfyMrKmf28jqMJBneugAHv2qC0pVEha+Dp2igQHq2EwwfXYGtjjYADv2tjiHoZU2hUNH7ffRS/7TqMiOicUSnm5ubSMmCjRo1C/fr1Zety5MgRdOzYEa6urtLEb2JCSD4oQAEKUIAC+ibAxFvfepztpcALAmFhYVi9erW0/M/Dhw+lTxUKA/RoYY2h75WHh6slSpTgveAvsMn2bXxSJsp184a1pTnCPTfLth26ELgyIwN7T3th/Z5jOH7xOsRs4OIhluESyfbAgQNRqlQpXWgqxB/4OnfuDLEMIh8UoAAFKEABfRRg4q2Pvc42U+AVAhkiCdi7F2vXroWYFT03CXCyVWBQ53L4uEM53gv+Cje57UpXZsOi02UoFMaIP7NdbuHrRLw3/IOkZHvroVOIiU+U2qRQKNCzZ0+MHDkSHh4eOtFONoICFKAABShAgacCTLyfWnCLAhT4V+DBgwdYt26d9AwJCZH2iiXJWte3xEfv2qCnexmYmxrQS4YCYkkqRbtLUuTJF3dxNIOG+jAqNh47jp3Bpn0ncPV2gKpWMYR8yJAh6NevH8qUKaPazw0KUIACFKAABXRLgIm3bvUnW0MBtQqIq97i/sxff/0Ve/bsUS1JZm4mhqKXlpLwNg1KSeuEq7ViFlakAhadLiFd+QQxp7fCzNSkSOvS58KTU9Ow++R5/Hno9HNDya2traV7twcPHowGDRroMxHbTgEKUIACFNAbASbeetPVbCgFCicgliHbtm0bNmzYgLNnz0JcORUP27KG6O1RFr1bl8XbtSx4BbVwzBo5u1z3y4hPzEbo0Q0oY8WZ7NWJnpGZCU+v6/jzwEnsO3URKelKqXhjY2N06tQJ/fv3R7du3WBiot9/8EhKSsKmTZswYsQIdfKzLApQgAIUoIDWCjDx1tquYWAU0F6B+/fvSwn4xo0bce/ePVWg9uUV6OVRGr1blUWTmhaq/dzQLgGHD7wRHp2Ju/vWonJ5G+0KTobRiEnSRLL9l+dZ7D91CfGJSVIrxKSELVq0kJLtPn36cCj5v30r/mjXqFEjXL16FevXr5cmkZNhtzNkClCAAhSgQL4EmHjni4sHU4ACLwp4eXlJV8K3b9+O3PvBxTEOFXKS8B7vlIVbzZK8Ev4iXDG+d/noGgIjlPDZ+ROq2dsVYyTyrTotXYmjF72xy/M8Dv5zCQlJKarG1KtXD3379pXu23ZwcFDt58ZTAZFwf/LJJ7C0tMSNGzdAp6c23KIABShAAd0UYOKtm/3KVlFA4wLiKtaFCxdUSbhYpiz3UcHaEO81L41uLUujTQMrmCg4MVuuTXG8Nhh6Hb7303Fx81LUq+ZYHCHIss7o+Mc4dO4yDp6+hKMXriEpJVXVDjFJWu/evdGrVy/UqFFDtZ8beQsIq507d+Kdd97BiRMnYGDA74W8tfgJBShAAQrIXYCJt9x7kPFTQAsFRBIu7gMX/6n++++/ERQUpIrSwswA7RuXQreWZdDRzQplSxmrPuOGZgRajPWFl18KTv62EG51mCS+Tv120APs/+eSlGxfuHFHtcyeOKdx48ZSoi0SSGdn59cVw89eIRATEwMxOiAiIgILFizA559//oqjuIsCFKAABSigGwJMvHWjH9kKCmi1gI+Pj5SA7969G97e3qpYxRJlDWuYoWMTa3R82xpNXEpyhnSVTtFttJt0C6d8knDo57l4p2HdoqtIhiWLq9invW/g6PlrOHLOG/fDHqpaIdbabt26Nbp27So9q1SpovqMGwUTOHz4sDTpnJh87uLFixAjB/igAAUoQAEK6KIAE29d7FW2iQJaLCDWCBcJ+N69e3Hq1Cmkp6erorW2NED7Rlbo6GaNto2sUMlGofqMG+oT6DrtNg5deoxdS2eiQ/NG6itYhiWJ0RnX7gbi6HlveF64hgvXbyMjK0vVEhsbG3Tp0kVKtDt06AALC04aqMJR08a4ceOwYsUK1KlTR5pwTSThfFCAAhSgAAV0TYCJt671KNtDARkJpKamSvd2Hjp0CAcPHoS/v/9z0VezU6B1Qyu0blAKreqXQjlr/of8OaACvunz9V3sOhOPzd99ju6tmxWwFPmeJoaPn75yA/9cuYlTl30QHZ+oaoy4z/jtt9+GSLLF083Njfceq3SKZkN8D7Rp0wZjx46VZoAvmlpYKgUoQAEKUKB4BZh4F68/a6cABZ4RCAgIkBLwI0eO4OTJk0hMfJoQiaWZajso0LqBFdzfKoXmdS1QsQyviD/D98abA78NwBbPGPw6eyL6dmz1xufJ8UBxRft2UKiUaJ++4oszV27iUXzCc00RM2q/++67UqLdtm1bWFtbP/c531CAAhSgAAUoQIHCCjDxLqwgz6cABYpEICsrC1euXMHx48elq+JnzpxBSsrTJZtEpVUrKtC8rqWUhLeoZ4laVcx4j/gb9MaI7wOx7mA0VkwfhcHdO7zBGfI5RNyjffnWPVy4cRtePndwweeOal3t3FbY2dmhVatWqmf16tVzP+IrBShAAQpQgAIUKBIBoyIplYVSgAIUKKSAoaGhNMxXDPWdNm0alEqlNPmSuBIukvDz58/j/sNE3H8Yg03HYqTarMwN0KSWBRq7lETjmiXR2MWC94m/oh/MTHKWbUpNV77iU/nsEn+c8QsKxVU/f1y6eQ9eN27D1z/kuZnHRWsqVaoEDw8PJtry6VpGSgEKUIACFNA5ASbeOtelbBAFdFNAzCjt7u4uPUULs7OzcePGDWnZMrF0mXgGBwfj2JXH0jNXoby1oZSAN3IpCfF8y8kc9uVNcj/Wy1czkxJSu+WUeGdkZsLv/gMpyfa+HYDrtwNx414QXmyDmJirUaNGaNasGZo3by69cvZxef6Yp6WlwdTUVJ7BM2oKUIACFKDACwJMvF8A4VsKUEAeAmISLFdXV+k5evRoKeiwsDB4eXnh8uXLqmdUbCwOXEyQnrktszQ3gKuTGeo6maOekznecjZH3armsDAzzD1Ep1/NTHLamaaFV7zFPdkhEY/gGxCEmwHB8AsIwc2AENwNDocyI+OlfhHrZzds2BBNmjSRkmyxtjaTtZeYZLdj5cqVmDt3rjTKhX84kV33MWAKUIACFHiFABPvV6BwFwUoIE8BMaS4R48e0jO3BYGBgVISfunSJWmpInGVPCoqCmd8k6Vn7nHitZKNEVzszVDD3hQ17M3gYm+KmlXMYF9eATG5m648VEPN054u5abptol7sf0fRMD/QTjuhYTBPyQcd4PC4Xc/BCmpL8cl/MW92OJqtniKZFs8ORGapntOM/WJuR0ePnyIgQMHSvM8iD+08UEBClCAAhSQswAnV5Nz7zF2ClCgQAKRkZHw8fGRniIRF9u3bt16bk3xZws2Uxigqp0xHCuYwrGiCRxtTaTXqrYmqGprCquS8rpSvmLXQ0xaEYKRfTrjhynDn22q2rYzM7MQFhWD4IdRCI6IlK5ihzx8hKDQh/APCUNEdHyeddna2qJu3brSs169etJr7dq1UbJkyTzP4Qe6JRATEyP1u0i+v/vuO0ydOlW3GsjWUIACFKCA3gkw8da7LmeDKUCBVwmIe8aDgoJw586d5563b99GRETEq05R7RND1yvZGMOurAK2ZRWwsxHPnPfitby1MWysjFFKSxL0Xw9EYeTiIHzSrR1+mjFW1Y432RATmsUkJCIyNh4Po+PwMDoWEdGx0nak9D4OoZHRCHsU+9IkZ8+Wb2JigmrVqqFGjRrSlWzxKp516tRBmTJlnj2U23oqcOjQIXTq1AlifgdxC4m4tYQPClCAAhSggFwFmHjLtecYNwUooDEBsZ64GLIuEvP79++rnrnvk5KS3igWMVrWppQhbKyNUNbSSErGS1saSQm5pbkhnnuaGaBUSSOIidBMjA2gMDKAiUJs57wX+4yNSiB3BPyzA+Fz92U/ATIynkCZ9QTKjGwoM58gXZmNv07H4os1oWjj5oqJA7ojMTkVSampSE5JQ1JqGpKSU5GQlIL4x4mITkhE/OMkKdmOiUuUjhP3Yf/XQwwNFst2OTo6QqyTLZ5iWzzFkHFx3y6HD/+XIj8fO3YsxP3eYgSEmLtB/MGGDwpQgAIUoIAcBZh4y7HXGDMFKKBVAnFxcRATu4WHh7/yKe4pj46Ohkjg5f4QybK4Il2xYkWIIeGvelauXBniKWYY54MChRFITU2V7uUXI08mTpyIJUuWFKY4nksBClCAAhQoNgEm3sVGz4opQAF9E8jIyJAScHH/qkjExVMk7Y8fP5aScpGYP7st3ovEIz09XfUU65mL92KpJVGeGCIvHq+6Ci0mJBNXCMVQ3WefYri4+GOAkZGR9Lk4xszMTHqK+6gtLS1hZWUlDftu2rSplGiXLVsW4in269JEc/r2MyjH9l65ckWasV7chnDhwgVe9ZZjJzJmClCAAhQAE2/+EFCAAhSgAAUooNUCnp6ecHd3l/6ApNWBMjgKUIACFKBAHgJMvPOA4W4KUIACFKAABShAAQpQgAIUoIA6BLgwpjoUWQYFKEABClCAAhSgAAUoQAEKUCAPASbeecBwNwUoQAEKUIACFKAABShAAQpQQB0CTLzVocgyKEABClCAAhSgAAUoQAEKUIACeQgw8c4DhrspQAEKUIACFKAABShAAQpQgALqEGDirQ5FlkEBClCAAhSgAAUoQAEKUIACFMhDgIl3HjDcTQEKUIACFKAABShAAQpQgAIUUIcAE291KLIMClCAAhSgAAUoQAEKUIACFKBAHgJMvPOA4W4KUIACFKAABShAAQpQgAIUoIA6BJh4q0ORZVCAAhSgAAUoQAEKUIACFKAABfIQYOKdBwx3U4ACFKAABShAAQpQgAIUoAAF1CHAxFsdiiyDAhSgAAUoQAEKUIACFKAABSiQhwAT7zxguJsCFKAABShAAQpQgAIUoAAFKKAOASbe6lBkGRSgAAUoQAEKUIACFKAABShAgTwEmHjnAcPdFKAABShAAQpQgAIUoAAFKEABdQgw8VaHIsugAAUoQAEKUIACFKAABShAAQrkIcDEOw8Y7qYABShAAQpQgAIUoAAFKEABCqhDgIm3OhRZBgUoQAEKUIACFKAABShAAQpQIA8BJt55wHA3BShAAQpQgAIUoAAFKEABClBAHQJMvNWhyDIoQAEKUIACFKAABShAAQpQgAJ5CDDxzgOGuylAAQpQgAIUoAAFKEABClCAAuoQYOKtDkWWQQEKUIACFKAABShAAQpQgAIUyEOAiXceMNxNAQpQgAIUoAAFKEABClCAAhRQhwATb3UosgwKUIACFKAABShAAQpQgAIUoEAeAky884DhbgpQgAIUoAAFKEABClCAAhSggDoEmHirQ5FlUIACFKKbBGMAAAKlSURBVKAABShAAQpQgAIUoAAF8hBg4p0HDHdTgAIUoAAFKEABClCAAhSgAAXUIcDEWx2KLIMCFKAABShAAQpQgAIUoAAFKJCHABPvPGC4mwIUoAAFKEABClCAAhSgAAUooA4BJt7qUGQZFKAABShAAQpQgAIUoAAFKECBPASYeOcBw90UoAAFKEABClCAAhSgAAUoQAF1CDDxVociy6AABShAAQpQgAIUoAAFKEABCuQhwMQ7DxjupgAFKEABClCAAhSgAAUoQAEKqEOAibc6FFkGBShAAQpQgAIUoAAFKEABClAgDwEm3nnAcDcFKEABClCAAhSgAAUoQAEKUEAdAky81aHIMihAAQpQgAIUoAAFKEABClCAAnkIMPHOA4a7KUABClCAAhSgAAUoQAEKUIAC6hBg4q0ORZZBAQpQgAIUoAAFKEABClCAAhTIQ4CJdx4w3E0BClCAAhSgAAUoQAEKUIACFFCHABNvdSiyDApQgAIUoAAFKEABClCAAhSgQB4CTLzzgOFuClCAAhSgAAUoQAEKUIACFKCAOgSYeKtDkWVQgAIUoAAFKEABClCAAhSgAAXyEGDinQcMd1OAAhSgAAUoQAEKUIACFKAABdQhwMRbHYosgwIUoAAFKEABClCAAhSgAAUokIcAE+88YLibAhSgAAUoQAEKUIACFKAABSigDgEm3upQZBkUoAAFKEABClCAAhSgAAUoQIE8BJh45wHD3RSgAAUoQAEKUIACFKAABShAAXUIMPFWhyLLoAAFKEABClCAAhSgAAUoQAEK5CHAxDsPGO6mAAUoQAEKUIACFKAABShAAQqoQ4CJtzoUWQYFKEABClCAAhSgAAUoQAEKUCAPASbeecBwNwUoQAEKUIACFKAABShAAQpQQB0C/wehSOUhZJCNdAAAAABJRU5ErkJggg==;" vertex="1" parent="1">
                    <mxGeometry x="70" y="150" width="520" height="394" as="geometry"/>
                </mxCell>
            </root>
        </mxGraphModel>
    </diagram>
</mxfile>